M48
METRIC,LZ,000.000
;FILE_FORMAT=3:3
;TYPE=PLATED
;Layer: PTH_Through
;EasyEDA v6.5.48, 2025-01-19 19:24:15
;93f84cf920734f188c47773e0b6923d2,3cbab8949a5742979101216bdbeae448,10
;Gerber Generator version 0.2
;Holesize 1 = 0.306 mm
T01C0.306
;Holesize 2 = 0.701 mm
T02C0.701
;Holesize 3 = 0.800 mm
T03C0.800
;Holesize 4 = 0.811 mm
T04C0.811
;Holesize 5 = 0.889 mm
T05C0.889
;Holesize 6 = 0.901 mm
T06C0.901
;Holesize 7 = 0.915 mm
T07C0.915
;Holesize 8 = 1.000 mm
T08C1.000
;Holesize 9 = 1.401 mm
T09C1.401
;Holesize 10 = 1.600 mm
T10C1.600
%
G05
G90
T01
X087780Y050096
X119341Y045598
T02
X091694Y044450
X094488Y044450
X115570Y044069
X118364Y044069
X023495Y053467
X026289Y053467
X095123Y053848
X087503Y053848
X095123Y056388
X087503Y056388
X118745Y053975
X111125Y053975
X118745Y056515
X111125Y056515
X098425Y059957
X100965Y059944
X095885Y059944
X122047Y059830
X124587Y059817
X119507Y059817
T03
X098425Y044450
X098425Y054610
X122047Y044196
X122047Y054356
X069372Y090393
X069372Y087853
X069372Y085313
X069372Y082773
X069372Y080233
X069372Y077693
X069372Y075153
X069372Y072613
X069372Y070073
X069372Y067533
X069372Y064993
X069372Y062453
X069372Y059913
X069372Y057373
X069372Y054935
X043972Y087853
X043972Y085313
X043972Y082773
X043972Y080233
X043972Y077693
X043972Y075153
X043972Y072613
X043972Y070073
X043972Y067533
X043972Y064993
X043972Y062453
X043972Y059913
X043972Y057373
X043972Y054833
X043972Y090393
T04
X076581Y054737
X076581Y057277
X076581Y059817
X076581Y062357
X076581Y064897
X076581Y067437
X076581Y069977
X076581Y072517
X076581Y075057
X076581Y077597
X076581Y080137
X076581Y082677
X076581Y085217
X076581Y087757
X076581Y090297
X036576Y054864
X036576Y057404
X036576Y059944
X036576Y062484
X036576Y065024
X036576Y067564
X036576Y070104
X036576Y072644
X036576Y075184
X036576Y077724
X036576Y080264
X036576Y082804
X036576Y085344
X036576Y087884
X036576Y090424
T05
X036576Y046990
X036576Y049530
X020701Y075565
X023241Y075565
X025781Y075565
X028321Y075565
T06
X020027Y088561G85X020027Y086461
X025777Y091010G85X023577Y091010
X023577Y085010G85X025777Y085010
X084074Y049784
X084074Y059944
X107569Y049657
X107569Y059817
T07
X078232Y044196
X088232Y044196
X101981Y044069
X111981Y044069
X019812Y061087
X029812Y061087
T08
X027051Y067691
X024511Y067691
X021971Y067691
T09
X096043Y079363
X084043Y079363
X084043Y067163
X096043Y067163
X090043Y065163
X119919Y079363
X107919Y079363
X107919Y067163
X119919Y067163
X113919Y065163
T10
X084916Y090170
X089916Y090170
X094916Y090170
X109046Y090170
X114046Y090170
X119046Y090170
M30
