G04 Layer: BottomSolderMaskLayer*
G04 EasyEDA v6.5.48, 2025-01-19 19:24:15*
G04 93f84cf920734f188c47773e0b6923d2,3cbab8949a5742979101216bdbeae448,10*
G04 Gerber Generator version 0.2*
G04 Scale: 100 percent, Rotated: No, Reflected: No *
G04 Dimensions in millimeters *
G04 leading zeros omitted , absolute positions ,4 integer and 5 decimal *
%FSLAX45Y45*%
%MOMM*%

%AMMACRO1*4,1,8,-0.8085,-0.8382,-0.8382,-0.8084,-0.8382,0.8085,-0.8085,0.8382,0.8084,0.8382,0.8382,0.8085,0.8382,-0.8084,0.8084,-0.8382,-0.8085,-0.8382,0*%
%AMMACRO2*4,1,8,-0.781,-0.8108,-0.8108,-0.781,-0.8108,0.781,-0.781,0.8108,0.781,0.8108,0.8108,0.781,0.8108,-0.781,0.781,-0.8108,-0.781,-0.8108,0*%
%AMMACRO3*4,1,8,-1.0421,-1.1016,-1.1016,-1.0421,-1.1016,1.0421,-1.0421,1.1016,1.0421,1.1016,1.1016,1.0421,1.1016,-1.0421,1.0421,-1.1016,-1.0421,-1.1016,0*%
%AMMACRO4*4,1,8,-0.4243,-0.4828,-0.454,-0.453,-0.454,0.4531,-0.4243,0.4828,0.4243,0.4828,0.454,0.4531,0.454,-0.453,0.4243,-0.4828,-0.4243,-0.4828,0*%
%ADD10O,1.6015970000000002X3.8015926*%
%ADD11O,3.9015924X1.6015970000000002*%
%ADD12C,1.4031*%
%ADD13C,2.6016*%
%ADD14O,1.6015970000000002X1.3015976000000002*%
%ADD15C,1.7032*%
%ADD16C,1.9240*%
%ADD17C,1.7016*%
%ADD18MACRO1*%
%ADD19C,1.6764*%
%ADD20MACRO2*%
%ADD21C,1.6216*%
%ADD22C,2.6416*%
%ADD23C,2.2032*%
%ADD24MACRO3*%
%ADD25MACRO4*%

%LPD*%
D10*
G01*
X2002663Y8751062D03*
D11*
G01*
X2467736Y9101074D03*
G01*
X2467736Y8501126D03*
D12*
G01*
X9169400Y4445000D03*
G01*
X9448800Y4445000D03*
G01*
X11557000Y4406900D03*
G01*
X11836400Y4406900D03*
G01*
X2349500Y5346700D03*
G01*
X2628900Y5346700D03*
D13*
G01*
X8407400Y4978400D03*
G01*
X8407400Y5994400D03*
G01*
X8491600Y9017000D03*
G01*
X8991600Y9017000D03*
G01*
X9491599Y9017000D03*
G01*
X10904600Y9017000D03*
G01*
X11404600Y9017000D03*
G01*
X11904599Y9017000D03*
D14*
G01*
X9512300Y5384800D03*
G01*
X8750300Y5384800D03*
G01*
X9512300Y5638800D03*
G01*
X8750300Y5638800D03*
G01*
X11874500Y5397500D03*
G01*
X11112500Y5397500D03*
G01*
X11874500Y5651500D03*
G01*
X11112500Y5651500D03*
D15*
G01*
X9842500Y5995670D03*
G01*
X10096500Y5994400D03*
G01*
X9588500Y5994400D03*
G01*
X12204700Y5982970D03*
G01*
X12458700Y5981700D03*
G01*
X11950700Y5981700D03*
D16*
G01*
X7823200Y4419600D03*
G01*
X8823197Y4419600D03*
G01*
X10198100Y4406900D03*
G01*
X11198097Y4406900D03*
G01*
X1981200Y6108700D03*
G01*
X2981197Y6108700D03*
D17*
G01*
X9842500Y4445000D03*
G01*
X9842500Y5461000D03*
G01*
X12204700Y4419600D03*
G01*
X12204700Y5435600D03*
D18*
G01*
X3657600Y4699000D03*
D19*
G01*
X3657600Y4953000D03*
D17*
G01*
X2705100Y6769100D03*
G01*
X2451100Y6769100D03*
G01*
X2197100Y6769100D03*
D20*
G01*
X7658100Y5473700D03*
D21*
G01*
X7658100Y5727700D03*
G01*
X7658100Y5981700D03*
G01*
X7658100Y6235700D03*
G01*
X7658100Y6489700D03*
G01*
X7658100Y6743700D03*
G01*
X7658100Y6997700D03*
G01*
X7658100Y7251700D03*
G01*
X7658100Y7505700D03*
G01*
X7658100Y7759700D03*
G01*
X7658100Y8013700D03*
G01*
X7658100Y8267700D03*
G01*
X7658100Y8521700D03*
G01*
X7658100Y8775700D03*
G01*
X7658100Y9029700D03*
D20*
G01*
X3657600Y5486400D03*
D21*
G01*
X3657600Y5740400D03*
G01*
X3657600Y5994400D03*
G01*
X3657600Y6248400D03*
G01*
X3657600Y6502400D03*
G01*
X3657600Y6756400D03*
G01*
X3657600Y7010400D03*
G01*
X3657600Y7264400D03*
G01*
X3657600Y7518400D03*
G01*
X3657600Y7772400D03*
G01*
X3657600Y8026400D03*
G01*
X3657600Y8280400D03*
G01*
X3657600Y8534400D03*
G01*
X3657600Y8788400D03*
G01*
X3657600Y9042400D03*
D22*
G01*
X9604298Y7936306D03*
G01*
X8404301Y7936306D03*
G01*
X8404301Y6716293D03*
G01*
X9604298Y6716293D03*
G01*
X9004300Y6516293D03*
G01*
X11991898Y7936306D03*
G01*
X10791901Y7936306D03*
G01*
X10791901Y6716293D03*
G01*
X11991898Y6716293D03*
G01*
X11391900Y6516293D03*
D23*
G01*
X6937197Y9039301D03*
G01*
X6937197Y8785301D03*
G01*
X6937197Y8531301D03*
G01*
X6937197Y8277301D03*
G01*
X6937197Y8023301D03*
G01*
X6937197Y7769301D03*
G01*
X6937197Y7515301D03*
G01*
X6937197Y7261301D03*
G01*
X6937197Y7007301D03*
G01*
X6937197Y6753301D03*
G01*
X6937197Y6499301D03*
G01*
X6937197Y6245301D03*
G01*
X6937197Y5991301D03*
G01*
X6937197Y5737301D03*
D24*
G01*
X6937199Y5493461D03*
D23*
G01*
X4397197Y8785301D03*
G01*
X4397197Y8531301D03*
G01*
X4397197Y8277301D03*
G01*
X4397197Y8023301D03*
G01*
X4397197Y7769301D03*
G01*
X4397197Y7515301D03*
G01*
X4397197Y7261301D03*
G01*
X4397197Y7007301D03*
G01*
X4397197Y6753301D03*
G01*
X4397197Y6499301D03*
G01*
X4397197Y6245301D03*
G01*
X4397197Y5991301D03*
G01*
X4397197Y5737301D03*
D24*
G01*
X4397199Y5483301D03*
D23*
G01*
X4397197Y9039301D03*
D18*
G01*
X2070100Y7556500D03*
D19*
G01*
X2324100Y7556500D03*
G01*
X2578100Y7556500D03*
G01*
X2832100Y7556500D03*
D13*
G01*
X10756900Y4965700D03*
G01*
X10756900Y5981700D03*
D25*
G01*
X2285124Y8128000D03*
G01*
X2134475Y8128000D03*
G01*
X2934575Y8128000D03*
G01*
X3085224Y8128000D03*
M02*
