G04 Layer: TopSilkscreenLayer*
G04 EasyEDA v6.5.48, 2025-01-19 19:24:15*
G04 93f84cf920734f188c47773e0b6923d2,3cbab8949a5742979101216bdbeae448,10*
G04 Gerber Generator version 0.2*
G04 Scale: 100 percent, Rotated: No, Reflected: No *
G04 Dimensions in millimeters *
G04 leading zeros omitted , absolute positions ,4 integer and 5 decimal *
%FSLAX45Y45*%
%MOMM*%

%ADD10C,0.1524*%
%ADD11C,0.2032*%
%ADD12C,0.2540*%
%ADD13C,0.1000*%
%ADD14C,0.2286*%
%ADD15C,0.7620*%
%ADD16C,0.5000*%
%ADD17C,0.4000*%
%ADD18C,0.2030*%
%ADD19C,0.1500*%
%ADD20C,0.0144*%

%LPD*%
G36*
X5460593Y8851646D02*
G01*
X5452821Y8850325D01*
X5445506Y8847124D01*
X5438343Y8842044D01*
X5429199Y8835186D01*
X5547563Y8717330D01*
X5663895Y8600236D01*
X5593029Y8527592D01*
X5520893Y8455710D01*
X5552643Y8424214D01*
X5554726Y8425789D01*
X5567476Y8437626D01*
X5589371Y8458962D01*
X5617718Y8487359D01*
X5633415Y8503462D01*
X5676392Y8546592D01*
X5697575Y8568537D01*
X5704535Y8576360D01*
X5709564Y8582558D01*
X5712866Y8587587D01*
X5714746Y8591753D01*
X5715508Y8595461D01*
X5715457Y8599119D01*
X5714288Y8606078D01*
X5713526Y8607907D01*
X5712104Y8610244D01*
X5706567Y8617204D01*
X5696458Y8628329D01*
X5680303Y8645042D01*
X5633618Y8691981D01*
X5594045Y8731300D01*
X5554878Y8770670D01*
X5503570Y8821724D01*
X5488584Y8836152D01*
X5478780Y8844991D01*
X5472684Y8849512D01*
X5470550Y8850630D01*
X5468823Y8851188D01*
G37*
G36*
X5412435Y8816898D02*
G01*
X5380431Y8785148D01*
X5473395Y8692438D01*
X5568137Y8598966D01*
X5495493Y8527338D01*
X5423865Y8455710D01*
X5463743Y8414816D01*
X5504891Y8374938D01*
X5520893Y8389670D01*
X5536387Y8405164D01*
X5511241Y8430564D01*
X5485841Y8455710D01*
X5558485Y8527592D01*
X5630113Y8600236D01*
X5520893Y8708440D01*
G37*
G36*
X5362651Y8767622D02*
G01*
X5330901Y8736380D01*
X5399735Y8667038D01*
X5470093Y8597696D01*
X5425897Y8554516D01*
X5409133Y8537498D01*
X5397398Y8525256D01*
X5389778Y8516772D01*
X5385409Y8511032D01*
X5384190Y8508898D01*
X5383072Y8505494D01*
X5382463Y8498636D01*
X5380939Y8493810D01*
X5378450Y8489543D01*
X5375148Y8485886D01*
X5371084Y8482888D01*
X5366359Y8480653D01*
X5361076Y8479282D01*
X5355285Y8478824D01*
X5350916Y8479129D01*
X5347258Y8480196D01*
X5343652Y8482482D01*
X5339537Y8486190D01*
X5336590Y8489848D01*
X5334558Y8493201D01*
X5333339Y8497011D01*
X5332933Y8501938D01*
X5333390Y8507628D01*
X5334711Y8512759D01*
X5336844Y8517229D01*
X5339740Y8521039D01*
X5343347Y8524036D01*
X5347614Y8526272D01*
X5352592Y8527643D01*
X5360365Y8528354D01*
X5362803Y8529218D01*
X5365800Y8530996D01*
X5369610Y8533993D01*
X5374589Y8538362D01*
X5389321Y8552586D01*
X5435041Y8597696D01*
X5374081Y8658148D01*
X5313883Y8718600D01*
X5299151Y8704122D01*
X5285181Y8689898D01*
X5316829Y8658148D01*
X5327345Y8648039D01*
X5331104Y8644890D01*
X5334152Y8642756D01*
X5336692Y8641435D01*
X5339029Y8640775D01*
X5346446Y8640114D01*
X5351119Y8638641D01*
X5355234Y8636355D01*
X5358739Y8633358D01*
X5361584Y8629853D01*
X5363768Y8625840D01*
X5365140Y8621471D01*
X5365699Y8616950D01*
X5365343Y8612327D01*
X5364022Y8607755D01*
X5361736Y8603335D01*
X5358333Y8599220D01*
X5354218Y8595817D01*
X5349798Y8593480D01*
X5345226Y8592108D01*
X5340553Y8591702D01*
X5335981Y8592210D01*
X5331612Y8593582D01*
X5327599Y8595715D01*
X5323992Y8598560D01*
X5320995Y8602167D01*
X5318709Y8606332D01*
X5317236Y8611158D01*
X5316524Y8618778D01*
X5315864Y8621064D01*
X5314594Y8623554D01*
X5312460Y8626551D01*
X5304891Y8634933D01*
X5291785Y8648242D01*
X5267401Y8672372D01*
X5252415Y8657640D01*
X5236921Y8641892D01*
X5268061Y8610549D01*
X5278424Y8600592D01*
X5282082Y8597544D01*
X5285028Y8595563D01*
X5287619Y8594293D01*
X5290159Y8593582D01*
X5299557Y8591651D01*
X5305348Y8588908D01*
X5310073Y8585098D01*
X5313629Y8580475D01*
X5315864Y8575141D01*
X5316728Y8569350D01*
X5316016Y8563356D01*
X5313629Y8557310D01*
X5310124Y8551519D01*
X5305450Y8547658D01*
X5299354Y8545525D01*
X5291531Y8544864D01*
X5285790Y8545017D01*
X5281625Y8545880D01*
X5277967Y8547862D01*
X5273751Y8551468D01*
X5270754Y8555482D01*
X5268772Y8558885D01*
X5267756Y8562492D01*
X5267350Y8570366D01*
X5266893Y8573058D01*
X5265877Y8575649D01*
X5264048Y8578494D01*
X5261102Y8582050D01*
X5250942Y8592667D01*
X5218887Y8624620D01*
X5210251Y8612479D01*
X5207609Y8605621D01*
X5206492Y8598103D01*
X5206949Y8590330D01*
X5207508Y8588654D01*
X5208574Y8586571D01*
X5212994Y8580526D01*
X5221579Y8570722D01*
X5235702Y8555786D01*
X5256631Y8534298D01*
X5324551Y8465870D01*
X5383479Y8407501D01*
X5423052Y8369300D01*
X5436565Y8356498D01*
X5447741Y8346490D01*
X5454142Y8344712D01*
X5460949Y8344103D01*
X5467502Y8344662D01*
X5475630Y8347303D01*
X5478068Y8348827D01*
X5487873Y8357412D01*
X5438343Y8406688D01*
X5388051Y8455964D01*
X5533339Y8598966D01*
X5447741Y8683294D01*
G37*
G36*
X5198110Y5457190D02*
G01*
X5198110Y5349240D01*
X5209540Y5349240D01*
X5209540Y5457190D01*
G37*
G36*
X5248910Y5457190D02*
G01*
X5248910Y5349240D01*
X5260340Y5349240D01*
X5260340Y5457190D01*
G37*
G36*
X6074156Y5074920D02*
G01*
X6074156Y4967224D01*
X6088380Y4967224D01*
X6088380Y5012436D01*
X6223000Y5012436D01*
X6223000Y5029454D01*
X6088380Y5029454D01*
X6088380Y5074920D01*
G37*
G36*
X6148070Y4954016D02*
G01*
X6141110Y4953812D01*
X6134404Y4953254D01*
X6128004Y4952288D01*
X6121857Y4951018D01*
X6116066Y4949342D01*
X6110630Y4947361D01*
X6105448Y4945075D01*
X6100622Y4942433D01*
X6096152Y4939538D01*
X6092037Y4936337D01*
X6088278Y4932832D01*
X6084824Y4929124D01*
X6081826Y4925110D01*
X6079134Y4920894D01*
X6076899Y4916424D01*
X6075019Y4911699D01*
X6073546Y4906822D01*
X6072479Y4901742D01*
X6071819Y4896459D01*
X6071616Y4891024D01*
X6086348Y4891024D01*
X6086602Y4896053D01*
X6087414Y4900879D01*
X6088786Y4905451D01*
X6090615Y4909718D01*
X6093002Y4913782D01*
X6095847Y4917541D01*
X6099149Y4920996D01*
X6102908Y4924145D01*
X6107125Y4926990D01*
X6111798Y4929530D01*
X6116878Y4931664D01*
X6122365Y4933442D01*
X6128207Y4934864D01*
X6134455Y4935880D01*
X6141110Y4936540D01*
X6148070Y4936744D01*
X6155029Y4936540D01*
X6161684Y4935880D01*
X6167983Y4934864D01*
X6173927Y4933442D01*
X6179515Y4931664D01*
X6184646Y4929530D01*
X6189421Y4926990D01*
X6193739Y4924196D01*
X6197600Y4920996D01*
X6201003Y4917541D01*
X6203950Y4913782D01*
X6206388Y4909718D01*
X6208268Y4905451D01*
X6209690Y4900879D01*
X6210503Y4896053D01*
X6210808Y4891024D01*
X6210503Y4885994D01*
X6209690Y4881168D01*
X6208268Y4876596D01*
X6206388Y4872329D01*
X6203950Y4868265D01*
X6201003Y4864506D01*
X6197600Y4861052D01*
X6193739Y4857902D01*
X6189421Y4855057D01*
X6184646Y4852517D01*
X6179515Y4850384D01*
X6173927Y4848606D01*
X6167983Y4847183D01*
X6161684Y4846167D01*
X6155029Y4845507D01*
X6148070Y4845304D01*
X6141110Y4845507D01*
X6134455Y4846167D01*
X6128207Y4847183D01*
X6122365Y4848606D01*
X6116878Y4850384D01*
X6111798Y4852517D01*
X6107125Y4855057D01*
X6102908Y4857902D01*
X6099149Y4861052D01*
X6095847Y4864506D01*
X6093002Y4868265D01*
X6090615Y4872329D01*
X6088786Y4876596D01*
X6087414Y4881168D01*
X6086602Y4885994D01*
X6086348Y4891024D01*
X6071616Y4891024D01*
X6071819Y4885588D01*
X6072479Y4880305D01*
X6073546Y4875225D01*
X6075019Y4870348D01*
X6076899Y4865624D01*
X6079134Y4861153D01*
X6081826Y4856937D01*
X6084824Y4852924D01*
X6088278Y4849215D01*
X6092037Y4845710D01*
X6096152Y4842510D01*
X6100622Y4839614D01*
X6105448Y4836972D01*
X6110630Y4834686D01*
X6116066Y4832705D01*
X6121857Y4831029D01*
X6128004Y4829759D01*
X6134404Y4828794D01*
X6141110Y4828235D01*
X6148070Y4828032D01*
X6155080Y4828235D01*
X6161786Y4828794D01*
X6168237Y4829759D01*
X6174384Y4831029D01*
X6180226Y4832705D01*
X6185763Y4834686D01*
X6190945Y4836972D01*
X6195872Y4839614D01*
X6200394Y4842510D01*
X6204610Y4845710D01*
X6208471Y4849215D01*
X6211925Y4852924D01*
X6215075Y4856937D01*
X6217767Y4861153D01*
X6220104Y4865624D01*
X6222034Y4870348D01*
X6223558Y4875225D01*
X6224676Y4880305D01*
X6225336Y4885588D01*
X6225540Y4891024D01*
X6225336Y4896459D01*
X6224676Y4901742D01*
X6223558Y4906822D01*
X6222034Y4911699D01*
X6220104Y4916424D01*
X6217767Y4920894D01*
X6215075Y4925110D01*
X6211925Y4929124D01*
X6208471Y4932832D01*
X6204610Y4936337D01*
X6200394Y4939538D01*
X6195872Y4942433D01*
X6190945Y4945075D01*
X6185763Y4947361D01*
X6180226Y4949342D01*
X6174384Y4951018D01*
X6168237Y4952288D01*
X6161786Y4953254D01*
X6155080Y4953812D01*
G37*
G36*
X6148070Y4804156D02*
G01*
X6141110Y4803952D01*
X6134404Y4803394D01*
X6128004Y4802479D01*
X6121857Y4801158D01*
X6116066Y4799533D01*
X6110630Y4797552D01*
X6105448Y4795266D01*
X6100622Y4792675D01*
X6096152Y4789779D01*
X6092037Y4786579D01*
X6088278Y4783074D01*
X6084824Y4779365D01*
X6081826Y4775352D01*
X6079134Y4771136D01*
X6076899Y4766665D01*
X6075019Y4761941D01*
X6073546Y4757064D01*
X6072479Y4751933D01*
X6071819Y4746650D01*
X6071616Y4741164D01*
X6086348Y4741164D01*
X6086602Y4746244D01*
X6087414Y4751070D01*
X6088786Y4755642D01*
X6090615Y4760010D01*
X6093002Y4764024D01*
X6095847Y4767783D01*
X6099149Y4771237D01*
X6102908Y4774387D01*
X6107125Y4777232D01*
X6111798Y4779721D01*
X6116878Y4781854D01*
X6122365Y4783632D01*
X6128207Y4785055D01*
X6134455Y4786071D01*
X6141110Y4786680D01*
X6148070Y4786884D01*
X6155029Y4786680D01*
X6161684Y4786071D01*
X6167983Y4785055D01*
X6173927Y4783632D01*
X6179515Y4781854D01*
X6184646Y4779721D01*
X6189421Y4777232D01*
X6193739Y4774387D01*
X6197600Y4771237D01*
X6201003Y4767783D01*
X6203950Y4764024D01*
X6206388Y4760010D01*
X6208268Y4755642D01*
X6209690Y4751070D01*
X6210503Y4746244D01*
X6210808Y4741164D01*
X6210503Y4736134D01*
X6209690Y4731359D01*
X6208268Y4726787D01*
X6206388Y4722469D01*
X6203950Y4718456D01*
X6201003Y4714748D01*
X6197600Y4711293D01*
X6193739Y4708144D01*
X6189421Y4705350D01*
X6184646Y4702860D01*
X6179515Y4700727D01*
X6173927Y4698949D01*
X6167983Y4697526D01*
X6161684Y4696510D01*
X6155029Y4695901D01*
X6148070Y4695698D01*
X6141110Y4695901D01*
X6134455Y4696510D01*
X6128207Y4697526D01*
X6122365Y4698949D01*
X6116878Y4700727D01*
X6111798Y4702860D01*
X6107125Y4705350D01*
X6102908Y4708144D01*
X6099149Y4711293D01*
X6095847Y4714748D01*
X6093002Y4718456D01*
X6090615Y4722469D01*
X6088786Y4726787D01*
X6087414Y4731359D01*
X6086602Y4736134D01*
X6086348Y4741164D01*
X6071616Y4741164D01*
X6071819Y4735728D01*
X6072479Y4730445D01*
X6073546Y4725365D01*
X6075019Y4720488D01*
X6076899Y4715814D01*
X6079134Y4711395D01*
X6081826Y4707128D01*
X6084824Y4703165D01*
X6088278Y4699457D01*
X6092037Y4696002D01*
X6096152Y4692802D01*
X6100622Y4689906D01*
X6105448Y4687316D01*
X6110630Y4685030D01*
X6116066Y4683048D01*
X6121857Y4681423D01*
X6128004Y4680102D01*
X6134404Y4679188D01*
X6141110Y4678629D01*
X6148070Y4678426D01*
X6155080Y4678629D01*
X6161786Y4679188D01*
X6168237Y4680102D01*
X6174384Y4681423D01*
X6180226Y4683048D01*
X6185763Y4685030D01*
X6190945Y4687316D01*
X6195872Y4689906D01*
X6200394Y4692802D01*
X6204610Y4696002D01*
X6208471Y4699457D01*
X6211925Y4703165D01*
X6215075Y4707128D01*
X6217767Y4711395D01*
X6220104Y4715814D01*
X6222034Y4720488D01*
X6223558Y4725365D01*
X6224676Y4730445D01*
X6225336Y4735728D01*
X6225540Y4741164D01*
X6225336Y4746650D01*
X6224676Y4751933D01*
X6223558Y4757064D01*
X6222034Y4761941D01*
X6220104Y4766665D01*
X6217767Y4771136D01*
X6215075Y4775352D01*
X6211925Y4779365D01*
X6208471Y4783074D01*
X6204610Y4786579D01*
X6200394Y4789779D01*
X6195872Y4792675D01*
X6190945Y4795266D01*
X6185763Y4797552D01*
X6180226Y4799533D01*
X6174384Y4801158D01*
X6168237Y4802479D01*
X6161786Y4803394D01*
X6155080Y4803952D01*
G37*
G36*
X6179566Y4657344D02*
G01*
X6172352Y4656785D01*
X6165900Y4655058D01*
X6160262Y4652365D01*
X6155385Y4648708D01*
X6151270Y4644186D01*
X6147968Y4638903D01*
X6145479Y4632960D01*
X6143752Y4626356D01*
X6142990Y4626356D01*
X6140805Y4631385D01*
X6137960Y4635804D01*
X6134557Y4639614D01*
X6130594Y4642713D01*
X6126124Y4645202D01*
X6121298Y4646980D01*
X6116167Y4648098D01*
X6110732Y4648454D01*
X6104585Y4648047D01*
X6099048Y4646777D01*
X6094069Y4644745D01*
X6089751Y4642002D01*
X6085941Y4638548D01*
X6082741Y4634382D01*
X6080048Y4629607D01*
X6077864Y4624273D01*
X6076238Y4618329D01*
X6075070Y4611928D01*
X6074359Y4605020D01*
X6074156Y4597654D01*
X6074156Y4571492D01*
X6087618Y4571492D01*
X6087618Y4595368D01*
X6087973Y4603851D01*
X6088989Y4611268D01*
X6090767Y4617567D01*
X6093358Y4622698D01*
X6096762Y4626711D01*
X6101130Y4629607D01*
X6106414Y4631385D01*
X6112764Y4631944D01*
X6118301Y4631436D01*
X6123279Y4629810D01*
X6127597Y4627067D01*
X6131255Y4623155D01*
X6134201Y4617974D01*
X6136386Y4611471D01*
X6137706Y4603648D01*
X6138164Y4594352D01*
X6138164Y4571492D01*
X6151118Y4571492D01*
X6151118Y4598416D01*
X6151321Y4604918D01*
X6151829Y4610912D01*
X6152743Y4616399D01*
X6154064Y4621377D01*
X6155740Y4625848D01*
X6157823Y4629708D01*
X6160262Y4633061D01*
X6163157Y4635804D01*
X6166459Y4637989D01*
X6170117Y4639564D01*
X6174282Y4640529D01*
X6178804Y4640834D01*
X6183884Y4640529D01*
X6188506Y4639513D01*
X6192621Y4637938D01*
X6196279Y4635703D01*
X6199428Y4632909D01*
X6202172Y4629556D01*
X6204458Y4625594D01*
X6206286Y4621174D01*
X6207760Y4616196D01*
X6208725Y4610709D01*
X6209334Y4604816D01*
X6209538Y4598416D01*
X6209538Y4571492D01*
X6074156Y4571492D01*
X6074156Y4554728D01*
X6223000Y4554728D01*
X6223000Y4600956D01*
X6222847Y4607052D01*
X6222339Y4612944D01*
X6221476Y4618532D01*
X6220307Y4623816D01*
X6218783Y4628794D01*
X6216904Y4633417D01*
X6214668Y4637684D01*
X6212128Y4641646D01*
X6209233Y4645152D01*
X6206032Y4648250D01*
X6202476Y4650943D01*
X6198565Y4653229D01*
X6194348Y4655007D01*
X6189726Y4656277D01*
X6184849Y4657090D01*
G37*
G36*
X5058156Y4930140D02*
G01*
X5058156Y4914138D01*
X5144414Y4914188D01*
X5167884Y4915255D01*
X5185156Y4916424D01*
X5185156Y4915408D01*
X5154676Y4899152D01*
X5058156Y4843018D01*
X5058156Y4825746D01*
X5207000Y4825746D01*
X5207000Y4841494D01*
X5119674Y4841443D01*
X5102555Y4840782D01*
X5080254Y4839462D01*
X5080254Y4840478D01*
X5110734Y4856734D01*
X5207000Y4912614D01*
X5207000Y4930140D01*
G37*
G36*
X5192776Y4793996D02*
G01*
X5192776Y4723892D01*
X5135626Y4723892D01*
X5135626Y4781042D01*
X5121402Y4781042D01*
X5121402Y4723892D01*
X5072380Y4723892D01*
X5072380Y4791710D01*
X5058156Y4791710D01*
X5058156Y4707128D01*
X5207000Y4707128D01*
X5207000Y4793996D01*
G37*
D10*
X3125215Y9156700D02*
G01*
X3047238Y9156700D01*
X3031743Y9151620D01*
X3021329Y9141205D01*
X3016250Y9125458D01*
X3016250Y9115044D01*
X3021329Y9099550D01*
X3031743Y9089136D01*
X3047238Y9084055D01*
X3125215Y9084055D01*
X3104388Y9049765D02*
G01*
X3109722Y9039352D01*
X3125215Y9023604D01*
X3016250Y9023604D01*
X9309100Y4814315D02*
G01*
X9309100Y4705350D01*
X9309100Y4814315D02*
G01*
X9345422Y4814315D01*
X9361170Y4809236D01*
X9371329Y4798821D01*
X9376663Y4788407D01*
X9381743Y4772660D01*
X9381743Y4746752D01*
X9376663Y4731257D01*
X9371329Y4720844D01*
X9361170Y4710429D01*
X9345422Y4705350D01*
X9309100Y4705350D01*
X9416034Y4793487D02*
G01*
X9426447Y4798821D01*
X9442195Y4814315D01*
X9442195Y4705350D01*
X9476486Y4814315D02*
G01*
X9476486Y4736337D01*
X9481565Y4720844D01*
X9491979Y4710429D01*
X9507474Y4705350D01*
X9517888Y4705350D01*
X9533636Y4710429D01*
X9544050Y4720844D01*
X9549129Y4736337D01*
X9549129Y4814315D01*
X9635490Y4814315D02*
G01*
X9583420Y4741671D01*
X9661397Y4741671D01*
X9635490Y4814315D02*
G01*
X9635490Y4705350D01*
X11696700Y4776215D02*
G01*
X11696700Y4667250D01*
X11696700Y4776215D02*
G01*
X11733022Y4776215D01*
X11748770Y4771136D01*
X11758929Y4760721D01*
X11764263Y4750307D01*
X11769343Y4734560D01*
X11769343Y4708652D01*
X11764263Y4693157D01*
X11758929Y4682744D01*
X11748770Y4672329D01*
X11733022Y4667250D01*
X11696700Y4667250D01*
X11803634Y4755387D02*
G01*
X11814047Y4760721D01*
X11829795Y4776215D01*
X11829795Y4667250D01*
X11864086Y4776215D02*
G01*
X11864086Y4698237D01*
X11869165Y4682744D01*
X11879579Y4672329D01*
X11895074Y4667250D01*
X11905488Y4667250D01*
X11921236Y4672329D01*
X11931650Y4682744D01*
X11936729Y4698237D01*
X11936729Y4776215D01*
X12033250Y4776215D02*
G01*
X11981434Y4776215D01*
X11976100Y4729479D01*
X11981434Y4734560D01*
X11996927Y4739894D01*
X12012675Y4739894D01*
X12028170Y4734560D01*
X12038584Y4724400D01*
X12043663Y4708652D01*
X12043663Y4698237D01*
X12038584Y4682744D01*
X12028170Y4672329D01*
X12012675Y4667250D01*
X11996927Y4667250D01*
X11981434Y4672329D01*
X11976100Y4677410D01*
X11971020Y4687823D01*
X2755900Y5398515D02*
G01*
X2755900Y5320537D01*
X2760979Y5305044D01*
X2771393Y5294629D01*
X2787141Y5289550D01*
X2797556Y5289550D01*
X2813050Y5294629D01*
X2823463Y5305044D01*
X2828543Y5320537D01*
X2828543Y5398515D01*
X2868168Y5372607D02*
G01*
X2868168Y5377687D01*
X2873247Y5388102D01*
X2878581Y5393436D01*
X2888995Y5398515D01*
X2909570Y5398515D01*
X2919984Y5393436D01*
X2925318Y5388102D01*
X2930397Y5377687D01*
X2930397Y5367273D01*
X2925318Y5356860D01*
X2914904Y5341365D01*
X2862834Y5289550D01*
X2935731Y5289550D01*
X2970022Y5398515D02*
G01*
X2970022Y5289550D01*
X2970022Y5398515D02*
G01*
X3006343Y5398515D01*
X3021838Y5393436D01*
X3032252Y5383021D01*
X3037586Y5372607D01*
X3042665Y5356860D01*
X3042665Y5330952D01*
X3037586Y5315457D01*
X3032252Y5305044D01*
X3021838Y5294629D01*
X3006343Y5289550D01*
X2970022Y5289550D01*
X3076956Y5377687D02*
G01*
X3087370Y5383021D01*
X3102863Y5398515D01*
X3102863Y5289550D01*
X8114284Y5486400D02*
G01*
X8223250Y5486400D01*
X8114284Y5486400D02*
G01*
X8114284Y5522721D01*
X8119363Y5538470D01*
X8129777Y5548629D01*
X8140191Y5553963D01*
X8155940Y5559044D01*
X8181847Y5559044D01*
X8197341Y5553963D01*
X8207756Y5548629D01*
X8218170Y5538470D01*
X8223250Y5522721D01*
X8223250Y5486400D01*
X8140191Y5598668D02*
G01*
X8135111Y5598668D01*
X8124697Y5603747D01*
X8119363Y5609081D01*
X8114284Y5619495D01*
X8114284Y5640070D01*
X8119363Y5650484D01*
X8124697Y5655818D01*
X8135111Y5660897D01*
X8145525Y5660897D01*
X8155940Y5655818D01*
X8171434Y5645404D01*
X8223250Y5593334D01*
X8223250Y5666231D01*
X8114284Y5700521D02*
G01*
X8192261Y5700521D01*
X8207756Y5705602D01*
X8218170Y5716015D01*
X8223250Y5731510D01*
X8223250Y5741923D01*
X8218170Y5757671D01*
X8207756Y5768086D01*
X8192261Y5773165D01*
X8114284Y5773165D01*
X8114284Y5859526D02*
G01*
X8186927Y5807455D01*
X8186927Y5885434D01*
X8114284Y5859526D02*
G01*
X8223250Y5859526D01*
X8974198Y9792715D02*
G01*
X8974198Y9683750D01*
X9046842Y9792715D02*
G01*
X9046842Y9683750D01*
X8974198Y9740900D02*
G01*
X9046842Y9740900D01*
X9081132Y9771887D02*
G01*
X9091546Y9777221D01*
X9107294Y9792715D01*
X9107294Y9683750D01*
X9141584Y9792715D02*
G01*
X9141584Y9714737D01*
X9146664Y9699244D01*
X9157078Y9688829D01*
X9172572Y9683750D01*
X9182986Y9683750D01*
X9198734Y9688829D01*
X9209148Y9699244D01*
X9214228Y9714737D01*
X9214228Y9792715D01*
X9300588Y9792715D02*
G01*
X9248518Y9720071D01*
X9326496Y9720071D01*
X9300588Y9792715D02*
G01*
X9300588Y9683750D01*
X11387198Y9792715D02*
G01*
X11387198Y9683750D01*
X11459842Y9792715D02*
G01*
X11459842Y9683750D01*
X11387198Y9740900D02*
G01*
X11459842Y9740900D01*
X11494132Y9771887D02*
G01*
X11504546Y9777221D01*
X11520294Y9792715D01*
X11520294Y9683750D01*
X11554584Y9792715D02*
G01*
X11554584Y9714737D01*
X11559664Y9699244D01*
X11570078Y9688829D01*
X11585572Y9683750D01*
X11595986Y9683750D01*
X11611734Y9688829D01*
X11622148Y9699244D01*
X11627228Y9714737D01*
X11627228Y9792715D01*
X11723748Y9792715D02*
G01*
X11671932Y9792715D01*
X11666598Y9745979D01*
X11671932Y9751060D01*
X11687426Y9756394D01*
X11703174Y9756394D01*
X11718668Y9751060D01*
X11729082Y9740900D01*
X11734162Y9725152D01*
X11734162Y9714737D01*
X11729082Y9699244D01*
X11718668Y9688829D01*
X11703174Y9683750D01*
X11687426Y9683750D01*
X11671932Y9688829D01*
X11666598Y9693910D01*
X11661518Y9704324D01*
X9156700Y5040884D02*
G01*
X9156700Y5149850D01*
X9156700Y5040884D02*
G01*
X9109963Y5040884D01*
X9094470Y5045963D01*
X9089136Y5051297D01*
X9084056Y5061712D01*
X9084056Y5077205D01*
X9089136Y5087620D01*
X9094470Y5092700D01*
X9109963Y5098034D01*
X9156700Y5098034D01*
X9049765Y5040884D02*
G01*
X9049765Y5149850D01*
X8976868Y5040884D02*
G01*
X8976868Y5149850D01*
X9049765Y5092700D02*
G01*
X8976868Y5092700D01*
X8942577Y5061712D02*
G01*
X8932163Y5056378D01*
X8916670Y5040884D01*
X8916670Y5149850D01*
X8882379Y5040884D02*
G01*
X8882379Y5118862D01*
X8877300Y5134355D01*
X8866886Y5144770D01*
X8851138Y5149850D01*
X8840724Y5149850D01*
X8825229Y5144770D01*
X8814815Y5134355D01*
X8809736Y5118862D01*
X8809736Y5040884D01*
X8723375Y5040884D02*
G01*
X8775445Y5113528D01*
X8697468Y5113528D01*
X8723375Y5040884D02*
G01*
X8723375Y5149850D01*
X11518900Y5053584D02*
G01*
X11518900Y5162550D01*
X11518900Y5053584D02*
G01*
X11472163Y5053584D01*
X11456670Y5058663D01*
X11451336Y5063997D01*
X11446256Y5074412D01*
X11446256Y5089905D01*
X11451336Y5100320D01*
X11456670Y5105400D01*
X11472163Y5110734D01*
X11518900Y5110734D01*
X11411965Y5053584D02*
G01*
X11411965Y5162550D01*
X11339068Y5053584D02*
G01*
X11339068Y5162550D01*
X11411965Y5105400D02*
G01*
X11339068Y5105400D01*
X11304777Y5074412D02*
G01*
X11294363Y5069078D01*
X11278870Y5053584D01*
X11278870Y5162550D01*
X11244579Y5053584D02*
G01*
X11244579Y5131562D01*
X11239500Y5147055D01*
X11229086Y5157470D01*
X11213338Y5162550D01*
X11202924Y5162550D01*
X11187429Y5157470D01*
X11177015Y5147055D01*
X11171936Y5131562D01*
X11171936Y5053584D01*
X11075161Y5053584D02*
G01*
X11127231Y5053584D01*
X11132311Y5100320D01*
X11127231Y5095239D01*
X11111484Y5089905D01*
X11095990Y5089905D01*
X11080495Y5095239D01*
X11070081Y5105400D01*
X11064747Y5121147D01*
X11064747Y5131562D01*
X11070081Y5147055D01*
X11080495Y5157470D01*
X11095990Y5162550D01*
X11111484Y5162550D01*
X11127231Y5157470D01*
X11132311Y5152389D01*
X11137645Y5141976D01*
X10306558Y6260084D02*
G01*
X10316972Y6265163D01*
X10327386Y6275578D01*
X10332720Y6285992D01*
X10337800Y6301739D01*
X10337800Y6327647D01*
X10332720Y6343142D01*
X10327386Y6353555D01*
X10316972Y6363970D01*
X10306558Y6369050D01*
X10285729Y6369050D01*
X10275570Y6363970D01*
X10265156Y6353555D01*
X10259822Y6343142D01*
X10254741Y6327647D01*
X10254741Y6301739D01*
X10259822Y6285992D01*
X10265156Y6275578D01*
X10275570Y6265163D01*
X10285729Y6260084D01*
X10306558Y6260084D01*
X10291063Y6348476D02*
G01*
X10259822Y6379463D01*
X10220452Y6280912D02*
G01*
X10210038Y6275578D01*
X10194290Y6260084D01*
X10194290Y6369050D01*
X10160000Y6260084D02*
G01*
X10160000Y6338062D01*
X10154920Y6353555D01*
X10144506Y6363970D01*
X10129011Y6369050D01*
X10118597Y6369050D01*
X10102850Y6363970D01*
X10092690Y6353555D01*
X10087356Y6338062D01*
X10087356Y6260084D01*
X10001250Y6260084D02*
G01*
X10053065Y6332728D01*
X9975088Y6332728D01*
X10001250Y6260084D02*
G01*
X10001250Y6369050D01*
X12630658Y6298184D02*
G01*
X12641072Y6303263D01*
X12651486Y6313678D01*
X12656820Y6324092D01*
X12661900Y6339839D01*
X12661900Y6365747D01*
X12656820Y6381242D01*
X12651486Y6391655D01*
X12641072Y6402070D01*
X12630658Y6407150D01*
X12609829Y6407150D01*
X12599670Y6402070D01*
X12589256Y6391655D01*
X12583922Y6381242D01*
X12578841Y6365747D01*
X12578841Y6339839D01*
X12583922Y6324092D01*
X12589256Y6313678D01*
X12599670Y6303263D01*
X12609829Y6298184D01*
X12630658Y6298184D01*
X12615163Y6386576D02*
G01*
X12583922Y6417563D01*
X12544552Y6319012D02*
G01*
X12534138Y6313678D01*
X12518390Y6298184D01*
X12518390Y6407150D01*
X12484100Y6298184D02*
G01*
X12484100Y6376162D01*
X12479020Y6391655D01*
X12468606Y6402070D01*
X12453111Y6407150D01*
X12442697Y6407150D01*
X12426950Y6402070D01*
X12416790Y6391655D01*
X12411456Y6376162D01*
X12411456Y6298184D01*
X12314936Y6298184D02*
G01*
X12366752Y6298184D01*
X12372086Y6344920D01*
X12366752Y6339839D01*
X12351258Y6334505D01*
X12335509Y6334505D01*
X12320015Y6339839D01*
X12309602Y6350000D01*
X12304522Y6365747D01*
X12304522Y6376162D01*
X12309602Y6391655D01*
X12320015Y6402070D01*
X12335509Y6407150D01*
X12351258Y6407150D01*
X12366752Y6402070D01*
X12372086Y6396989D01*
X12377165Y6386576D01*
X8305800Y4687315D02*
G01*
X8305800Y4578350D01*
X8305800Y4687315D02*
G01*
X8352536Y4687315D01*
X8368029Y4682236D01*
X8373363Y4676902D01*
X8378443Y4666487D01*
X8378443Y4656073D01*
X8373363Y4645660D01*
X8368029Y4640579D01*
X8352536Y4635500D01*
X8305800Y4635500D01*
X8342122Y4635500D02*
G01*
X8378443Y4578350D01*
X8412734Y4666487D02*
G01*
X8423147Y4671821D01*
X8438895Y4687315D01*
X8438895Y4578350D01*
X8473186Y4687315D02*
G01*
X8473186Y4609337D01*
X8478265Y4593844D01*
X8488679Y4583429D01*
X8504174Y4578350D01*
X8514588Y4578350D01*
X8530336Y4583429D01*
X8540750Y4593844D01*
X8545829Y4609337D01*
X8545829Y4687315D01*
X8632190Y4687315D02*
G01*
X8580120Y4614671D01*
X8658097Y4614671D01*
X8632190Y4687315D02*
G01*
X8632190Y4578350D01*
D11*
X8267700Y4451604D02*
G01*
X8276843Y4456176D01*
X8290306Y4469637D01*
X8290306Y4374134D01*
X8320531Y4469637D02*
G01*
X8320531Y4374134D01*
X8384031Y4469637D02*
G01*
X8320531Y4406137D01*
X8343138Y4428744D02*
G01*
X8384031Y4374134D01*
D10*
X10680700Y4674615D02*
G01*
X10680700Y4565650D01*
X10680700Y4674615D02*
G01*
X10727436Y4674615D01*
X10742929Y4669536D01*
X10748263Y4664202D01*
X10753343Y4653787D01*
X10753343Y4643373D01*
X10748263Y4632960D01*
X10742929Y4627879D01*
X10727436Y4622800D01*
X10680700Y4622800D01*
X10717022Y4622800D02*
G01*
X10753343Y4565650D01*
X10787634Y4653787D02*
G01*
X10798047Y4659121D01*
X10813795Y4674615D01*
X10813795Y4565650D01*
X10848086Y4674615D02*
G01*
X10848086Y4596637D01*
X10853165Y4581144D01*
X10863579Y4570729D01*
X10879074Y4565650D01*
X10889488Y4565650D01*
X10905236Y4570729D01*
X10915650Y4581144D01*
X10920729Y4596637D01*
X10920729Y4674615D01*
X11017250Y4674615D02*
G01*
X10965434Y4674615D01*
X10960100Y4627879D01*
X10965434Y4632960D01*
X10980927Y4638294D01*
X10996675Y4638294D01*
X11012170Y4632960D01*
X11022584Y4622800D01*
X11027663Y4607052D01*
X11027663Y4596637D01*
X11022584Y4581144D01*
X11012170Y4570729D01*
X10996675Y4565650D01*
X10980927Y4565650D01*
X10965434Y4570729D01*
X10960100Y4575810D01*
X10955020Y4586223D01*
D11*
X10642600Y4438904D02*
G01*
X10651743Y4443476D01*
X10665206Y4456937D01*
X10665206Y4361434D01*
X10695431Y4456937D02*
G01*
X10695431Y4361434D01*
X10758931Y4456937D02*
G01*
X10695431Y4393437D01*
X10718038Y4416044D02*
G01*
X10758931Y4361434D01*
D10*
X2286000Y6401815D02*
G01*
X2286000Y6323837D01*
X2291079Y6308344D01*
X2301493Y6297929D01*
X2317241Y6292850D01*
X2327656Y6292850D01*
X2343150Y6297929D01*
X2353563Y6308344D01*
X2358643Y6323837D01*
X2358643Y6401815D01*
X2398268Y6375907D02*
G01*
X2398268Y6380987D01*
X2403347Y6391402D01*
X2408681Y6396736D01*
X2419095Y6401815D01*
X2439670Y6401815D01*
X2450084Y6396736D01*
X2455418Y6391402D01*
X2460497Y6380987D01*
X2460497Y6370573D01*
X2455418Y6360160D01*
X2445004Y6344665D01*
X2392934Y6292850D01*
X2465831Y6292850D01*
X2500122Y6401815D02*
G01*
X2500122Y6292850D01*
X2500122Y6401815D02*
G01*
X2546858Y6401815D01*
X2562352Y6396736D01*
X2567686Y6391402D01*
X2572765Y6380987D01*
X2572765Y6370573D01*
X2567686Y6360160D01*
X2562352Y6355079D01*
X2546858Y6350000D01*
X2500122Y6350000D01*
X2536443Y6350000D02*
G01*
X2572765Y6292850D01*
X2607056Y6380987D02*
G01*
X2617470Y6386321D01*
X2632963Y6401815D01*
X2632963Y6292850D01*
D11*
X2311400Y6178804D02*
G01*
X2320543Y6183376D01*
X2334006Y6196837D01*
X2334006Y6101334D01*
X2364231Y6196837D02*
G01*
X2364231Y6101334D01*
X2427731Y6196837D02*
G01*
X2364231Y6133337D01*
X2386838Y6155944D02*
G01*
X2427731Y6101334D01*
D10*
X9574784Y4927600D02*
G01*
X9683750Y4927600D01*
X9574784Y4927600D02*
G01*
X9574784Y4974336D01*
X9579863Y4989829D01*
X9585197Y4995163D01*
X9595611Y5000244D01*
X9606025Y5000244D01*
X9616440Y4995163D01*
X9621520Y4989829D01*
X9626600Y4974336D01*
X9626600Y4927600D01*
X9626600Y4963921D02*
G01*
X9683750Y5000244D01*
X9600691Y5039868D02*
G01*
X9595611Y5039868D01*
X9585197Y5044947D01*
X9579863Y5050281D01*
X9574784Y5060695D01*
X9574784Y5081270D01*
X9579863Y5091684D01*
X9585197Y5097018D01*
X9595611Y5102097D01*
X9606025Y5102097D01*
X9616440Y5097018D01*
X9631934Y5086604D01*
X9683750Y5034534D01*
X9683750Y5107431D01*
X9574784Y5141721D02*
G01*
X9652761Y5141721D01*
X9668256Y5146802D01*
X9678670Y5157215D01*
X9683750Y5172710D01*
X9683750Y5183123D01*
X9678670Y5198871D01*
X9668256Y5209286D01*
X9652761Y5214365D01*
X9574784Y5214365D01*
X9574784Y5300726D02*
G01*
X9647427Y5248655D01*
X9647427Y5326634D01*
X9574784Y5300726D02*
G01*
X9683750Y5300726D01*
D11*
X9787590Y4763388D02*
G01*
X9787590Y4820285D01*
X9828992Y4789296D01*
X9828992Y4804790D01*
X9834072Y4815204D01*
X9839406Y4820285D01*
X9854900Y4825619D01*
X9865314Y4825619D01*
X9880808Y4820285D01*
X9891222Y4810125D01*
X9896302Y4794377D01*
X9896302Y4778882D01*
X9891222Y4763388D01*
X9885888Y4758309D01*
X9875474Y4752975D01*
X9787590Y4870069D02*
G01*
X9787590Y4927219D01*
X9828992Y4895977D01*
X9828992Y4911470D01*
X9834072Y4921885D01*
X9839406Y4927219D01*
X9854900Y4932298D01*
X9865314Y4932298D01*
X9880808Y4927219D01*
X9891222Y4916804D01*
X9896302Y4901311D01*
X9896302Y4885562D01*
X9891222Y4870069D01*
X9885888Y4864988D01*
X9875474Y4859654D01*
X9787590Y4997577D02*
G01*
X9792670Y4982082D01*
X9808164Y4971669D01*
X9834072Y4966588D01*
X9849566Y4966588D01*
X9875474Y4971669D01*
X9891222Y4982082D01*
X9896302Y4997577D01*
X9896302Y5007990D01*
X9891222Y5023485D01*
X9875474Y5033898D01*
X9849566Y5038979D01*
X9834072Y5038979D01*
X9808164Y5033898D01*
X9792670Y5023485D01*
X9787590Y5007990D01*
X9787590Y4997577D01*
X9787590Y5073269D02*
G01*
X9896302Y5073269D01*
X9787590Y5073269D02*
G01*
X9787590Y5119751D01*
X9792670Y5135498D01*
X9797750Y5140579D01*
X9808164Y5145659D01*
X9818578Y5145659D01*
X9828992Y5140579D01*
X9834072Y5135498D01*
X9839406Y5119751D01*
X9839406Y5073269D01*
X9839406Y5109590D02*
G01*
X9896302Y5145659D01*
D10*
X11936984Y4902200D02*
G01*
X12045950Y4902200D01*
X11936984Y4902200D02*
G01*
X11936984Y4948936D01*
X11942063Y4964429D01*
X11947397Y4969763D01*
X11957811Y4974844D01*
X11968225Y4974844D01*
X11978640Y4969763D01*
X11983720Y4964429D01*
X11988800Y4948936D01*
X11988800Y4902200D01*
X11988800Y4938521D02*
G01*
X12045950Y4974844D01*
X11962891Y5014468D02*
G01*
X11957811Y5014468D01*
X11947397Y5019547D01*
X11942063Y5024881D01*
X11936984Y5035295D01*
X11936984Y5055870D01*
X11942063Y5066284D01*
X11947397Y5071618D01*
X11957811Y5076697D01*
X11968225Y5076697D01*
X11978640Y5071618D01*
X11994134Y5061204D01*
X12045950Y5009134D01*
X12045950Y5082031D01*
X11936984Y5116321D02*
G01*
X12014961Y5116321D01*
X12030456Y5121402D01*
X12040870Y5131815D01*
X12045950Y5147310D01*
X12045950Y5157723D01*
X12040870Y5173471D01*
X12030456Y5183886D01*
X12014961Y5188965D01*
X11936984Y5188965D01*
X11936984Y5285739D02*
G01*
X11936984Y5233670D01*
X11983720Y5228589D01*
X11978640Y5233670D01*
X11973306Y5249163D01*
X11973306Y5264912D01*
X11978640Y5280405D01*
X11988800Y5290820D01*
X12004547Y5295900D01*
X12014961Y5295900D01*
X12030456Y5290820D01*
X12040870Y5280405D01*
X12045950Y5264912D01*
X12045950Y5249163D01*
X12040870Y5233670D01*
X12035790Y5228589D01*
X12025375Y5223255D01*
D11*
X12149790Y4737988D02*
G01*
X12149790Y4794885D01*
X12191192Y4763896D01*
X12191192Y4779390D01*
X12196272Y4789804D01*
X12201606Y4794885D01*
X12217100Y4800219D01*
X12227514Y4800219D01*
X12243008Y4794885D01*
X12253422Y4784725D01*
X12258502Y4768977D01*
X12258502Y4753482D01*
X12253422Y4737988D01*
X12248088Y4732909D01*
X12237674Y4727575D01*
X12149790Y4844669D02*
G01*
X12149790Y4901819D01*
X12191192Y4870577D01*
X12191192Y4886070D01*
X12196272Y4896485D01*
X12201606Y4901819D01*
X12217100Y4906898D01*
X12227514Y4906898D01*
X12243008Y4901819D01*
X12253422Y4891404D01*
X12258502Y4875911D01*
X12258502Y4860162D01*
X12253422Y4844669D01*
X12248088Y4839588D01*
X12237674Y4834254D01*
X12149790Y4972177D02*
G01*
X12154870Y4956682D01*
X12170364Y4946269D01*
X12196272Y4941188D01*
X12211766Y4941188D01*
X12237674Y4946269D01*
X12253422Y4956682D01*
X12258502Y4972177D01*
X12258502Y4982590D01*
X12253422Y4998085D01*
X12237674Y5008498D01*
X12211766Y5013579D01*
X12196272Y5013579D01*
X12170364Y5008498D01*
X12154870Y4998085D01*
X12149790Y4982590D01*
X12149790Y4972177D01*
X12149790Y5047869D02*
G01*
X12258502Y5047869D01*
X12149790Y5047869D02*
G01*
X12149790Y5094351D01*
X12154870Y5110098D01*
X12159950Y5115179D01*
X12170364Y5120259D01*
X12180778Y5120259D01*
X12191192Y5115179D01*
X12196272Y5110098D01*
X12201606Y5094351D01*
X12201606Y5047869D01*
X12201606Y5084190D02*
G01*
X12258502Y5120259D01*
D10*
X3377184Y4686300D02*
G01*
X3455161Y4686300D01*
X3470656Y4691379D01*
X3481070Y4701794D01*
X3486150Y4717542D01*
X3486150Y4727955D01*
X3481070Y4743450D01*
X3470656Y4753863D01*
X3455161Y4758944D01*
X3377184Y4758944D01*
X3398011Y4793234D02*
G01*
X3392677Y4803647D01*
X3377184Y4819395D01*
X3486150Y4819395D01*
X3377184Y4853686D02*
G01*
X3486150Y4853686D01*
X3377184Y4926329D02*
G01*
X3486150Y4926329D01*
X3429000Y4853686D02*
G01*
X3429000Y4926329D01*
X3403091Y4965700D02*
G01*
X3398011Y4965700D01*
X3387597Y4971034D01*
X3382263Y4976113D01*
X3377184Y4986528D01*
X3377184Y5007355D01*
X3382263Y5017770D01*
X3387597Y5022850D01*
X3398011Y5028184D01*
X3408425Y5028184D01*
X3418840Y5022850D01*
X3434334Y5012689D01*
X3486150Y4960620D01*
X3486150Y5033263D01*
X2730500Y7074915D02*
G01*
X2730500Y6996937D01*
X2735579Y6981444D01*
X2745993Y6971029D01*
X2761741Y6965950D01*
X2772156Y6965950D01*
X2787650Y6971029D01*
X2798063Y6981444D01*
X2803143Y6996937D01*
X2803143Y7074915D01*
X2842768Y7049008D02*
G01*
X2842768Y7054087D01*
X2847847Y7064502D01*
X2853181Y7069836D01*
X2863595Y7074915D01*
X2884170Y7074915D01*
X2894584Y7069836D01*
X2899918Y7064502D01*
X2904997Y7054087D01*
X2904997Y7043673D01*
X2899918Y7033260D01*
X2889504Y7017765D01*
X2837434Y6965950D01*
X2910331Y6965950D01*
X7390384Y7251700D02*
G01*
X7468361Y7251700D01*
X7483856Y7256779D01*
X7494270Y7267194D01*
X7499350Y7282942D01*
X7499350Y7293355D01*
X7494270Y7308850D01*
X7483856Y7319263D01*
X7468361Y7324344D01*
X7390384Y7324344D01*
X7390384Y7369047D02*
G01*
X7390384Y7426197D01*
X7432040Y7395210D01*
X7432040Y7410704D01*
X7437120Y7421118D01*
X7442200Y7426197D01*
X7457947Y7431531D01*
X7468361Y7431531D01*
X7483856Y7426197D01*
X7494270Y7415784D01*
X7499350Y7400289D01*
X7499350Y7384795D01*
X7494270Y7369047D01*
X7489190Y7363968D01*
X7478775Y7358634D01*
X7390384Y7465821D02*
G01*
X7499350Y7465821D01*
X7390384Y7538465D02*
G01*
X7499350Y7538465D01*
X7442200Y7465821D02*
G01*
X7442200Y7538465D01*
X7390384Y7572755D02*
G01*
X7499350Y7572755D01*
X7390384Y7572755D02*
G01*
X7390384Y7640320D01*
X7442200Y7572755D02*
G01*
X7442200Y7614412D01*
X7411211Y7674610D02*
G01*
X7405877Y7685023D01*
X7390384Y7700518D01*
X7499350Y7700518D01*
X3389884Y7264400D02*
G01*
X3467861Y7264400D01*
X3483356Y7269479D01*
X3493770Y7279894D01*
X3498850Y7295642D01*
X3498850Y7306055D01*
X3493770Y7321550D01*
X3483356Y7331963D01*
X3467861Y7337044D01*
X3389884Y7337044D01*
X3389884Y7381747D02*
G01*
X3389884Y7438897D01*
X3431540Y7407910D01*
X3431540Y7423404D01*
X3436620Y7433818D01*
X3441700Y7438897D01*
X3457447Y7444231D01*
X3467861Y7444231D01*
X3483356Y7438897D01*
X3493770Y7428484D01*
X3498850Y7412989D01*
X3498850Y7397495D01*
X3493770Y7381747D01*
X3488690Y7376668D01*
X3478275Y7371334D01*
X3389884Y7478521D02*
G01*
X3498850Y7478521D01*
X3389884Y7551165D02*
G01*
X3498850Y7551165D01*
X3441700Y7478521D02*
G01*
X3441700Y7551165D01*
X3389884Y7585455D02*
G01*
X3498850Y7585455D01*
X3389884Y7585455D02*
G01*
X3389884Y7653020D01*
X3441700Y7585455D02*
G01*
X3441700Y7627112D01*
X3415791Y7692389D02*
G01*
X3410711Y7692389D01*
X3400297Y7697723D01*
X3394963Y7702804D01*
X3389884Y7713218D01*
X3389884Y7734045D01*
X3394963Y7744460D01*
X3400297Y7749539D01*
X3410711Y7754873D01*
X3421125Y7754873D01*
X3431540Y7749539D01*
X3447034Y7739379D01*
X3498850Y7687310D01*
X3498850Y7759954D01*
X9995585Y7366863D02*
G01*
X9917607Y7366863D01*
X9902113Y7361783D01*
X9891699Y7351369D01*
X9886619Y7335621D01*
X9886619Y7325207D01*
X9891699Y7309713D01*
X9902113Y7299299D01*
X9917607Y7294219D01*
X9995585Y7294219D01*
X9995585Y7207859D02*
G01*
X9922941Y7259929D01*
X9922941Y7181951D01*
X9995585Y7207859D02*
G01*
X9886619Y7207859D01*
X12383185Y7366863D02*
G01*
X12305207Y7366863D01*
X12289713Y7361783D01*
X12279299Y7351369D01*
X12274219Y7335621D01*
X12274219Y7325207D01*
X12279299Y7309713D01*
X12289713Y7299299D01*
X12305207Y7294219D01*
X12383185Y7294219D01*
X12383185Y7197445D02*
G01*
X12383185Y7249515D01*
X12336449Y7254595D01*
X12341529Y7249515D01*
X12346863Y7233767D01*
X12346863Y7218273D01*
X12341529Y7202779D01*
X12331369Y7192365D01*
X12315621Y7187031D01*
X12305207Y7187031D01*
X12289713Y7192365D01*
X12279299Y7202779D01*
X12274219Y7218273D01*
X12274219Y7233767D01*
X12279299Y7249515D01*
X12284379Y7254595D01*
X12294793Y7259929D01*
X5435688Y9830955D02*
G01*
X5435688Y9752977D01*
X5440768Y9737229D01*
X5451182Y9726815D01*
X5466676Y9721735D01*
X5477090Y9721735D01*
X5492838Y9726815D01*
X5503252Y9737229D01*
X5508332Y9752977D01*
X5508332Y9830955D01*
X5553036Y9830955D02*
G01*
X5610186Y9830955D01*
X5578944Y9789299D01*
X5594692Y9789299D01*
X5604852Y9783965D01*
X5610186Y9778885D01*
X5615266Y9763391D01*
X5615266Y9752977D01*
X5610186Y9737229D01*
X5599772Y9726815D01*
X5584278Y9721735D01*
X5568530Y9721735D01*
X5553036Y9726815D01*
X5547702Y9732149D01*
X5542622Y9742563D01*
D11*
X4571997Y5515355D02*
G01*
X4599683Y5442457D01*
X4627369Y5515355D02*
G01*
X4599683Y5442457D01*
X4650229Y5515355D02*
G01*
X4650229Y5442457D01*
X4673089Y5515355D02*
G01*
X4673089Y5442457D01*
X4673089Y5515355D02*
G01*
X4721603Y5442457D01*
X4721603Y5515355D02*
G01*
X4721603Y5442457D01*
X5562600Y4918710D02*
G01*
X5562600Y4850384D01*
X5567172Y4836921D01*
X5576315Y4827778D01*
X5589777Y4823205D01*
X5598922Y4823205D01*
X5612638Y4827778D01*
X5621781Y4836921D01*
X5626354Y4850384D01*
X5626354Y4918710D01*
X5719825Y4905247D02*
G01*
X5710681Y4914137D01*
X5697220Y4918710D01*
X5678931Y4918710D01*
X5665215Y4914137D01*
X5656325Y4905247D01*
X5656325Y4895850D01*
X5660897Y4886705D01*
X5665215Y4882387D01*
X5674359Y4877562D01*
X5701791Y4868671D01*
X5710681Y4864100D01*
X5715254Y4859528D01*
X5719825Y4850384D01*
X5719825Y4836921D01*
X5710681Y4827778D01*
X5697220Y4823205D01*
X5678931Y4823205D01*
X5665215Y4827778D01*
X5656325Y4836921D01*
X5749797Y4918710D02*
G01*
X5749797Y4823205D01*
X5749797Y4918710D02*
G01*
X5790691Y4918710D01*
X5804408Y4914137D01*
X5808979Y4909312D01*
X5813552Y4900421D01*
X5813552Y4891278D01*
X5808979Y4882387D01*
X5804408Y4877562D01*
X5790691Y4873497D01*
X5749797Y4873497D02*
G01*
X5790691Y4873497D01*
X5804408Y4868671D01*
X5808979Y4864100D01*
X5813552Y4854955D01*
X5813552Y4841747D01*
X5808979Y4832350D01*
X5804408Y4827778D01*
X5790691Y4823205D01*
X5749797Y4823205D01*
X5410200Y4683505D02*
G01*
X5410200Y4620005D01*
X5410200Y4665218D02*
G01*
X5423915Y4679187D01*
X5432806Y4683505D01*
X5446522Y4683505D01*
X5455665Y4679187D01*
X5460238Y4665218D01*
X5460238Y4620005D01*
X5460238Y4665218D02*
G01*
X5473954Y4679187D01*
X5482843Y4683505D01*
X5496559Y4683505D01*
X5505704Y4679187D01*
X5510275Y4665218D01*
X5510275Y4620005D01*
X5540247Y4715510D02*
G01*
X5544820Y4710937D01*
X5549391Y4715510D01*
X5544820Y4719828D01*
X5540247Y4715510D01*
X5544820Y4683505D02*
G01*
X5544820Y4620005D01*
X5633720Y4670044D02*
G01*
X5624829Y4679187D01*
X5615686Y4683505D01*
X5601970Y4683505D01*
X5592825Y4679187D01*
X5583936Y4670044D01*
X5579363Y4656328D01*
X5579363Y4646929D01*
X5583936Y4633468D01*
X5592825Y4624578D01*
X5601970Y4620005D01*
X5615686Y4620005D01*
X5624829Y4624578D01*
X5633720Y4633468D01*
X5663945Y4683505D02*
G01*
X5663945Y4620005D01*
X5663945Y4656328D02*
G01*
X5668263Y4670044D01*
X5677408Y4679187D01*
X5686552Y4683505D01*
X5700268Y4683505D01*
X5752845Y4683505D02*
G01*
X5743956Y4679187D01*
X5734811Y4670044D01*
X5730240Y4656328D01*
X5730240Y4646929D01*
X5734811Y4633468D01*
X5743956Y4624578D01*
X5752845Y4620005D01*
X5766561Y4620005D01*
X5775706Y4624578D01*
X5784850Y4633468D01*
X5789168Y4646929D01*
X5789168Y4656328D01*
X5784850Y4670044D01*
X5775706Y4679187D01*
X5766561Y4683505D01*
X5752845Y4683505D01*
X5889243Y4715510D02*
G01*
X5889243Y4620005D01*
X5889243Y4715510D02*
G01*
X5930138Y4715510D01*
X5943854Y4710937D01*
X5948425Y4706365D01*
X5952997Y4696968D01*
X5952997Y4688078D01*
X5948425Y4679187D01*
X5943854Y4674615D01*
X5930138Y4670044D01*
X5889243Y4670044D02*
G01*
X5930138Y4670044D01*
X5943854Y4665218D01*
X5948425Y4660900D01*
X5952997Y4651755D01*
X5952997Y4638294D01*
X5948425Y4629150D01*
X5943854Y4624578D01*
X5930138Y4620005D01*
X5889243Y4620005D01*
X5156200Y8215121D02*
G01*
X5156200Y8129270D01*
X5156200Y8215121D02*
G01*
X5209286Y8215121D01*
X5156200Y8174228D02*
G01*
X5188965Y8174228D01*
X5156200Y8129270D02*
G01*
X5209286Y8129270D01*
X5293613Y8202929D02*
G01*
X5285486Y8211058D01*
X5273293Y8215121D01*
X5256784Y8215121D01*
X5244591Y8211058D01*
X5236463Y8202929D01*
X5236463Y8194802D01*
X5240527Y8186673D01*
X5244591Y8182355D01*
X5252720Y8178292D01*
X5277358Y8170163D01*
X5285486Y8166100D01*
X5289550Y8162036D01*
X5293613Y8153908D01*
X5293613Y8141462D01*
X5285486Y8133334D01*
X5273293Y8129270D01*
X5256784Y8129270D01*
X5244591Y8133334D01*
X5236463Y8141462D01*
X5320538Y8215121D02*
G01*
X5320538Y8129270D01*
X5320538Y8215121D02*
G01*
X5357368Y8215121D01*
X5369813Y8211058D01*
X5373877Y8206994D01*
X5377941Y8198865D01*
X5377941Y8186673D01*
X5373877Y8178292D01*
X5369813Y8174228D01*
X5357368Y8170163D01*
X5320538Y8170163D01*
X5404865Y8166100D02*
G01*
X5478525Y8166100D01*
X5505450Y8215121D02*
G01*
X5526024Y8129270D01*
X5546597Y8215121D02*
G01*
X5526024Y8129270D01*
X5546597Y8215121D02*
G01*
X5566918Y8129270D01*
X5587491Y8215121D02*
G01*
X5566918Y8129270D01*
X5614415Y8215121D02*
G01*
X5614415Y8129270D01*
X5614415Y8215121D02*
G01*
X5651245Y8215121D01*
X5663438Y8211058D01*
X5667502Y8206994D01*
X5671565Y8198865D01*
X5671565Y8190737D01*
X5667502Y8182355D01*
X5663438Y8178292D01*
X5651245Y8174228D01*
X5614415Y8174228D01*
X5643118Y8174228D02*
G01*
X5671565Y8129270D01*
X5723127Y8215121D02*
G01*
X5715000Y8211058D01*
X5706872Y8202929D01*
X5702808Y8194802D01*
X5698743Y8182355D01*
X5698743Y8162036D01*
X5702808Y8149844D01*
X5706872Y8141462D01*
X5715000Y8133334D01*
X5723127Y8129270D01*
X5739638Y8129270D01*
X5747765Y8133334D01*
X5755893Y8141462D01*
X5759958Y8149844D01*
X5764022Y8162036D01*
X5764022Y8182355D01*
X5759958Y8194802D01*
X5755893Y8202929D01*
X5747765Y8211058D01*
X5739638Y8215121D01*
X5723127Y8215121D01*
X5815584Y8215121D02*
G01*
X5807456Y8211058D01*
X5799327Y8202929D01*
X5795263Y8194802D01*
X5791200Y8182355D01*
X5791200Y8162036D01*
X5795263Y8149844D01*
X5799327Y8141462D01*
X5807456Y8133334D01*
X5815584Y8129270D01*
X5832093Y8129270D01*
X5840222Y8133334D01*
X5848350Y8141462D01*
X5852413Y8149844D01*
X5856477Y8162036D01*
X5856477Y8182355D01*
X5852413Y8194802D01*
X5848350Y8202929D01*
X5840222Y8211058D01*
X5832093Y8215121D01*
X5815584Y8215121D01*
X5883656Y8215121D02*
G01*
X5883656Y8129270D01*
X5883656Y8215121D02*
G01*
X5916168Y8129270D01*
X5948934Y8215121D02*
G01*
X5916168Y8129270D01*
X5948934Y8215121D02*
G01*
X5948934Y8129270D01*
X5976111Y8166100D02*
G01*
X6049772Y8166100D01*
X6084824Y8215121D02*
G01*
X6129781Y8215121D01*
X6105397Y8182355D01*
X6117590Y8182355D01*
X6125718Y8178292D01*
X6129781Y8174228D01*
X6133845Y8162036D01*
X6133845Y8153908D01*
X6129781Y8141462D01*
X6121654Y8133334D01*
X6109461Y8129270D01*
X6097015Y8129270D01*
X6084824Y8133334D01*
X6080759Y8137397D01*
X6076695Y8145526D01*
X6165088Y8194802D02*
G01*
X6165088Y8198865D01*
X6169152Y8206994D01*
X6173215Y8211058D01*
X6181343Y8215121D01*
X6197854Y8215121D01*
X6205981Y8211058D01*
X6210045Y8206994D01*
X6214109Y8198865D01*
X6214109Y8190737D01*
X6210045Y8182355D01*
X6201918Y8170163D01*
X6161024Y8129270D01*
X6218174Y8129270D01*
X4624067Y5751829D02*
G01*
X4620511Y5758942D01*
X4613653Y5765800D01*
X4606541Y5769355D01*
X4592825Y5769355D01*
X4585967Y5765800D01*
X4578855Y5758942D01*
X4575553Y5751829D01*
X4571997Y5741670D01*
X4571997Y5724144D01*
X4575553Y5713729D01*
X4578855Y5706871D01*
X4585967Y5700013D01*
X4592825Y5696457D01*
X4606541Y5696457D01*
X4613653Y5700013D01*
X4620511Y5706871D01*
X4624067Y5713729D01*
X4624067Y5724144D01*
X4606541Y5724144D02*
G01*
X4624067Y5724144D01*
X4646927Y5769355D02*
G01*
X4646927Y5696457D01*
X4646927Y5769355D02*
G01*
X4695187Y5696457D01*
X4695187Y5769355D02*
G01*
X4695187Y5696457D01*
X4718047Y5769355D02*
G01*
X4718047Y5696457D01*
X4718047Y5769355D02*
G01*
X4742431Y5769355D01*
X4752845Y5765800D01*
X4759703Y5758942D01*
X4763259Y5751829D01*
X4766561Y5741670D01*
X4766561Y5724144D01*
X4763259Y5713729D01*
X4759703Y5706871D01*
X4752845Y5700013D01*
X4742431Y5696457D01*
X4718047Y5696457D01*
X4572000Y6023355D02*
G01*
X4572000Y5950457D01*
X4572000Y6023355D02*
G01*
X4596129Y6023355D01*
X4606543Y6019800D01*
X4613656Y6012942D01*
X4616958Y6005829D01*
X4620513Y5995670D01*
X4620513Y5978144D01*
X4616958Y5967729D01*
X4613656Y5960871D01*
X4606543Y5954013D01*
X4596129Y5950457D01*
X4572000Y5950457D01*
X4643374Y6009386D02*
G01*
X4650231Y6012942D01*
X4660645Y6023355D01*
X4660645Y5950457D01*
X4690363Y6023355D02*
G01*
X4728463Y6023355D01*
X4707890Y5995670D01*
X4718050Y5995670D01*
X4725161Y5992113D01*
X4728463Y5988557D01*
X4732020Y5978144D01*
X4732020Y5971286D01*
X4728463Y5960871D01*
X4721606Y5954013D01*
X4711191Y5950457D01*
X4700777Y5950457D01*
X4690363Y5954013D01*
X4687061Y5957570D01*
X4683506Y5964428D01*
X4572000Y6277355D02*
G01*
X4572000Y6204457D01*
X4572000Y6277355D02*
G01*
X4596129Y6277355D01*
X4606543Y6273800D01*
X4613656Y6266942D01*
X4616958Y6259829D01*
X4620513Y6249670D01*
X4620513Y6232144D01*
X4616958Y6221729D01*
X4613656Y6214871D01*
X4606543Y6208013D01*
X4596129Y6204457D01*
X4572000Y6204457D01*
X4643374Y6263386D02*
G01*
X4650231Y6266942D01*
X4660645Y6277355D01*
X4660645Y6204457D01*
X4687061Y6259829D02*
G01*
X4687061Y6263386D01*
X4690363Y6270244D01*
X4693920Y6273800D01*
X4700777Y6277355D01*
X4714747Y6277355D01*
X4721606Y6273800D01*
X4725161Y6270244D01*
X4728463Y6263386D01*
X4728463Y6256528D01*
X4725161Y6249670D01*
X4718050Y6239255D01*
X4683506Y6204457D01*
X4732020Y6204457D01*
X4571997Y6531355D02*
G01*
X4571997Y6458457D01*
X4571997Y6531355D02*
G01*
X4596127Y6531355D01*
X4606541Y6527800D01*
X4613653Y6520942D01*
X4616955Y6513829D01*
X4620511Y6503670D01*
X4620511Y6486144D01*
X4616955Y6475729D01*
X4613653Y6468871D01*
X4606541Y6462013D01*
X4596127Y6458457D01*
X4571997Y6458457D01*
X4643371Y6517386D02*
G01*
X4650229Y6520942D01*
X4660643Y6531355D01*
X4660643Y6458457D01*
X4718047Y6531355D02*
G01*
X4683503Y6482842D01*
X4735573Y6482842D01*
X4718047Y6531355D02*
G01*
X4718047Y6458457D01*
X4572000Y6785355D02*
G01*
X4572000Y6712458D01*
X4572000Y6785355D02*
G01*
X4596129Y6785355D01*
X4606543Y6781800D01*
X4613656Y6774942D01*
X4616958Y6767829D01*
X4620513Y6757670D01*
X4620513Y6740144D01*
X4616958Y6729729D01*
X4613656Y6722871D01*
X4606543Y6716013D01*
X4596129Y6712458D01*
X4572000Y6712458D01*
X4646929Y6767829D02*
G01*
X4646929Y6771386D01*
X4650231Y6778244D01*
X4653788Y6781800D01*
X4660645Y6785355D01*
X4674615Y6785355D01*
X4681474Y6781800D01*
X4685029Y6778244D01*
X4688331Y6771386D01*
X4688331Y6764528D01*
X4685029Y6757670D01*
X4677918Y6747255D01*
X4643374Y6712458D01*
X4691888Y6712458D01*
X4763261Y6785355D02*
G01*
X4728463Y6712458D01*
X4714747Y6785355D02*
G01*
X4763261Y6785355D01*
X4572000Y7039358D02*
G01*
X4572000Y6966460D01*
X4572000Y7039358D02*
G01*
X4596129Y7039358D01*
X4606543Y7035802D01*
X4613656Y7028944D01*
X4616958Y7021832D01*
X4620513Y7011672D01*
X4620513Y6994146D01*
X4616958Y6983732D01*
X4613656Y6976874D01*
X4606543Y6970016D01*
X4596129Y6966460D01*
X4572000Y6966460D01*
X4646929Y7021832D02*
G01*
X4646929Y7025388D01*
X4650231Y7032246D01*
X4653788Y7035802D01*
X4660645Y7039358D01*
X4674615Y7039358D01*
X4681474Y7035802D01*
X4685029Y7032246D01*
X4688331Y7025388D01*
X4688331Y7018530D01*
X4685029Y7011672D01*
X4677918Y7001258D01*
X4643374Y6966460D01*
X4691888Y6966460D01*
X4756150Y7028944D02*
G01*
X4752847Y7035802D01*
X4742434Y7039358D01*
X4735575Y7039358D01*
X4725161Y7035802D01*
X4718050Y7025388D01*
X4714747Y7008116D01*
X4714747Y6990844D01*
X4718050Y6976874D01*
X4725161Y6970016D01*
X4735575Y6966460D01*
X4738877Y6966460D01*
X4749291Y6970016D01*
X4756150Y6976874D01*
X4759706Y6987288D01*
X4759706Y6990844D01*
X4756150Y7001258D01*
X4749291Y7008116D01*
X4738877Y7011672D01*
X4735575Y7011672D01*
X4725161Y7008116D01*
X4718050Y7001258D01*
X4714747Y6990844D01*
X4572000Y7293355D02*
G01*
X4572000Y7220458D01*
X4572000Y7293355D02*
G01*
X4596129Y7293355D01*
X4606543Y7289800D01*
X4613656Y7282942D01*
X4616958Y7275829D01*
X4620513Y7265670D01*
X4620513Y7248144D01*
X4616958Y7237729D01*
X4613656Y7230871D01*
X4606543Y7224013D01*
X4596129Y7220458D01*
X4572000Y7220458D01*
X4646929Y7275829D02*
G01*
X4646929Y7279386D01*
X4650231Y7286244D01*
X4653788Y7289800D01*
X4660645Y7293355D01*
X4674615Y7293355D01*
X4681474Y7289800D01*
X4685029Y7286244D01*
X4688331Y7279386D01*
X4688331Y7272528D01*
X4685029Y7265670D01*
X4677918Y7255255D01*
X4643374Y7220458D01*
X4691888Y7220458D01*
X4756150Y7293355D02*
G01*
X4721606Y7293355D01*
X4718050Y7262113D01*
X4721606Y7265670D01*
X4732020Y7268971D01*
X4742434Y7268971D01*
X4752847Y7265670D01*
X4759706Y7258558D01*
X4763261Y7248144D01*
X4763261Y7241286D01*
X4759706Y7230871D01*
X4752847Y7224013D01*
X4742434Y7220458D01*
X4732020Y7220458D01*
X4721606Y7224013D01*
X4718050Y7227570D01*
X4714747Y7234428D01*
X4572000Y7547355D02*
G01*
X4572000Y7474458D01*
X4572000Y7547355D02*
G01*
X4596129Y7547355D01*
X4606543Y7543800D01*
X4613656Y7536942D01*
X4616958Y7529829D01*
X4620513Y7519670D01*
X4620513Y7502144D01*
X4616958Y7491729D01*
X4613656Y7484871D01*
X4606543Y7478013D01*
X4596129Y7474458D01*
X4572000Y7474458D01*
X4650231Y7547355D02*
G01*
X4688331Y7547355D01*
X4667504Y7519670D01*
X4677918Y7519670D01*
X4685029Y7516113D01*
X4688331Y7512558D01*
X4691888Y7502144D01*
X4691888Y7495286D01*
X4688331Y7484871D01*
X4681474Y7478013D01*
X4671059Y7474458D01*
X4660645Y7474458D01*
X4650231Y7478013D01*
X4646929Y7481570D01*
X4643374Y7488428D01*
X4721606Y7547355D02*
G01*
X4759706Y7547355D01*
X4738877Y7519670D01*
X4749291Y7519670D01*
X4756150Y7516113D01*
X4759706Y7512558D01*
X4763261Y7502144D01*
X4763261Y7495286D01*
X4759706Y7484871D01*
X4752847Y7478013D01*
X4742434Y7474458D01*
X4732020Y7474458D01*
X4721606Y7478013D01*
X4718050Y7481570D01*
X4714747Y7488428D01*
X4572000Y7801355D02*
G01*
X4572000Y7728458D01*
X4572000Y7801355D02*
G01*
X4596129Y7801355D01*
X4606543Y7797800D01*
X4613656Y7790942D01*
X4616958Y7783829D01*
X4620513Y7773670D01*
X4620513Y7756144D01*
X4616958Y7745729D01*
X4613656Y7738871D01*
X4606543Y7732013D01*
X4596129Y7728458D01*
X4572000Y7728458D01*
X4650231Y7801355D02*
G01*
X4688331Y7801355D01*
X4667504Y7773670D01*
X4677918Y7773670D01*
X4685029Y7770113D01*
X4688331Y7766558D01*
X4691888Y7756144D01*
X4691888Y7749286D01*
X4688331Y7738871D01*
X4681474Y7732013D01*
X4671059Y7728458D01*
X4660645Y7728458D01*
X4650231Y7732013D01*
X4646929Y7735570D01*
X4643374Y7742428D01*
X4718050Y7783829D02*
G01*
X4718050Y7787386D01*
X4721606Y7794244D01*
X4725161Y7797800D01*
X4732020Y7801355D01*
X4745990Y7801355D01*
X4752847Y7797800D01*
X4756150Y7794244D01*
X4759706Y7787386D01*
X4759706Y7780528D01*
X4756150Y7773670D01*
X4749291Y7763255D01*
X4714747Y7728458D01*
X4763261Y7728458D01*
X4572000Y8055355D02*
G01*
X4572000Y7982458D01*
X4572000Y8055355D02*
G01*
X4596129Y8055355D01*
X4606543Y8051800D01*
X4613656Y8044942D01*
X4616958Y8037829D01*
X4620513Y8027670D01*
X4620513Y8010144D01*
X4616958Y7999729D01*
X4613656Y7992871D01*
X4606543Y7986013D01*
X4596129Y7982458D01*
X4572000Y7982458D01*
X4650231Y8055355D02*
G01*
X4688331Y8055355D01*
X4667504Y8027670D01*
X4677918Y8027670D01*
X4685029Y8024113D01*
X4688331Y8020558D01*
X4691888Y8010144D01*
X4691888Y8003286D01*
X4688331Y7992871D01*
X4681474Y7986013D01*
X4671059Y7982458D01*
X4660645Y7982458D01*
X4650231Y7986013D01*
X4646929Y7989570D01*
X4643374Y7996428D01*
X4756150Y8055355D02*
G01*
X4721606Y8055355D01*
X4718050Y8024113D01*
X4721606Y8027670D01*
X4732020Y8030971D01*
X4742434Y8030971D01*
X4752847Y8027670D01*
X4759706Y8020558D01*
X4763261Y8010144D01*
X4763261Y8003286D01*
X4759706Y7992871D01*
X4752847Y7986013D01*
X4742434Y7982458D01*
X4732020Y7982458D01*
X4721606Y7986013D01*
X4718050Y7989570D01*
X4714747Y7996428D01*
X4572000Y8309358D02*
G01*
X4572000Y8236460D01*
X4572000Y8309358D02*
G01*
X4596129Y8309358D01*
X4606543Y8305802D01*
X4613656Y8298944D01*
X4616958Y8291832D01*
X4620513Y8281672D01*
X4620513Y8264146D01*
X4616958Y8253732D01*
X4613656Y8246874D01*
X4606543Y8240016D01*
X4596129Y8236460D01*
X4572000Y8236460D01*
X4650231Y8309358D02*
G01*
X4688331Y8309358D01*
X4667504Y8281672D01*
X4677918Y8281672D01*
X4685029Y8278116D01*
X4688331Y8274560D01*
X4691888Y8264146D01*
X4691888Y8257288D01*
X4688331Y8246874D01*
X4681474Y8240016D01*
X4671059Y8236460D01*
X4660645Y8236460D01*
X4650231Y8240016D01*
X4646929Y8243572D01*
X4643374Y8250430D01*
X4749291Y8309358D02*
G01*
X4714747Y8260844D01*
X4766563Y8260844D01*
X4749291Y8309358D02*
G01*
X4749291Y8236460D01*
X4572000Y8563355D02*
G01*
X4599686Y8490458D01*
X4627372Y8563355D02*
G01*
X4599686Y8490458D01*
X4650231Y8563355D02*
G01*
X4650231Y8490458D01*
X4650231Y8563355D02*
G01*
X4698745Y8490458D01*
X4698745Y8563355D02*
G01*
X4698745Y8490458D01*
X4571997Y8817355D02*
G01*
X4571997Y8744458D01*
X4594857Y8817355D02*
G01*
X4622543Y8744458D01*
X4650229Y8817355D02*
G01*
X4622543Y8744458D01*
X4673089Y8817355D02*
G01*
X4673089Y8744458D01*
X4673089Y8817355D02*
G01*
X4704331Y8817355D01*
X4714745Y8813800D01*
X4718047Y8810244D01*
X4721603Y8803386D01*
X4721603Y8792971D01*
X4718047Y8786113D01*
X4714745Y8782558D01*
X4704331Y8779255D01*
X4673089Y8779255D01*
X6578600Y8309355D02*
G01*
X6578600Y8236458D01*
X6578600Y8309355D02*
G01*
X6609841Y8309355D01*
X6620256Y8305800D01*
X6623558Y8302244D01*
X6627113Y8295386D01*
X6627113Y8288528D01*
X6623558Y8281670D01*
X6620256Y8278113D01*
X6609841Y8274558D01*
X6578600Y8274558D01*
X6602729Y8274558D02*
G01*
X6627113Y8236458D01*
X6649974Y8309355D02*
G01*
X6698488Y8236458D01*
X6698488Y8309355D02*
G01*
X6649974Y8236458D01*
X6742175Y8309355D02*
G01*
X6731761Y8305800D01*
X6724650Y8295386D01*
X6721347Y8278113D01*
X6721347Y8267700D01*
X6724650Y8250428D01*
X6731761Y8240013D01*
X6742175Y8236458D01*
X6749034Y8236458D01*
X6759447Y8240013D01*
X6766306Y8250428D01*
X6769861Y8267700D01*
X6769861Y8278113D01*
X6766306Y8295386D01*
X6759447Y8305800D01*
X6749034Y8309355D01*
X6742175Y8309355D01*
X6585458Y5515358D02*
G01*
X6623558Y5515358D01*
X6602729Y5487672D01*
X6613143Y5487672D01*
X6620256Y5484116D01*
X6623558Y5480560D01*
X6627113Y5470146D01*
X6627113Y5463288D01*
X6623558Y5452874D01*
X6616700Y5446016D01*
X6606286Y5442460D01*
X6595872Y5442460D01*
X6585458Y5446016D01*
X6582156Y5449572D01*
X6578600Y5456430D01*
X6649974Y5490974D02*
G01*
X6670802Y5442460D01*
X6691629Y5490974D02*
G01*
X6670802Y5442460D01*
X6721347Y5515358D02*
G01*
X6759447Y5515358D01*
X6738620Y5487672D01*
X6749034Y5487672D01*
X6755891Y5484116D01*
X6759447Y5480560D01*
X6762750Y5470146D01*
X6762750Y5463288D01*
X6759447Y5452874D01*
X6752590Y5446016D01*
X6742175Y5442460D01*
X6731761Y5442460D01*
X6721347Y5446016D01*
X6717791Y5449572D01*
X6714490Y5456430D01*
X6630670Y5751832D02*
G01*
X6627113Y5758944D01*
X6620256Y5765802D01*
X6613143Y5769358D01*
X6599427Y5769358D01*
X6592570Y5765802D01*
X6585458Y5758944D01*
X6582156Y5751832D01*
X6578600Y5741672D01*
X6578600Y5724146D01*
X6582156Y5713732D01*
X6585458Y5706874D01*
X6592570Y5700016D01*
X6599427Y5696460D01*
X6613143Y5696460D01*
X6620256Y5700016D01*
X6627113Y5706874D01*
X6630670Y5713732D01*
X6630670Y5724146D01*
X6613143Y5724146D02*
G01*
X6630670Y5724146D01*
X6653529Y5769358D02*
G01*
X6653529Y5696460D01*
X6653529Y5769358D02*
G01*
X6701790Y5696460D01*
X6701790Y5769358D02*
G01*
X6701790Y5696460D01*
X6724650Y5769358D02*
G01*
X6724650Y5696460D01*
X6724650Y5769358D02*
G01*
X6749034Y5769358D01*
X6759447Y5765802D01*
X6766306Y5758944D01*
X6769861Y5751832D01*
X6773163Y5741672D01*
X6773163Y5724146D01*
X6769861Y5713732D01*
X6766306Y5706874D01*
X6759447Y5700016D01*
X6749034Y5696460D01*
X6724650Y5696460D01*
X6604000Y5997958D02*
G01*
X6604000Y5925060D01*
X6604000Y5997958D02*
G01*
X6628129Y5997958D01*
X6638543Y5994402D01*
X6645656Y5987544D01*
X6648958Y5980432D01*
X6652513Y5970272D01*
X6652513Y5952746D01*
X6648958Y5942332D01*
X6645656Y5935474D01*
X6638543Y5928616D01*
X6628129Y5925060D01*
X6604000Y5925060D01*
X6675374Y5983988D02*
G01*
X6682231Y5987544D01*
X6692645Y5997958D01*
X6692645Y5925060D01*
X6757161Y5997958D02*
G01*
X6722363Y5997958D01*
X6719061Y5966716D01*
X6722363Y5970272D01*
X6732777Y5973574D01*
X6743191Y5973574D01*
X6753606Y5970272D01*
X6760463Y5963160D01*
X6764020Y5952746D01*
X6764020Y5945888D01*
X6760463Y5935474D01*
X6753606Y5928616D01*
X6743191Y5925060D01*
X6732777Y5925060D01*
X6722363Y5928616D01*
X6719061Y5932172D01*
X6715506Y5939030D01*
X6654800Y6277355D02*
G01*
X6654800Y6204457D01*
X6654800Y6277355D02*
G01*
X6678929Y6277355D01*
X6689343Y6273800D01*
X6696456Y6266942D01*
X6699758Y6259829D01*
X6703313Y6249670D01*
X6703313Y6232144D01*
X6699758Y6221729D01*
X6696456Y6214871D01*
X6689343Y6208013D01*
X6678929Y6204457D01*
X6654800Y6204457D01*
X6729729Y6259829D02*
G01*
X6729729Y6263386D01*
X6733031Y6270244D01*
X6736588Y6273800D01*
X6743445Y6277355D01*
X6757415Y6277355D01*
X6764274Y6273800D01*
X6767829Y6270244D01*
X6771131Y6263386D01*
X6771131Y6256528D01*
X6767829Y6249670D01*
X6760718Y6239255D01*
X6726174Y6204457D01*
X6774688Y6204457D01*
X6654802Y6531355D02*
G01*
X6654802Y6458457D01*
X6654802Y6531355D02*
G01*
X6678932Y6531355D01*
X6689346Y6527800D01*
X6696458Y6520942D01*
X6699760Y6513829D01*
X6703316Y6503670D01*
X6703316Y6486144D01*
X6699760Y6475729D01*
X6696458Y6468871D01*
X6689346Y6462013D01*
X6678932Y6458457D01*
X6654802Y6458457D01*
X6760720Y6531355D02*
G01*
X6726176Y6482842D01*
X6777992Y6482842D01*
X6760720Y6531355D02*
G01*
X6760720Y6458457D01*
X6578600Y6785355D02*
G01*
X6578600Y6712458D01*
X6578600Y6785355D02*
G01*
X6609841Y6785355D01*
X6620256Y6781800D01*
X6623558Y6778244D01*
X6627113Y6771386D01*
X6627113Y6764528D01*
X6623558Y6757670D01*
X6620256Y6754113D01*
X6609841Y6750558D01*
X6578600Y6750558D01*
X6602729Y6750558D02*
G01*
X6627113Y6712458D01*
X6649974Y6785355D02*
G01*
X6698488Y6712458D01*
X6698488Y6785355D02*
G01*
X6649974Y6712458D01*
X6724650Y6767829D02*
G01*
X6724650Y6771386D01*
X6728206Y6778244D01*
X6731761Y6781800D01*
X6738620Y6785355D01*
X6752590Y6785355D01*
X6759447Y6781800D01*
X6762750Y6778244D01*
X6766306Y6771386D01*
X6766306Y6764528D01*
X6762750Y6757670D01*
X6755891Y6747255D01*
X6721347Y6712458D01*
X6769861Y6712458D01*
X6602729Y7039355D02*
G01*
X6602729Y6966458D01*
X6578600Y7039355D02*
G01*
X6627113Y7039355D01*
X6649974Y7039355D02*
G01*
X6698488Y6966458D01*
X6698488Y7039355D02*
G01*
X6649974Y6966458D01*
X6724650Y7021829D02*
G01*
X6724650Y7025386D01*
X6728206Y7032244D01*
X6731761Y7035800D01*
X6738620Y7039355D01*
X6752590Y7039355D01*
X6759447Y7035800D01*
X6762750Y7032244D01*
X6766306Y7025386D01*
X6766306Y7018528D01*
X6762750Y7011670D01*
X6755891Y7001255D01*
X6721347Y6966458D01*
X6769861Y6966458D01*
X6451600Y7293358D02*
G01*
X6451600Y7220460D01*
X6451600Y7293358D02*
G01*
X6475729Y7293358D01*
X6486143Y7289802D01*
X6493256Y7282944D01*
X6496558Y7275832D01*
X6500113Y7265672D01*
X6500113Y7248146D01*
X6496558Y7237732D01*
X6493256Y7230874D01*
X6486143Y7224016D01*
X6475729Y7220460D01*
X6451600Y7220460D01*
X6564629Y7293358D02*
G01*
X6529831Y7293358D01*
X6526529Y7262116D01*
X6529831Y7265672D01*
X6540245Y7268974D01*
X6550659Y7268974D01*
X6561074Y7265672D01*
X6567931Y7258560D01*
X6571488Y7248146D01*
X6571488Y7241288D01*
X6567931Y7230874D01*
X6561074Y7224016D01*
X6550659Y7220460D01*
X6540245Y7220460D01*
X6529831Y7224016D01*
X6526529Y7227572D01*
X6522974Y7234430D01*
X6696202Y7282944D02*
G01*
X6689090Y7289802D01*
X6678929Y7293358D01*
X6664959Y7293358D01*
X6654545Y7289802D01*
X6647688Y7282944D01*
X6647688Y7275832D01*
X6650990Y7268974D01*
X6654545Y7265672D01*
X6661404Y7262116D01*
X6682231Y7255258D01*
X6689090Y7251702D01*
X6692645Y7248146D01*
X6696202Y7241288D01*
X6696202Y7230874D01*
X6689090Y7224016D01*
X6678929Y7220460D01*
X6664959Y7220460D01*
X6654545Y7224016D01*
X6647688Y7230874D01*
X6767575Y7282944D02*
G01*
X6760463Y7289802D01*
X6750050Y7293358D01*
X6736334Y7293358D01*
X6725920Y7289802D01*
X6719061Y7282944D01*
X6719061Y7275832D01*
X6722363Y7268974D01*
X6725920Y7265672D01*
X6732777Y7262116D01*
X6753606Y7255258D01*
X6760463Y7251702D01*
X6764020Y7248146D01*
X6767575Y7241288D01*
X6767575Y7230874D01*
X6760463Y7224016D01*
X6750050Y7220460D01*
X6736334Y7220460D01*
X6725920Y7224016D01*
X6719061Y7230874D01*
X6400797Y7547355D02*
G01*
X6400797Y7474458D01*
X6400797Y7547355D02*
G01*
X6424927Y7547355D01*
X6435341Y7543800D01*
X6442453Y7536942D01*
X6445755Y7529829D01*
X6449311Y7519670D01*
X6449311Y7502144D01*
X6445755Y7491729D01*
X6442453Y7484871D01*
X6435341Y7478013D01*
X6424927Y7474458D01*
X6400797Y7474458D01*
X6472171Y7533386D02*
G01*
X6479029Y7536942D01*
X6489443Y7547355D01*
X6489443Y7474458D01*
X6529575Y7547355D02*
G01*
X6519161Y7543800D01*
X6515859Y7536942D01*
X6515859Y7529829D01*
X6519161Y7522971D01*
X6526273Y7519670D01*
X6539989Y7516113D01*
X6550403Y7512558D01*
X6557261Y7505700D01*
X6560817Y7498842D01*
X6560817Y7488428D01*
X6557261Y7481570D01*
X6553959Y7478013D01*
X6543545Y7474458D01*
X6529575Y7474458D01*
X6519161Y7478013D01*
X6515859Y7481570D01*
X6512303Y7488428D01*
X6512303Y7498842D01*
X6515859Y7505700D01*
X6522717Y7512558D01*
X6533131Y7516113D01*
X6546847Y7519670D01*
X6553959Y7522971D01*
X6557261Y7529829D01*
X6557261Y7536942D01*
X6553959Y7543800D01*
X6543545Y7547355D01*
X6529575Y7547355D01*
X6685531Y7536942D02*
G01*
X6678673Y7543800D01*
X6668259Y7547355D01*
X6654289Y7547355D01*
X6643875Y7543800D01*
X6637017Y7536942D01*
X6637017Y7529829D01*
X6640573Y7522971D01*
X6643875Y7519670D01*
X6650987Y7516113D01*
X6671561Y7509255D01*
X6678673Y7505700D01*
X6681975Y7502144D01*
X6685531Y7495286D01*
X6685531Y7484871D01*
X6678673Y7478013D01*
X6668259Y7474458D01*
X6654289Y7474458D01*
X6643875Y7478013D01*
X6637017Y7484871D01*
X6760207Y7529829D02*
G01*
X6756905Y7536942D01*
X6750047Y7543800D01*
X6742935Y7547355D01*
X6729219Y7547355D01*
X6722107Y7543800D01*
X6715249Y7536942D01*
X6711947Y7529829D01*
X6708391Y7519670D01*
X6708391Y7502144D01*
X6711947Y7491729D01*
X6715249Y7484871D01*
X6722107Y7478013D01*
X6729219Y7474458D01*
X6742935Y7474458D01*
X6750047Y7478013D01*
X6756905Y7484871D01*
X6760207Y7491729D01*
X6451600Y7801355D02*
G01*
X6451600Y7728458D01*
X6451600Y7801355D02*
G01*
X6475729Y7801355D01*
X6486143Y7797800D01*
X6493256Y7790942D01*
X6496558Y7783829D01*
X6500113Y7773670D01*
X6500113Y7756144D01*
X6496558Y7745729D01*
X6493256Y7738871D01*
X6486143Y7732013D01*
X6475729Y7728458D01*
X6451600Y7728458D01*
X6522974Y7787386D02*
G01*
X6529831Y7790942D01*
X6540245Y7801355D01*
X6540245Y7728458D01*
X6608063Y7776971D02*
G01*
X6604761Y7766558D01*
X6597650Y7759700D01*
X6587490Y7756144D01*
X6583934Y7756144D01*
X6573520Y7759700D01*
X6566661Y7766558D01*
X6563106Y7776971D01*
X6563106Y7780528D01*
X6566661Y7790942D01*
X6573520Y7797800D01*
X6583934Y7801355D01*
X6587490Y7801355D01*
X6597650Y7797800D01*
X6604761Y7790942D01*
X6608063Y7776971D01*
X6608063Y7759700D01*
X6604761Y7742428D01*
X6597650Y7732013D01*
X6587490Y7728458D01*
X6580377Y7728458D01*
X6569963Y7732013D01*
X6566661Y7738871D01*
X6684263Y7801355D02*
G01*
X6684263Y7728458D01*
X6684263Y7801355D02*
G01*
X6711950Y7728458D01*
X6739890Y7801355D02*
G01*
X6711950Y7728458D01*
X6739890Y7801355D02*
G01*
X6739890Y7728458D01*
X6762750Y7801355D02*
G01*
X6762750Y7728458D01*
X6604000Y8055355D02*
G01*
X6604000Y7982458D01*
X6604000Y8055355D02*
G01*
X6628129Y8055355D01*
X6638543Y8051800D01*
X6645656Y8044942D01*
X6648958Y8037829D01*
X6652513Y8027670D01*
X6652513Y8010144D01*
X6648958Y7999729D01*
X6645656Y7992871D01*
X6638543Y7986013D01*
X6628129Y7982458D01*
X6604000Y7982458D01*
X6678929Y8037829D02*
G01*
X6678929Y8041386D01*
X6682231Y8048244D01*
X6685788Y8051800D01*
X6692645Y8055355D01*
X6706615Y8055355D01*
X6713474Y8051800D01*
X6717029Y8048244D01*
X6720331Y8041386D01*
X6720331Y8034528D01*
X6717029Y8027670D01*
X6709918Y8017255D01*
X6675374Y7982458D01*
X6723888Y7982458D01*
X6746747Y8041386D02*
G01*
X6753606Y8044942D01*
X6764020Y8055355D01*
X6764020Y7982458D01*
X6602729Y8563355D02*
G01*
X6602729Y8490458D01*
X6578600Y8563355D02*
G01*
X6627113Y8563355D01*
X6649974Y8563355D02*
G01*
X6698488Y8490458D01*
X6698488Y8563355D02*
G01*
X6649974Y8490458D01*
X6742175Y8563355D02*
G01*
X6731761Y8559800D01*
X6724650Y8549386D01*
X6721347Y8532113D01*
X6721347Y8521700D01*
X6724650Y8504428D01*
X6731761Y8494013D01*
X6742175Y8490458D01*
X6749034Y8490458D01*
X6759447Y8494013D01*
X6766306Y8504428D01*
X6769861Y8521700D01*
X6769861Y8532113D01*
X6766306Y8549386D01*
X6759447Y8559800D01*
X6749034Y8563355D01*
X6742175Y8563355D01*
X6578600Y8817358D02*
G01*
X6578600Y8744460D01*
X6578600Y8817358D02*
G01*
X6602729Y8817358D01*
X6613143Y8813802D01*
X6620256Y8806944D01*
X6623558Y8799832D01*
X6627113Y8789672D01*
X6627113Y8772146D01*
X6623558Y8761732D01*
X6620256Y8754874D01*
X6613143Y8748016D01*
X6602729Y8744460D01*
X6578600Y8744460D01*
X6653529Y8799832D02*
G01*
X6653529Y8803388D01*
X6656831Y8810246D01*
X6660388Y8813802D01*
X6667245Y8817358D01*
X6681215Y8817358D01*
X6688074Y8813802D01*
X6691629Y8810246D01*
X6694931Y8803388D01*
X6694931Y8796530D01*
X6691629Y8789672D01*
X6684518Y8779258D01*
X6649974Y8744460D01*
X6698488Y8744460D01*
X6724650Y8799832D02*
G01*
X6724650Y8803388D01*
X6728206Y8810246D01*
X6731761Y8813802D01*
X6738620Y8817358D01*
X6752590Y8817358D01*
X6759447Y8813802D01*
X6762750Y8810246D01*
X6766306Y8803388D01*
X6766306Y8796530D01*
X6762750Y8789672D01*
X6755891Y8779258D01*
X6721347Y8744460D01*
X6769861Y8744460D01*
X6375400Y9071355D02*
G01*
X6375400Y8998458D01*
X6375400Y9071355D02*
G01*
X6399529Y9071355D01*
X6409943Y9067800D01*
X6417056Y9060942D01*
X6420358Y9053829D01*
X6423913Y9043670D01*
X6423913Y9026144D01*
X6420358Y9015729D01*
X6417056Y9008871D01*
X6409943Y9002013D01*
X6399529Y8998458D01*
X6375400Y8998458D01*
X6450329Y9053829D02*
G01*
X6450329Y9057386D01*
X6453631Y9064244D01*
X6457188Y9067800D01*
X6464045Y9071355D01*
X6478015Y9071355D01*
X6484874Y9067800D01*
X6488429Y9064244D01*
X6491731Y9057386D01*
X6491731Y9050528D01*
X6488429Y9043670D01*
X6481318Y9033255D01*
X6446774Y8998458D01*
X6495288Y8998458D01*
X6525006Y9071355D02*
G01*
X6563106Y9071355D01*
X6542277Y9043670D01*
X6552691Y9043670D01*
X6559550Y9040113D01*
X6563106Y9036558D01*
X6566661Y9026144D01*
X6566661Y9019286D01*
X6563106Y9008871D01*
X6556247Y9002013D01*
X6545834Y8998458D01*
X6535420Y8998458D01*
X6525006Y9002013D01*
X6521450Y9005570D01*
X6518147Y9012428D01*
X6642861Y9071355D02*
G01*
X6642861Y8998458D01*
X6642861Y9071355D02*
G01*
X6670547Y8998458D01*
X6698234Y9071355D02*
G01*
X6670547Y8998458D01*
X6698234Y9071355D02*
G01*
X6698234Y8998458D01*
X6741922Y9071355D02*
G01*
X6734809Y9067800D01*
X6727952Y9060942D01*
X6724650Y9053829D01*
X6721093Y9043670D01*
X6721093Y9026144D01*
X6724650Y9015729D01*
X6727952Y9008871D01*
X6734809Y9002013D01*
X6741922Y8998458D01*
X6755638Y8998458D01*
X6762750Y9002013D01*
X6769608Y9008871D01*
X6772909Y9015729D01*
X6776465Y9026144D01*
X6776465Y9043670D01*
X6772909Y9053829D01*
X6769608Y9060942D01*
X6762750Y9067800D01*
X6755638Y9071355D01*
X6741922Y9071355D01*
X4572002Y9071355D02*
G01*
X4572002Y8998458D01*
X4572002Y9071355D02*
G01*
X4616960Y9071355D01*
X4572002Y9036558D02*
G01*
X4599688Y9036558D01*
X4572002Y8998458D02*
G01*
X4616960Y8998458D01*
X4639820Y9071355D02*
G01*
X4639820Y8998458D01*
X4639820Y9071355D02*
G01*
X4688334Y8998458D01*
X4688334Y9071355D02*
G01*
X4688334Y8998458D01*
D10*
X2463800Y7836915D02*
G01*
X2463800Y7758937D01*
X2468879Y7743444D01*
X2479293Y7733029D01*
X2495041Y7727950D01*
X2505456Y7727950D01*
X2520950Y7733029D01*
X2531363Y7743444D01*
X2536443Y7758937D01*
X2536443Y7836915D01*
X2576068Y7811008D02*
G01*
X2576068Y7816087D01*
X2581147Y7826502D01*
X2586481Y7831836D01*
X2596895Y7836915D01*
X2617470Y7836915D01*
X2627884Y7831836D01*
X2633218Y7826502D01*
X2638297Y7816087D01*
X2638297Y7805673D01*
X2633218Y7795260D01*
X2622804Y7779765D01*
X2570734Y7727950D01*
X2643631Y7727950D01*
X2688336Y7852410D02*
G01*
X2688336Y7821421D01*
X2712211Y7836915D02*
G01*
X2712211Y7727950D01*
X2784856Y7836915D02*
G01*
X2784856Y7727950D01*
X2712211Y7785100D02*
G01*
X2784856Y7785100D01*
X2819145Y7816087D02*
G01*
X2829559Y7821421D01*
X2845054Y7836915D01*
X2845054Y7727950D01*
X10463784Y4965700D02*
G01*
X10572750Y4965700D01*
X10463784Y4965700D02*
G01*
X10463784Y5002021D01*
X10468863Y5017770D01*
X10479277Y5027929D01*
X10489691Y5033263D01*
X10505440Y5038344D01*
X10531347Y5038344D01*
X10546841Y5033263D01*
X10557256Y5027929D01*
X10567670Y5017770D01*
X10572750Y5002021D01*
X10572750Y4965700D01*
X10489691Y5077968D02*
G01*
X10484611Y5077968D01*
X10474197Y5083047D01*
X10468863Y5088381D01*
X10463784Y5098795D01*
X10463784Y5119370D01*
X10468863Y5129784D01*
X10474197Y5135118D01*
X10484611Y5140197D01*
X10495025Y5140197D01*
X10505440Y5135118D01*
X10520934Y5124704D01*
X10572750Y5072634D01*
X10572750Y5145531D01*
X10463784Y5179821D02*
G01*
X10541761Y5179821D01*
X10557256Y5184902D01*
X10567670Y5195315D01*
X10572750Y5210810D01*
X10572750Y5221223D01*
X10567670Y5236971D01*
X10557256Y5247386D01*
X10541761Y5252465D01*
X10463784Y5252465D01*
X10463784Y5349239D02*
G01*
X10463784Y5297170D01*
X10510520Y5292089D01*
X10505440Y5297170D01*
X10500106Y5312663D01*
X10500106Y5328412D01*
X10505440Y5343905D01*
X10515600Y5354320D01*
X10531347Y5359400D01*
X10541761Y5359400D01*
X10557256Y5354320D01*
X10567670Y5343905D01*
X10572750Y5328412D01*
X10572750Y5312663D01*
X10567670Y5297170D01*
X10562590Y5292089D01*
X10552175Y5286755D01*
D12*
X2940187Y9519795D02*
G01*
X2015187Y9519795D01*
X2685188Y8601786D02*
G01*
X2940187Y8601786D01*
X2250188Y9156108D02*
G01*
X2250188Y8601786D01*
X2685188Y9156108D02*
G01*
X2685188Y8601786D01*
X2685188Y8601786D02*
G01*
X2100765Y8601786D01*
X2685188Y8436109D02*
G01*
X2677584Y8436109D01*
X2810184Y8436109D02*
G01*
X2685188Y8436109D01*
X2685188Y9156108D02*
G01*
X2685188Y9191106D01*
X2250188Y9191106D01*
X2250188Y9156108D01*
X2015187Y8503765D02*
G01*
X2015187Y8436109D01*
X2257864Y8436109D01*
X2810184Y8436109D02*
G01*
X2940187Y8436109D01*
X2940187Y9861108D01*
X2015187Y9861108D01*
X2015187Y8918379D01*
D13*
X9321800Y4533900D02*
G01*
X9359900Y4572000D01*
X9334500Y4572000D01*
X9359900Y4572000D02*
G01*
X9359900Y4546600D01*
X9271000Y4533900D02*
G01*
X9309100Y4572000D01*
X9283700Y4572000D01*
X9309100Y4572000D02*
G01*
X9309100Y4546600D01*
D12*
X9486900Y4597400D02*
G01*
X9486900Y4533900D01*
X9486900Y4356100D02*
G01*
X9486900Y4292600D01*
D13*
X9245600Y4445000D02*
G01*
X9372600Y4445000D01*
X9319099Y4445000D02*
G01*
X9269100Y4494999D01*
X9269100Y4395000D01*
X9319099Y4445000D01*
X9339099Y4494999D02*
G01*
X9339099Y4395000D01*
X11709400Y4495800D02*
G01*
X11747500Y4533900D01*
X11722100Y4533900D01*
X11747500Y4533900D02*
G01*
X11747500Y4508500D01*
X11658600Y4495800D02*
G01*
X11696700Y4533900D01*
X11671300Y4533900D01*
X11696700Y4533900D02*
G01*
X11696700Y4508500D01*
D12*
X11874500Y4559300D02*
G01*
X11874500Y4495800D01*
X11874500Y4318000D02*
G01*
X11874500Y4254500D01*
D13*
X11633200Y4406900D02*
G01*
X11760200Y4406900D01*
X11706699Y4406900D02*
G01*
X11656700Y4456899D01*
X11656700Y4356900D01*
X11706699Y4406900D01*
X11726699Y4456899D02*
G01*
X11726699Y4356900D01*
X2501900Y5435600D02*
G01*
X2540000Y5473700D01*
X2514600Y5473700D01*
X2540000Y5473700D02*
G01*
X2540000Y5448300D01*
X2451100Y5435600D02*
G01*
X2489200Y5473700D01*
X2463800Y5473700D01*
X2489200Y5473700D02*
G01*
X2489200Y5448300D01*
D12*
X2667000Y5499100D02*
G01*
X2667000Y5435600D01*
X2667000Y5257800D02*
G01*
X2667000Y5194300D01*
D13*
X2425700Y5346700D02*
G01*
X2552700Y5346700D01*
X2499199Y5346700D02*
G01*
X2449200Y5396699D01*
X2449200Y5296700D01*
X2499199Y5346700D01*
X2519199Y5396699D02*
G01*
X2519199Y5296700D01*
D14*
X8293100Y5181600D02*
G01*
X8293100Y5803900D01*
X8534400Y5803900D01*
X8534400Y5156200D01*
X8293100Y5156200D01*
X8293100Y5181600D01*
D15*
X8318500Y5651500D02*
G01*
X8509000Y5651500D01*
D16*
X8407400Y5143500D02*
G01*
X8407400Y5080000D01*
X8407400Y5905500D02*
G01*
X8407400Y5816600D01*
D12*
X9811600Y8587000D02*
G01*
X8171599Y8587000D01*
X9811598Y9637001D02*
G01*
X9811600Y8587000D01*
X8171599Y9637001D02*
G01*
X9811600Y9637001D01*
X8171599Y8587000D02*
G01*
X8171599Y9637001D01*
X8171599Y9493211D02*
G01*
X9811598Y9493211D01*
X12224600Y8587000D02*
G01*
X10584599Y8587000D01*
X12224598Y9637001D02*
G01*
X12224600Y8587000D01*
X10584599Y9637001D02*
G01*
X12224600Y9637001D01*
X10584599Y8587000D02*
G01*
X10584599Y9637001D01*
X10584599Y9493211D02*
G01*
X12224598Y9493211D01*
D10*
X9226550Y5275430D02*
G01*
X9414438Y5275430D01*
X9414438Y5748169D01*
X8848161Y5748169D01*
X8848161Y5275430D01*
X9036050Y5275430D01*
X11588750Y5288130D02*
G01*
X11776638Y5288130D01*
X11776638Y5760869D01*
X11210361Y5760869D01*
X11210361Y5288130D01*
X11398250Y5288130D01*
D12*
X10071100Y6184900D02*
G01*
X9613900Y6184900D01*
X12433300Y6172200D02*
G01*
X11976100Y6172200D01*
X8826500Y4419600D02*
G01*
X8699500Y4419600D01*
X7823200Y4419600D02*
G01*
X7937500Y4419600D01*
X7950200Y4546600D02*
G01*
X8693505Y4546600D01*
X8693505Y4305300D01*
X7950200Y4305300D01*
X7950200Y4546600D01*
X11201400Y4406900D02*
G01*
X11074400Y4406900D01*
X10198100Y4406900D02*
G01*
X10312400Y4406900D01*
X10325100Y4533900D02*
G01*
X11068405Y4533900D01*
X11068405Y4292600D01*
X10325100Y4292600D01*
X10325100Y4533900D01*
X2984500Y6108700D02*
G01*
X2857500Y6108700D01*
X1981200Y6108700D02*
G01*
X2095500Y6108700D01*
X2108200Y6235700D02*
G01*
X2851505Y6235700D01*
X2851505Y5994400D01*
X2108200Y5994400D01*
X2108200Y6235700D01*
X9842500Y5334000D02*
G01*
X9842500Y5384800D01*
X9842500Y5283200D01*
X9842500Y4597400D02*
G01*
X9842500Y4622800D01*
X9842500Y4521200D01*
X9931400Y4635500D02*
G01*
X9753600Y4635500D01*
X9728200Y4660900D02*
G01*
X9728200Y4699000D01*
X9740900Y4711700D02*
G01*
X9728200Y4699000D01*
X9956800Y4660900D02*
G01*
X9956800Y4699000D01*
X9944100Y4711700D02*
G01*
X9956800Y4699000D01*
X9740900Y5194300D02*
G01*
X9728200Y5207000D01*
X9740900Y5194300D02*
G01*
X9740900Y4711700D01*
X9944100Y5194300D02*
G01*
X9956800Y5207000D01*
X9944100Y5194300D02*
G01*
X9944100Y4711700D01*
X9728200Y5245100D02*
G01*
X9728200Y5207000D01*
X9956800Y5245100D02*
G01*
X9956800Y5207000D01*
X9931400Y5270500D02*
G01*
X9753600Y5270500D01*
X12204700Y5308600D02*
G01*
X12204700Y5359400D01*
X12204700Y5257800D01*
X12204700Y4572000D02*
G01*
X12204700Y4597400D01*
X12204700Y4495800D01*
X12293600Y4610100D02*
G01*
X12115800Y4610100D01*
X12090400Y4635500D02*
G01*
X12090400Y4673600D01*
X12103100Y4686300D02*
G01*
X12090400Y4673600D01*
X12319000Y4635500D02*
G01*
X12319000Y4673600D01*
X12306300Y4686300D02*
G01*
X12319000Y4673600D01*
X12103100Y5168900D02*
G01*
X12090400Y5181600D01*
X12103100Y5168900D02*
G01*
X12103100Y4686300D01*
X12306300Y5168900D02*
G01*
X12319000Y5181600D01*
X12306300Y5168900D02*
G01*
X12306300Y4686300D01*
X12090400Y5219700D02*
G01*
X12090400Y5181600D01*
X12319000Y5219700D02*
G01*
X12319000Y5181600D01*
X12293600Y5245100D02*
G01*
X12115800Y5245100D01*
D11*
X3530600Y5080000D02*
G01*
X3782059Y5080000D01*
X3782059Y4572000D01*
X3530600Y4572000D01*
X3530600Y5080000D01*
D12*
X2654300Y6908800D02*
G01*
X2247900Y6908800D01*
X2705100Y6872213D02*
G01*
X2705100Y6908800D01*
X2654300Y6908800D01*
X2654300Y6997700D01*
X2197100Y6872213D02*
G01*
X2197100Y6908800D01*
X2247900Y6908800D01*
X2247900Y6997700D01*
X2197100Y6665986D02*
G01*
X2197100Y6616700D01*
X2705100Y6616700D01*
X2705100Y6665986D01*
X7531100Y6743700D02*
G01*
X7531100Y9156700D01*
X7785100Y9156700D01*
X7785100Y5346700D01*
X7531100Y5346700D01*
X7531100Y6743700D01*
X3530600Y6756400D02*
G01*
X3530600Y9169400D01*
X3784600Y9169400D01*
X3784600Y5359400D01*
X3530600Y5359400D01*
X3530600Y6756400D01*
X8164311Y8366462D02*
G01*
X8164311Y6316464D01*
X9444311Y7936362D02*
G01*
X9304312Y7936293D01*
X8564313Y7936362D02*
G01*
X8714320Y7936293D01*
X8996159Y6676364D02*
G01*
X8996159Y7621993D01*
X8724303Y7996313D01*
X9844313Y8366462D02*
G01*
X9844313Y6316464D01*
X9844313Y8366462D02*
G01*
X8164311Y8366462D01*
X9844313Y6316464D02*
G01*
X8164311Y6316461D01*
X10551911Y8366462D02*
G01*
X10551911Y6316464D01*
X11831911Y7936362D02*
G01*
X11691912Y7936293D01*
X10951913Y7936362D02*
G01*
X11101920Y7936293D01*
X11383759Y6676364D02*
G01*
X11383759Y7621993D01*
X11111903Y7996313D01*
X12231913Y8366462D02*
G01*
X12231913Y6316464D01*
X12231913Y8366462D02*
G01*
X10551911Y8366462D01*
X12231913Y6316464D02*
G01*
X10551911Y6316461D01*
D17*
X4978400Y9537700D02*
G01*
X5003800Y9537700D01*
X5181600Y9537700D01*
X5181600Y9309100D01*
X5410200Y9309100D01*
X5410200Y9537700D01*
X5638800Y9537700D01*
X5638800Y9309100D01*
X5867400Y9309100D01*
X5867400Y9537700D01*
X6273800Y9537700D01*
X4978400Y9537700D02*
G01*
X4978400Y9207500D01*
X6096000Y9537700D02*
G01*
X6095872Y9182023D01*
X6273800Y9537700D02*
G01*
X6273672Y9182023D01*
D11*
X6299200Y7454900D02*
G01*
X5029200Y7454900D01*
X6299200Y8978900D02*
G01*
X5029200Y8978900D01*
X6299200Y8978900D02*
G01*
X6299200Y7454900D01*
X5029200Y8978900D02*
G01*
X5029200Y7454900D01*
D12*
X4775200Y4991100D02*
G01*
X5029200Y4991100D01*
X5029200Y4635500D01*
X4775200Y4635500D01*
X4775200Y4991100D01*
X6299200Y4991100D02*
G01*
X6553200Y4991100D01*
X6553200Y4635500D01*
X6299200Y4635500D01*
X6299200Y4991100D01*
X5334000Y5041900D02*
G01*
X6019800Y5041900D01*
X6019800Y4457700D01*
X5334000Y4457700D01*
X5334000Y5041900D01*
X4267200Y9639300D02*
G01*
X7067194Y9639300D01*
X7067194Y4489297D01*
X4267200Y4489297D01*
X4267200Y9639300D01*
D11*
X2959100Y7683500D02*
G01*
X2959100Y7429500D01*
X1943100Y7429500D01*
X1943100Y7683500D01*
X2133600Y7683500D01*
D18*
X2959100Y7683500D02*
G01*
X2133600Y7683500D01*
D14*
X10642600Y5168900D02*
G01*
X10642600Y5791200D01*
X10883900Y5791200D01*
X10883900Y5143500D01*
X10642600Y5143500D01*
X10642600Y5168900D01*
D15*
X10668000Y5638800D02*
G01*
X10858500Y5638800D01*
D16*
X10756900Y5130800D02*
G01*
X10756900Y5067300D01*
X10756900Y5892800D02*
G01*
X10756900Y5803900D01*
D12*
G75*
G01*
X2746583Y8436110D02*
G03*
X2202942Y8436102I-271820J-4D01*
G75*
G01*
X9126192Y4523179D02*
G02*
X9486458Y4596968I203857J-78934D01*
G75*
G01*
X9486900Y4292600D02*
G02*
X9127317Y4361995I-157164J151947D01*
G75*
G01*
X11513792Y4485079D02*
G02*
X11874058Y4558868I203857J-78934D01*
G75*
G01*
X11874500Y4254500D02*
G02*
X11514917Y4323895I-157164J151947D01*
G75*
G01*
X2306292Y5424879D02*
G02*
X2666558Y5498668I203857J-78934D01*
G75*
G01*
X2667000Y5194300D02*
G02*
X2307417Y5263695I-157164J151947D01*
D10*
G75*
G01*
X9226550Y5275430D02*
G03*
X9036050Y5275430I-95250J0D01*
G75*
G01*
X11588750Y5288130D02*
G03*
X11398250Y5288130I-95250J0D01*
D12*
G75*
G01*
X10078108Y6181377D02*
G02*
X9930948Y5709003I-235609J-185710D01*
G75*
G01*
X9757776Y5707408D02*
G02*
X9610618Y6179790I88446J286665D01*
G75*
G01*
X9930948Y5709001D02*
G02*
X9754052Y5709001I-88448J286664D01*
G75*
G01*
X12440308Y6168677D02*
G02*
X12293148Y5696303I-235609J-185710D01*
G75*
G01*
X12119976Y5694708D02*
G02*
X11972818Y6167090I88446J286665D01*
G75*
G01*
X12293148Y5696301D02*
G02*
X12116252Y5696301I-88448J286664D01*
G75*
G01*
X9753600Y4635500D02*
G02*
X9728200Y4660900I0J25400D01*
G75*
G01*
X9931400Y4635500D02*
G03*
X9956800Y4660900I0J25400D01*
G75*
G01*
X9956800Y5245100D02*
G03*
X9931400Y5270500I-25400J0D01*
G75*
G01*
X9728200Y5245100D02*
G02*
X9753600Y5270500I25400J0D01*
G75*
G01*
X12115800Y4610100D02*
G02*
X12090400Y4635500I0J25400D01*
G75*
G01*
X12293600Y4610100D02*
G03*
X12319000Y4635500I0J25400D01*
G75*
G01*
X12319000Y5219700D02*
G03*
X12293600Y5245100I-25400J0D01*
G75*
G01*
X12090400Y5219700D02*
G02*
X12115800Y5245100I25400J0D01*
G75*
G01*
X2654300Y6997700D02*
G03*
X2247844Y6997581I-203188J-136462D01*
G75*
G01*
X8992933Y6792277D02*
G02*
X9292908Y6782372I149907J-7392D01*
G75*
G01*
X8692960Y6802183D02*
G02*
X8992933Y6792277I149906J-7392D01*
G75*
G01*
X9294312Y6786364D02*
G02*
X9561335Y6867081I148554J-9406D01*
G75*
G01*
X8407222Y6869143D02*
G02*
X8692909Y6802310I135570J-64506D01*
G75*
G01*
X11380533Y6792277D02*
G02*
X11680508Y6782372I149907J-7392D01*
G75*
G01*
X11080560Y6802183D02*
G02*
X11380533Y6792277I149906J-7392D01*
G75*
G01*
X11681912Y6786364D02*
G02*
X11948935Y6867081I148554J-9406D01*
G75*
G01*
X10794822Y6869143D02*
G02*
X11080509Y6802310I135570J-64506D01*
D19*
G75*
G01
X9580042Y5222799D02*
G03X9580042Y5222799I-7493J0D01*
D12*
G75*
G01
X9370416Y5384800D02*
G03X9370416Y5384800I-35916J0D01*
D19*
G75*
G01
X11942242Y5235499D02*
G03X11942242Y5235499I-7493J0D01*
D12*
G75*
G01
X11732616Y5397500D02*
G03X11732616Y5397500I-35916J0D01*
G75*
G01
X2844800Y6718300D02*
G03X2844800Y6718300I-12700J0D01*
G75*
G01
X4982515Y4813300D02*
G03X4982515Y4813300I-80315J0D01*
G75*
G01
X6506515Y4813300D02*
G03X6506515Y4813300I-80315J0D01*
M02*
