G04 Layer: BottomSilkscreenLayer*
G04 EasyEDA v6.5.48, 2025-01-19 19:24:15*
G04 93f84cf920734f188c47773e0b6923d2,3cbab8949a5742979101216bdbeae448,10*
G04 Gerber Generator version 0.2*
G04 Scale: 100 percent, Rotated: No, Reflected: No *
G04 Dimensions in millimeters *
G04 leading zeros omitted , absolute positions ,4 integer and 5 decimal *
%FSLAX45Y45*%
%MOMM*%

%ADD10C,0.1524*%

%LPD*%
D10*
X2501900Y7989315D02*
G01*
X2501900Y7911337D01*
X2496820Y7895844D01*
X2486406Y7885429D01*
X2470658Y7880350D01*
X2460243Y7880350D01*
X2444750Y7885429D01*
X2434336Y7895844D01*
X2429256Y7911337D01*
X2429256Y7989315D01*
X2394965Y7968487D02*
G01*
X2384552Y7973821D01*
X2368804Y7989315D01*
X2368804Y7880350D01*
X2334513Y7989315D02*
G01*
X2334513Y7880350D01*
X2334513Y7989315D02*
G01*
X2287777Y7989315D01*
X2272284Y7984236D01*
X2266950Y7978902D01*
X2261870Y7968487D01*
X2261870Y7958073D01*
X2266950Y7947660D01*
X2272284Y7942579D01*
X2287777Y7937500D01*
X2334513Y7937500D01*
X2298191Y7937500D02*
G01*
X2261870Y7880350D01*
X2222500Y7963408D02*
G01*
X2222500Y7968487D01*
X2217165Y7978902D01*
X2212086Y7984236D01*
X2201672Y7989315D01*
X2180843Y7989315D01*
X2170429Y7984236D01*
X2165350Y7978902D01*
X2160015Y7968487D01*
X2160015Y7958073D01*
X2165350Y7947660D01*
X2175509Y7932165D01*
X2227579Y7880350D01*
X2154936Y7880350D01*
X3009900Y8395715D02*
G01*
X3009900Y8317737D01*
X3004820Y8302244D01*
X2994406Y8291829D01*
X2978658Y8286750D01*
X2968243Y8286750D01*
X2952750Y8291829D01*
X2942336Y8302244D01*
X2937256Y8317737D01*
X2937256Y8395715D01*
X2897631Y8369808D02*
G01*
X2897631Y8374887D01*
X2892552Y8385302D01*
X2887218Y8390636D01*
X2876804Y8395715D01*
X2856229Y8395715D01*
X2845815Y8390636D01*
X2840481Y8385302D01*
X2835402Y8374887D01*
X2835402Y8364473D01*
X2840481Y8354060D01*
X2850895Y8338565D01*
X2902965Y8286750D01*
X2830068Y8286750D01*
X2785363Y8411210D02*
G01*
X2785363Y8380221D01*
X2761488Y8395715D02*
G01*
X2761488Y8286750D01*
X2761488Y8395715D02*
G01*
X2714752Y8395715D01*
X2699258Y8390636D01*
X2693924Y8385302D01*
X2688843Y8374887D01*
X2688843Y8364473D01*
X2693924Y8354060D01*
X2699258Y8348979D01*
X2714752Y8343900D01*
X2761488Y8343900D01*
X2725165Y8343900D02*
G01*
X2688843Y8286750D01*
X2654554Y8374887D02*
G01*
X2644140Y8380221D01*
X2628645Y8395715D01*
X2628645Y8286750D01*
X2252421Y8194060D02*
G01*
X2348308Y8194060D01*
X2348308Y8061939D01*
X2252421Y8061939D01*
X2167178Y8194060D02*
G01*
X2071291Y8194060D01*
X2071291Y8061939D01*
X2167178Y8061939D01*
X2967278Y8061939D02*
G01*
X2871391Y8061939D01*
X2871391Y8194060D01*
X2967278Y8194060D01*
X3052521Y8061939D02*
G01*
X3148408Y8061939D01*
X3148408Y8194060D01*
X3052521Y8194060D01*
M02*
