G04 Layer: BottomPasteMaskLayer*
G04 EasyEDA v6.5.48, 2025-01-19 19:24:15*
G04 93f84cf920734f188c47773e0b6923d2,3cbab8949a5742979101216bdbeae448,10*
G04 Gerber Generator version 0.2*
G04 Scale: 100 percent, Rotated: No, Reflected: No *
G04 Dimensions in millimeters *
G04 leading zeros omitted , absolute positions ,4 integer and 5 decimal *
%FSLAX45Y45*%
%MOMM*%

%ADD10C,0.0001*%

%LPD*%
G36*
X2249322Y8173008D02*
G01*
X2244293Y8167979D01*
X2244293Y8143798D01*
X2281275Y8143798D01*
X2281275Y8110778D01*
X2244293Y8110778D01*
X2244293Y8088020D01*
X2249322Y8082991D01*
X2329281Y8082991D01*
X2334310Y8088020D01*
X2334310Y8167979D01*
X2329281Y8173008D01*
G37*
G36*
X2090318Y8173008D02*
G01*
X2085289Y8167979D01*
X2085289Y8088020D01*
X2090318Y8082991D01*
X2170277Y8082991D01*
X2175306Y8088020D01*
X2175306Y8112201D01*
X2138324Y8112201D01*
X2138324Y8145221D01*
X2175306Y8145221D01*
X2175306Y8167979D01*
X2170277Y8173008D01*
G37*
G36*
X2890418Y8173008D02*
G01*
X2885389Y8167979D01*
X2885389Y8088020D01*
X2890418Y8082991D01*
X2970377Y8082991D01*
X2975406Y8088020D01*
X2975406Y8112201D01*
X2938424Y8112201D01*
X2938424Y8145221D01*
X2975406Y8145221D01*
X2975406Y8167979D01*
X2970377Y8173008D01*
G37*
G36*
X3049422Y8173008D02*
G01*
X3044393Y8167979D01*
X3044393Y8143798D01*
X3081375Y8143798D01*
X3081375Y8110778D01*
X3044393Y8110778D01*
X3044393Y8088020D01*
X3049422Y8082991D01*
X3129381Y8082991D01*
X3134410Y8088020D01*
X3134410Y8167979D01*
X3129381Y8173008D01*
G37*
M02*
