G04 Layer: TopLayer*
G04 EasyEDA v6.5.48, 2025-01-19 19:24:15*
G04 93f84cf920734f188c47773e0b6923d2,3cbab8949a5742979101216bdbeae448,10*
G04 Gerber Generator version 0.2*
G04 Scale: 100 percent, Rotated: No, Reflected: No *
G04 Dimensions in millimeters *
G04 leading zeros omitted , absolute positions ,4 integer and 5 decimal *
%FSLAX45Y45*%
%MOMM*%

%ADD10C,0.2540*%
%ADD11O,1.499997X3.6999926000000003*%
%ADD12O,3.7999924X1.499997*%
%ADD13C,1.1999*%
%ADD14C,2.5000*%
%ADD15O,1.499997X1.1999976*%
%ADD16C,1.5000*%
%ADD17C,1.5240*%
%ADD18C,1.6000*%
%ADD19R,1.5748X1.5748*%
%ADD20C,1.5748*%
%ADD21R,1.5200X1.5200*%
%ADD22C,1.5200*%
%ADD23C,2.5400*%
%ADD24C,2.0000*%
%ADD25R,2.0000X2.0000*%
%ADD26C,0.6100*%
%ADD27C,0.0110*%

%LPD*%
G36*
X3886809Y5696508D02*
G01*
X3882694Y5697372D01*
X3879291Y5699861D01*
X3875379Y5704179D01*
X3860800Y5717387D01*
X3845001Y5729122D01*
X3828135Y5739231D01*
X3812082Y5746800D01*
X3808679Y5749442D01*
X3806647Y5753201D01*
X3806393Y5757519D01*
X3807917Y5761532D01*
X3811015Y5764580D01*
X3815384Y5767374D01*
X3826814Y5776010D01*
X3829710Y5777585D01*
X3832961Y5778093D01*
X4181652Y5778093D01*
X4185412Y5777382D01*
X4188663Y5775248D01*
X4194200Y5769965D01*
X4196334Y5766968D01*
X4197299Y5763361D01*
X4196842Y5759704D01*
X4195165Y5756402D01*
X4192371Y5753912D01*
X4185818Y5750001D01*
X4170019Y5738266D01*
X4155440Y5725058D01*
X4142232Y5710478D01*
X4134865Y5700623D01*
X4132630Y5698388D01*
X4129836Y5697016D01*
X4126737Y5696508D01*
G37*

%LPD*%
G36*
X7221423Y5686907D02*
G01*
X7216952Y5687923D01*
X7213142Y5690260D01*
X7211314Y5692546D01*
X7203897Y5704840D01*
X7192162Y5720638D01*
X7178954Y5735218D01*
X7164374Y5748426D01*
X7149134Y5759754D01*
X7146340Y5762904D01*
X7145070Y5766917D01*
X7145528Y5771134D01*
X7147661Y5774740D01*
X7151065Y5777230D01*
X7155180Y5778093D01*
X7374483Y5778093D01*
X7378293Y5777331D01*
X7381544Y5775248D01*
X7383780Y5772048D01*
X7474458Y5772048D01*
X7477912Y5771438D01*
X7480960Y5769711D01*
X7490917Y5761482D01*
X7505090Y5751626D01*
X7507986Y5748578D01*
X7509357Y5744565D01*
X7509002Y5740349D01*
X7506970Y5736640D01*
X7503617Y5734100D01*
X7487564Y5726531D01*
X7470698Y5716422D01*
X7454900Y5704687D01*
X7440320Y5691479D01*
X7439202Y5690260D01*
X7435799Y5687771D01*
X7431684Y5686907D01*
G37*

%LPD*%
G36*
X1750110Y3581450D02*
G01*
X1746199Y3582212D01*
X1742897Y3584397D01*
X1740662Y3587699D01*
X1739900Y3591610D01*
X1739900Y5583783D01*
X1740662Y5587695D01*
X1742897Y5590997D01*
X1981250Y5829350D01*
X1984451Y5831535D01*
X1988210Y5832348D01*
X1998573Y5832551D01*
X2021636Y5834989D01*
X2044395Y5839307D01*
X2066696Y5845556D01*
X2088438Y5853633D01*
X2109368Y5863488D01*
X2129485Y5875070D01*
X2148484Y5888278D01*
X2166366Y5903061D01*
X2182926Y5919266D01*
X2198065Y5936843D01*
X2211679Y5955588D01*
X2223668Y5975400D01*
X2233980Y5996178D01*
X2242515Y6017717D01*
X2249220Y6039866D01*
X2254046Y6062573D01*
X2256129Y6079083D01*
X2257044Y6082284D01*
X2259025Y6084976D01*
X2495854Y6321806D01*
X2499106Y6323990D01*
X2502966Y6324803D01*
X2783738Y6326784D01*
X2787700Y6326022D01*
X2791053Y6323736D01*
X2793288Y6320332D01*
X2793949Y6316319D01*
X2792984Y6312357D01*
X2790596Y6309106D01*
X2787599Y6306413D01*
X2771749Y6289497D01*
X2757322Y6271361D01*
X2744520Y6252057D01*
X2733344Y6231737D01*
X2723946Y6210554D01*
X2716326Y6188659D01*
X2710535Y6166205D01*
X2706674Y6143396D01*
X2704744Y6120282D01*
X2704744Y6097117D01*
X2706674Y6074003D01*
X2710535Y6051194D01*
X2716326Y6028740D01*
X2723946Y6006846D01*
X2733344Y5985662D01*
X2744520Y5965342D01*
X2757322Y5946038D01*
X2771749Y5927902D01*
X2787599Y5910986D01*
X2804820Y5895492D01*
X2823260Y5881471D01*
X2842869Y5869076D01*
X2863392Y5858357D01*
X2884728Y5849366D01*
X2906776Y5842203D01*
X2929331Y5836920D01*
X2952292Y5833516D01*
X2975406Y5832043D01*
X2998571Y5832551D01*
X3021634Y5834989D01*
X3044393Y5839307D01*
X3066694Y5845556D01*
X3088436Y5853633D01*
X3109366Y5863488D01*
X3129483Y5875070D01*
X3148482Y5888278D01*
X3166364Y5903061D01*
X3182924Y5919266D01*
X3198063Y5936843D01*
X3211677Y5955588D01*
X3223666Y5975400D01*
X3233978Y5996178D01*
X3242513Y6017717D01*
X3249218Y6039866D01*
X3254044Y6062573D01*
X3256940Y6085535D01*
X3257905Y6108700D01*
X3256940Y6131864D01*
X3254044Y6154826D01*
X3249218Y6177534D01*
X3242513Y6199682D01*
X3233978Y6221222D01*
X3223666Y6241999D01*
X3211677Y6261811D01*
X3198063Y6280556D01*
X3182924Y6298133D01*
X3168548Y6312154D01*
X3166313Y6315456D01*
X3165500Y6319316D01*
X3166211Y6323228D01*
X3168396Y6326581D01*
X3171698Y6328765D01*
X3175558Y6329578D01*
X3380232Y6331051D01*
X3383940Y6330391D01*
X3387140Y6328410D01*
X3389426Y6325362D01*
X3390442Y6321704D01*
X3389782Y6317183D01*
X3384956Y6294526D01*
X3382060Y6271514D01*
X3381095Y6248400D01*
X3382060Y6225286D01*
X3384956Y6202273D01*
X3389782Y6179616D01*
X3396487Y6157468D01*
X3405022Y6135928D01*
X3410000Y6125921D01*
X3410915Y6122974D01*
X3410915Y6119825D01*
X3410000Y6116878D01*
X3405022Y6106871D01*
X3396487Y6085332D01*
X3389782Y6063183D01*
X3384956Y6040526D01*
X3382060Y6017514D01*
X3381095Y5994400D01*
X3382060Y5971286D01*
X3384956Y5948273D01*
X3389782Y5925616D01*
X3396487Y5903468D01*
X3405022Y5881928D01*
X3410000Y5871921D01*
X3410915Y5868974D01*
X3410915Y5865825D01*
X3410000Y5862878D01*
X3405022Y5852871D01*
X3396487Y5831332D01*
X3389782Y5809183D01*
X3384956Y5786526D01*
X3384753Y5784748D01*
X3473958Y5784748D01*
X3477412Y5784138D01*
X3480460Y5782411D01*
X3490417Y5774182D01*
X3504590Y5764326D01*
X3507486Y5761278D01*
X3508857Y5757265D01*
X3508501Y5753049D01*
X3506470Y5749340D01*
X3503117Y5746800D01*
X3487064Y5739231D01*
X3470198Y5729122D01*
X3454400Y5717387D01*
X3439820Y5704179D01*
X3435502Y5699404D01*
X3432098Y5696915D01*
X3427984Y5696051D01*
X3384753Y5696051D01*
X3384956Y5694273D01*
X3389782Y5671616D01*
X3396487Y5649468D01*
X3397758Y5643981D01*
X3396386Y5639104D01*
X3389731Y5620613D01*
X3384956Y5601512D01*
X3382060Y5582056D01*
X3381095Y5562142D01*
X3381095Y5410657D01*
X3382060Y5390743D01*
X3384956Y5371287D01*
X3389731Y5352186D01*
X3396386Y5333695D01*
X3404768Y5315864D01*
X3414877Y5298998D01*
X3426612Y5283200D01*
X3439820Y5268620D01*
X3454400Y5255412D01*
X3470198Y5243677D01*
X3487064Y5233568D01*
X3504895Y5225186D01*
X3523386Y5218531D01*
X3528161Y5216499D01*
X3530854Y5213451D01*
X3532124Y5209590D01*
X3531768Y5205577D01*
X3529888Y5201970D01*
X3526739Y5199380D01*
X3518001Y5194808D01*
X3498240Y5182311D01*
X3479596Y5168138D01*
X3462223Y5152491D01*
X3446221Y5135473D01*
X3431692Y5117134D01*
X3418738Y5097678D01*
X3407460Y5077155D01*
X3397961Y5055819D01*
X3390290Y5033721D01*
X3384448Y5011064D01*
X3380587Y4988001D01*
X3378606Y4964684D01*
X3378606Y4941316D01*
X3380587Y4917998D01*
X3384448Y4894935D01*
X3390290Y4872278D01*
X3393897Y4861864D01*
X3394456Y4858461D01*
X3393897Y4855108D01*
X3386988Y4835956D01*
X3382213Y4816856D01*
X3379317Y4797399D01*
X3378352Y4777486D01*
X3378352Y4620514D01*
X3379317Y4600600D01*
X3382213Y4581144D01*
X3386988Y4562043D01*
X3393643Y4543552D01*
X3402025Y4525772D01*
X3412134Y4508855D01*
X3423869Y4493056D01*
X3437077Y4478477D01*
X3451656Y4465269D01*
X3467455Y4453534D01*
X3484372Y4443425D01*
X3502151Y4435043D01*
X3520643Y4428388D01*
X3539744Y4423613D01*
X3559200Y4420717D01*
X3579114Y4419752D01*
X3736086Y4419752D01*
X3755999Y4420717D01*
X3775456Y4423613D01*
X3791864Y4427728D01*
X3795318Y4427982D01*
X3798671Y4427067D01*
X3801516Y4425035D01*
X3961231Y4265422D01*
X3972864Y4255058D01*
X3976522Y4252112D01*
X3989120Y4242917D01*
X3993032Y4240326D01*
X4006443Y4232402D01*
X4010609Y4230166D01*
X4024731Y4223562D01*
X4029049Y4221734D01*
X4043730Y4216450D01*
X4048251Y4215079D01*
X4063339Y4211218D01*
X4067962Y4210304D01*
X4083354Y4207865D01*
X4088028Y4207357D01*
X4103573Y4206443D01*
X7643418Y4206392D01*
X7646670Y4205884D01*
X7649565Y4204309D01*
X7665262Y4192371D01*
X7684871Y4179976D01*
X7705394Y4169257D01*
X7726730Y4160265D01*
X7748778Y4153103D01*
X7771333Y4147820D01*
X7793990Y4144467D01*
X7797088Y4143501D01*
X7799679Y4141571D01*
X7851597Y4089755D01*
X7863230Y4079443D01*
X7866888Y4076496D01*
X7879486Y4067301D01*
X7883398Y4064711D01*
X7896809Y4056735D01*
X7900974Y4054551D01*
X7915097Y4047896D01*
X7919415Y4046118D01*
X7934096Y4040835D01*
X7938617Y4039463D01*
X7953705Y4035602D01*
X7958328Y4034637D01*
X7973720Y4032250D01*
X7978394Y4031742D01*
X7993938Y4030827D01*
X10040061Y4030827D01*
X10055606Y4031742D01*
X10060279Y4032250D01*
X10075672Y4034637D01*
X10080294Y4035602D01*
X10095382Y4039463D01*
X10099903Y4040835D01*
X10114584Y4046118D01*
X10118902Y4047896D01*
X10133025Y4054551D01*
X10137190Y4056735D01*
X10150602Y4064711D01*
X10154513Y4067301D01*
X10167112Y4076496D01*
X10170769Y4079443D01*
X10182402Y4089755D01*
X10221874Y4129125D01*
X10224668Y4131106D01*
X10227970Y4132072D01*
X10238536Y4133189D01*
X10261295Y4137507D01*
X10283596Y4143756D01*
X10305338Y4151833D01*
X10326268Y4161688D01*
X10346385Y4173270D01*
X10365384Y4186478D01*
X10383266Y4201261D01*
X10399826Y4217466D01*
X10414965Y4235043D01*
X10428579Y4253788D01*
X10440568Y4273600D01*
X10450880Y4294378D01*
X10459415Y4315917D01*
X10466120Y4338066D01*
X10470946Y4360773D01*
X10473842Y4383735D01*
X10474807Y4406900D01*
X10473842Y4430064D01*
X10470946Y4453026D01*
X10466120Y4475734D01*
X10459415Y4497882D01*
X10450880Y4519422D01*
X10440568Y4540199D01*
X10428579Y4560011D01*
X10414965Y4578756D01*
X10399826Y4596333D01*
X10383266Y4612538D01*
X10365384Y4627321D01*
X10346385Y4640529D01*
X10326268Y4652111D01*
X10305338Y4661966D01*
X10283596Y4670044D01*
X10261295Y4676292D01*
X10238536Y4680610D01*
X10215473Y4683048D01*
X10192308Y4683556D01*
X10169194Y4682083D01*
X10146233Y4678680D01*
X10123678Y4673396D01*
X10101630Y4666234D01*
X10080294Y4657242D01*
X10059771Y4646523D01*
X10052913Y4642205D01*
X10049764Y4640884D01*
X10046360Y4640681D01*
X10043058Y4641596D01*
X10040264Y4643577D01*
X10032492Y4651349D01*
X10014762Y4666335D01*
X9995916Y4679848D01*
X9976002Y4691684D01*
X9955174Y4701895D01*
X9933584Y4710277D01*
X9911334Y4716932D01*
X9888677Y4721656D01*
X9865664Y4724552D01*
X9842500Y4725517D01*
X9819335Y4724552D01*
X9796322Y4721656D01*
X9773666Y4716932D01*
X9751415Y4710277D01*
X9729825Y4701895D01*
X9708997Y4691684D01*
X9689084Y4679848D01*
X9670237Y4666335D01*
X9652508Y4651349D01*
X9638487Y4637379D01*
X9635286Y4635195D01*
X9631476Y4634382D01*
X9627666Y4635042D01*
X9624364Y4637125D01*
X9618624Y4642510D01*
X9600996Y4656378D01*
X9582251Y4668723D01*
X9562541Y4679340D01*
X9541967Y4688281D01*
X9520732Y4695342D01*
X9498939Y4700625D01*
X9476790Y4703978D01*
X9454388Y4705451D01*
X9431985Y4704943D01*
X9409734Y4702556D01*
X9387738Y4698238D01*
X9366199Y4692040D01*
X9345218Y4684014D01*
X9325102Y4674260D01*
X9314484Y4667910D01*
X9310928Y4666640D01*
X9307169Y4666691D01*
X9302851Y4668723D01*
X9283141Y4679340D01*
X9262567Y4688281D01*
X9241332Y4695342D01*
X9219539Y4700625D01*
X9197390Y4703978D01*
X9174988Y4705451D01*
X9158833Y4705096D01*
X9154922Y4705807D01*
X9151569Y4707940D01*
X9149283Y4711242D01*
X9148470Y4715154D01*
X9149232Y4719116D01*
X9151467Y4722418D01*
X9552533Y5123484D01*
X9555226Y5125415D01*
X9558426Y5126380D01*
X9571329Y5128056D01*
X9592919Y5132730D01*
X9614103Y5139182D01*
X9634575Y5147411D01*
X9654336Y5157368D01*
X9673183Y5168950D01*
X9690963Y5182108D01*
X9707524Y5196738D01*
X9714331Y5203850D01*
X9717836Y5206187D01*
X9722053Y5206949D01*
X9726168Y5205933D01*
X9729825Y5204104D01*
X9751415Y5195722D01*
X9773666Y5189067D01*
X9796322Y5184343D01*
X9819335Y5181447D01*
X9842500Y5180482D01*
X9865664Y5181447D01*
X9888677Y5184343D01*
X9911334Y5189067D01*
X9933584Y5195722D01*
X9955174Y5204104D01*
X9976002Y5214315D01*
X9995916Y5226151D01*
X10014762Y5239664D01*
X10032492Y5254650D01*
X10048849Y5271008D01*
X10063835Y5288737D01*
X10077348Y5307584D01*
X10089184Y5327497D01*
X10099395Y5348325D01*
X10107777Y5369915D01*
X10114432Y5392166D01*
X10119156Y5414822D01*
X10122052Y5437835D01*
X10123017Y5461000D01*
X10122052Y5484164D01*
X10119156Y5507177D01*
X10114432Y5529834D01*
X10107777Y5552084D01*
X10099395Y5573674D01*
X10089184Y5594502D01*
X10077348Y5614416D01*
X10063835Y5633262D01*
X10048849Y5650992D01*
X10032492Y5667349D01*
X10014762Y5682335D01*
X9995916Y5695848D01*
X9976002Y5707684D01*
X9955174Y5717895D01*
X9945776Y5721553D01*
X9942372Y5723686D01*
X9940137Y5726988D01*
X9939274Y5730900D01*
X9940036Y5734812D01*
X9942220Y5738164D01*
X9945522Y5740400D01*
X9959797Y5746394D01*
X9963505Y5748324D01*
X9966452Y5749340D01*
X9969550Y5749391D01*
X9972548Y5748528D01*
X9989718Y5740450D01*
X10011359Y5732373D01*
X10033609Y5726176D01*
X10052659Y5722569D01*
X10052659Y5814110D01*
X10053218Y5817463D01*
X10054844Y5820460D01*
X10065359Y5833719D01*
X10078161Y5852972D01*
X10089286Y5873191D01*
X10098633Y5894273D01*
X10106253Y5916015D01*
X10111994Y5938367D01*
X10115804Y5961126D01*
X10117734Y5984138D01*
X10117734Y6007201D01*
X10115804Y6030214D01*
X10111994Y6052921D01*
X10106253Y6075273D01*
X10098633Y6097066D01*
X10089286Y6118148D01*
X10078161Y6138367D01*
X10065359Y6157620D01*
X10054844Y6170879D01*
X10053218Y6173876D01*
X10052659Y6177229D01*
X10052659Y6266281D01*
X10033609Y6262624D01*
X10011359Y6256426D01*
X9989718Y6248349D01*
X9975088Y6241491D01*
X9972090Y6240627D01*
X9968992Y6240678D01*
X9966045Y6241694D01*
X9959797Y6244945D01*
X9938512Y6253886D01*
X9916566Y6260998D01*
X9894112Y6266281D01*
X9871303Y6269634D01*
X9848291Y6271107D01*
X9825177Y6270599D01*
X9802266Y6268212D01*
X9779609Y6263894D01*
X9757359Y6257696D01*
X9735718Y6249619D01*
X9718548Y6241542D01*
X9715550Y6240678D01*
X9712452Y6240729D01*
X9709505Y6241745D01*
X9705797Y6243675D01*
X9684512Y6252616D01*
X9662566Y6259728D01*
X9640112Y6265011D01*
X9617303Y6268364D01*
X9594291Y6269837D01*
X9571177Y6269329D01*
X9548266Y6266942D01*
X9525609Y6262624D01*
X9503359Y6256426D01*
X9481718Y6248349D01*
X9460839Y6238544D01*
X9440875Y6227013D01*
X9421926Y6213856D01*
X9404146Y6199124D01*
X9387687Y6182969D01*
X9372600Y6165545D01*
X9359036Y6146850D01*
X9347098Y6127140D01*
X9336836Y6106464D01*
X9328302Y6085027D01*
X9321647Y6062929D01*
X9316872Y6040323D01*
X9313976Y6017463D01*
X9313011Y5993434D01*
X9312148Y5989777D01*
X9310014Y5986678D01*
X9031884Y5708548D01*
X9028328Y5706211D01*
X9024162Y5705551D01*
X9020048Y5706668D01*
X9016796Y5709361D01*
X9014866Y5713171D01*
X9014358Y5715101D01*
X9006992Y5735929D01*
X8997899Y5756097D01*
X8987129Y5775401D01*
X8974734Y5793689D01*
X8960866Y5810910D01*
X8945524Y5826861D01*
X8928963Y5841492D01*
X8911183Y5854649D01*
X8892336Y5866231D01*
X8872575Y5876188D01*
X8852103Y5884418D01*
X8830919Y5890869D01*
X8809329Y5895543D01*
X8787384Y5898337D01*
X8765082Y5899302D01*
X8735517Y5899302D01*
X8732266Y5899150D01*
X8728557Y5899708D01*
X8725255Y5901588D01*
X8722918Y5904484D01*
X8721750Y5908090D01*
X8722004Y5911850D01*
X8725509Y5925515D01*
X8729929Y5950356D01*
X8732367Y5975451D01*
X8732824Y6000699D01*
X8731351Y6025896D01*
X8727948Y6050940D01*
X8722614Y6075578D01*
X8715349Y6099759D01*
X8706256Y6123330D01*
X8695385Y6146088D01*
X8682786Y6167932D01*
X8668512Y6188760D01*
X8652662Y6208420D01*
X8635339Y6226759D01*
X8616645Y6243726D01*
X8596680Y6259220D01*
X8575598Y6273088D01*
X8553500Y6285280D01*
X8530488Y6295745D01*
X8506764Y6304381D01*
X8482482Y6311138D01*
X8457692Y6316014D01*
X8432647Y6318910D01*
X8407400Y6319875D01*
X8382152Y6318910D01*
X8357108Y6316014D01*
X8332317Y6311138D01*
X8308035Y6304381D01*
X8284311Y6295745D01*
X8261299Y6285280D01*
X8239201Y6273088D01*
X8218119Y6259220D01*
X8198154Y6243726D01*
X8179460Y6226759D01*
X8162137Y6208420D01*
X8146288Y6188760D01*
X8132013Y6167932D01*
X8119414Y6146088D01*
X8108543Y6123330D01*
X8099450Y6099759D01*
X8092186Y6075578D01*
X8086852Y6050940D01*
X8083448Y6025896D01*
X8081975Y6000699D01*
X8082432Y5975451D01*
X8084870Y5950356D01*
X8089290Y5925515D01*
X8095589Y5901029D01*
X8103768Y5877153D01*
X8113725Y5853988D01*
X8125510Y5831636D01*
X8138972Y5810300D01*
X8154060Y5790031D01*
X8170621Y5771032D01*
X8188655Y5753354D01*
X8208009Y5737148D01*
X8228533Y5722467D01*
X8250123Y5709412D01*
X8272729Y5698083D01*
X8296097Y5688533D01*
X8320125Y5680811D01*
X8344662Y5675020D01*
X8369604Y5671108D01*
X8394801Y5669127D01*
X8419998Y5669127D01*
X8445195Y5671108D01*
X8464499Y5674106D01*
X8468156Y5674004D01*
X8471509Y5672632D01*
X8474202Y5670143D01*
X8475827Y5666841D01*
X8476183Y5663234D01*
X8475014Y5649874D01*
X8475014Y5627725D01*
X8476640Y5609031D01*
X8476132Y5604865D01*
X8473998Y5601309D01*
X8470595Y5598871D01*
X8466531Y5598007D01*
X8102092Y5597956D01*
X8086547Y5597042D01*
X8081873Y5596534D01*
X8066481Y5594096D01*
X8061858Y5593181D01*
X8046770Y5589320D01*
X8042249Y5587949D01*
X8027568Y5582666D01*
X8023250Y5580837D01*
X8009128Y5574233D01*
X8004962Y5571998D01*
X7991551Y5564073D01*
X7987639Y5561482D01*
X7975041Y5552287D01*
X7971383Y5549341D01*
X7959750Y5538978D01*
X7951927Y5531256D01*
X7948625Y5529072D01*
X7944713Y5528310D01*
X7940852Y5529072D01*
X7937550Y5531307D01*
X7935366Y5534558D01*
X7934604Y5538470D01*
X7934604Y5549442D01*
X7933639Y5569356D01*
X7930743Y5588812D01*
X7925968Y5607913D01*
X7919313Y5626404D01*
X7917840Y5631332D01*
X7918399Y5635193D01*
X7922818Y5647791D01*
X7928559Y5670194D01*
X7930794Y5683351D01*
X7887716Y5683351D01*
X7883601Y5684215D01*
X7880197Y5686704D01*
X7875879Y5691479D01*
X7861300Y5704687D01*
X7845501Y5716422D01*
X7828635Y5726531D01*
X7812582Y5734100D01*
X7809179Y5736742D01*
X7807147Y5740501D01*
X7806893Y5744819D01*
X7808417Y5748832D01*
X7811516Y5751880D01*
X7815884Y5754674D01*
X7834325Y5768644D01*
X7838389Y5771388D01*
X7841996Y5772048D01*
X7930794Y5772048D01*
X7928559Y5785205D01*
X7922818Y5807608D01*
X7915198Y5829503D01*
X7905800Y5850585D01*
X7904937Y5854700D01*
X7905800Y5858814D01*
X7915198Y5879896D01*
X7922818Y5901791D01*
X7928559Y5924194D01*
X7932420Y5947054D01*
X7934350Y5970117D01*
X7934350Y5993282D01*
X7932420Y6016345D01*
X7928559Y6039205D01*
X7922818Y6061608D01*
X7915198Y6083503D01*
X7905800Y6104585D01*
X7904937Y6108700D01*
X7905800Y6112814D01*
X7915198Y6133896D01*
X7922818Y6155791D01*
X7928559Y6178194D01*
X7932420Y6201054D01*
X7934350Y6224117D01*
X7934350Y6247282D01*
X7932420Y6270345D01*
X7928559Y6293205D01*
X7922818Y6315608D01*
X7915198Y6337503D01*
X7905800Y6358585D01*
X7904937Y6362700D01*
X7905800Y6366814D01*
X7915198Y6387896D01*
X7922818Y6409791D01*
X7928559Y6432194D01*
X7932420Y6455054D01*
X7934350Y6478117D01*
X7934350Y6501282D01*
X7932420Y6524345D01*
X7928559Y6547205D01*
X7922818Y6569608D01*
X7915198Y6591503D01*
X7905800Y6612585D01*
X7904937Y6616700D01*
X7905800Y6620814D01*
X7915198Y6641896D01*
X7922818Y6663791D01*
X7928559Y6686194D01*
X7932420Y6709054D01*
X7934350Y6732117D01*
X7934350Y6755282D01*
X7932420Y6778345D01*
X7928559Y6801205D01*
X7922818Y6823608D01*
X7915198Y6845503D01*
X7905800Y6866585D01*
X7904937Y6870700D01*
X7905800Y6874814D01*
X7915198Y6895896D01*
X7922818Y6917791D01*
X7928559Y6940194D01*
X7932420Y6963054D01*
X7934350Y6986117D01*
X7934350Y7009282D01*
X7932420Y7032345D01*
X7928559Y7055205D01*
X7922818Y7077608D01*
X7915198Y7099503D01*
X7905800Y7120585D01*
X7904937Y7124700D01*
X7905800Y7128814D01*
X7915198Y7149896D01*
X7922818Y7171791D01*
X7928559Y7194194D01*
X7932420Y7217054D01*
X7934350Y7240117D01*
X7934350Y7263282D01*
X7932420Y7286345D01*
X7928559Y7309205D01*
X7922818Y7331608D01*
X7915198Y7353503D01*
X7905800Y7374585D01*
X7904937Y7378700D01*
X7905800Y7382814D01*
X7915198Y7403896D01*
X7922818Y7425791D01*
X7928559Y7448194D01*
X7932420Y7471054D01*
X7934350Y7494117D01*
X7934350Y7517282D01*
X7932420Y7540345D01*
X7928559Y7563205D01*
X7922818Y7585608D01*
X7915198Y7607503D01*
X7905800Y7628585D01*
X7904937Y7632700D01*
X7905800Y7636814D01*
X7915198Y7657896D01*
X7922818Y7679791D01*
X7928559Y7702194D01*
X7932420Y7725054D01*
X7934350Y7748117D01*
X7934350Y7771282D01*
X7932420Y7794345D01*
X7928559Y7817205D01*
X7922818Y7839608D01*
X7915198Y7861503D01*
X7905800Y7882585D01*
X7904937Y7886700D01*
X7905800Y7890814D01*
X7915198Y7911896D01*
X7922818Y7933791D01*
X7928559Y7956194D01*
X7932420Y7979054D01*
X7934350Y8002117D01*
X7934350Y8025282D01*
X7932420Y8048345D01*
X7928559Y8071205D01*
X7922818Y8093608D01*
X7915198Y8115503D01*
X7905800Y8136585D01*
X7904937Y8140700D01*
X7905800Y8144814D01*
X7915198Y8165896D01*
X7922818Y8187791D01*
X7928559Y8210194D01*
X7932420Y8233054D01*
X7934350Y8256117D01*
X7934350Y8279282D01*
X7932420Y8302345D01*
X7928559Y8325205D01*
X7922818Y8347608D01*
X7915198Y8369503D01*
X7905800Y8390585D01*
X7904937Y8394700D01*
X7905800Y8398814D01*
X7915198Y8419896D01*
X7922818Y8441791D01*
X7928559Y8464194D01*
X7932420Y8487054D01*
X7934350Y8510117D01*
X7934350Y8533282D01*
X7932420Y8556345D01*
X7928559Y8579205D01*
X7922818Y8601608D01*
X7915198Y8623503D01*
X7905800Y8644585D01*
X7904937Y8648700D01*
X7905800Y8652814D01*
X7915198Y8673896D01*
X7922818Y8695791D01*
X7928559Y8718194D01*
X7932420Y8741054D01*
X7934350Y8764117D01*
X7934350Y8787282D01*
X7932420Y8810345D01*
X7928559Y8833205D01*
X7922818Y8855608D01*
X7915198Y8877503D01*
X7905800Y8898585D01*
X7904937Y8902700D01*
X7905800Y8906814D01*
X7915198Y8927896D01*
X7922818Y8949791D01*
X7928559Y8972194D01*
X7932420Y8995054D01*
X7934350Y9018117D01*
X7934350Y9041282D01*
X7932420Y9064345D01*
X7928559Y9087205D01*
X7922818Y9109608D01*
X7915198Y9131503D01*
X7905750Y9152636D01*
X7894624Y9172956D01*
X7881772Y9192209D01*
X7867396Y9210344D01*
X7851546Y9227261D01*
X7834325Y9242755D01*
X7815884Y9256725D01*
X7796326Y9269171D01*
X7775803Y9279890D01*
X7754467Y9288881D01*
X7732471Y9295993D01*
X7709916Y9301276D01*
X7687005Y9304680D01*
X7663891Y9306153D01*
X7640726Y9305645D01*
X7617714Y9303207D01*
X7594955Y9298889D01*
X7572654Y9292640D01*
X7550962Y9284614D01*
X7529982Y9274708D01*
X7509967Y9263176D01*
X7497216Y9254337D01*
X7494473Y9252966D01*
X7491425Y9252508D01*
X7165340Y9252508D01*
X7161580Y9253220D01*
X7158329Y9255302D01*
X7156145Y9258452D01*
X7155230Y9262160D01*
X7155738Y9265970D01*
X7162088Y9284258D01*
X7168896Y9310014D01*
X7173772Y9336176D01*
X7176719Y9362643D01*
X7177684Y9389262D01*
X7176719Y9415932D01*
X7173772Y9442399D01*
X7168896Y9468561D01*
X7162088Y9494316D01*
X7153351Y9519513D01*
X7142835Y9543999D01*
X7130491Y9567621D01*
X7116470Y9590278D01*
X7100824Y9611817D01*
X7083602Y9632137D01*
X7064959Y9651187D01*
X7044944Y9668764D01*
X7023658Y9684816D01*
X7001306Y9699244D01*
X6977888Y9711994D01*
X6953605Y9722967D01*
X6928612Y9732162D01*
X6903008Y9739426D01*
X6876897Y9744811D01*
X6850481Y9748266D01*
X6823862Y9749739D01*
X6797243Y9749231D01*
X6770725Y9746792D01*
X6744411Y9742373D01*
X6718553Y9736023D01*
X6693204Y9727793D01*
X6668566Y9717735D01*
X6644690Y9705848D01*
X6621780Y9692233D01*
X6599936Y9676993D01*
X6579311Y9660128D01*
X6559956Y9641840D01*
X6542024Y9622129D01*
X6525564Y9601200D01*
X6510680Y9579051D01*
X6497523Y9555937D01*
X6486093Y9531858D01*
X6476492Y9507016D01*
X6468719Y9481515D01*
X6462826Y9455505D01*
X6458915Y9429191D01*
X6456934Y9402622D01*
X6456934Y9375952D01*
X6458915Y9349384D01*
X6462826Y9323070D01*
X6468719Y9297060D01*
X6476492Y9271558D01*
X6486093Y9246717D01*
X6497523Y9222638D01*
X6510680Y9199524D01*
X6525564Y9177375D01*
X6542024Y9156446D01*
X6559956Y9136735D01*
X6579311Y9118447D01*
X6599936Y9101582D01*
X6621780Y9086342D01*
X6633514Y9079382D01*
X6636308Y9076893D01*
X6638036Y9073591D01*
X6638442Y9069832D01*
X6636969Y9051391D01*
X6636969Y9027210D01*
X6638899Y9003080D01*
X6642760Y8979204D01*
X6648551Y8955684D01*
X6656222Y8932722D01*
X6663232Y8916263D01*
X6664045Y8912301D01*
X6663232Y8908338D01*
X6656222Y8891879D01*
X6648551Y8868918D01*
X6642760Y8845397D01*
X6638899Y8821521D01*
X6636969Y8797391D01*
X6636969Y8773210D01*
X6638899Y8749080D01*
X6642760Y8725204D01*
X6648551Y8701684D01*
X6656222Y8678722D01*
X6663232Y8662263D01*
X6664045Y8658301D01*
X6663232Y8654338D01*
X6656222Y8637879D01*
X6648551Y8614918D01*
X6642760Y8591397D01*
X6638899Y8567521D01*
X6636969Y8543391D01*
X6636969Y8519210D01*
X6638899Y8495080D01*
X6642760Y8471204D01*
X6648551Y8447684D01*
X6656222Y8424722D01*
X6663232Y8408263D01*
X6664045Y8404301D01*
X6663232Y8400338D01*
X6656222Y8383879D01*
X6648551Y8360918D01*
X6642760Y8337397D01*
X6638899Y8313521D01*
X6636969Y8289391D01*
X6636969Y8265210D01*
X6638899Y8241080D01*
X6642760Y8217204D01*
X6648551Y8193684D01*
X6656222Y8170722D01*
X6663232Y8154263D01*
X6664045Y8150301D01*
X6663232Y8146338D01*
X6656222Y8129879D01*
X6648551Y8106918D01*
X6642760Y8083397D01*
X6638899Y8059521D01*
X6636969Y8035391D01*
X6636969Y8011210D01*
X6638899Y7987080D01*
X6642760Y7963204D01*
X6648551Y7939684D01*
X6656222Y7916722D01*
X6663232Y7900263D01*
X6664045Y7896301D01*
X6663232Y7892338D01*
X6656222Y7875879D01*
X6648551Y7852918D01*
X6642760Y7829397D01*
X6638899Y7805521D01*
X6636969Y7781391D01*
X6636969Y7757210D01*
X6638899Y7733080D01*
X6642760Y7709204D01*
X6648551Y7685684D01*
X6656222Y7662722D01*
X6663232Y7646263D01*
X6664045Y7642301D01*
X6663232Y7638338D01*
X6656222Y7621879D01*
X6648551Y7598918D01*
X6642760Y7575397D01*
X6638899Y7551521D01*
X6636969Y7527391D01*
X6636969Y7503210D01*
X6638899Y7479080D01*
X6642760Y7455204D01*
X6648551Y7431684D01*
X6656222Y7408722D01*
X6663232Y7392263D01*
X6664045Y7388301D01*
X6663232Y7384338D01*
X6656222Y7367879D01*
X6648551Y7344918D01*
X6642760Y7321397D01*
X6638899Y7297521D01*
X6636969Y7273391D01*
X6636969Y7249210D01*
X6638899Y7225080D01*
X6642760Y7201204D01*
X6648551Y7177684D01*
X6656222Y7154722D01*
X6663232Y7138263D01*
X6664045Y7134301D01*
X6663232Y7130338D01*
X6656222Y7113879D01*
X6648551Y7090918D01*
X6642760Y7067397D01*
X6638899Y7043521D01*
X6636969Y7019391D01*
X6636969Y6995210D01*
X6638899Y6971080D01*
X6642760Y6947204D01*
X6648551Y6923684D01*
X6656222Y6900722D01*
X6663232Y6884263D01*
X6664045Y6880301D01*
X6663232Y6876338D01*
X6656222Y6859879D01*
X6648551Y6836918D01*
X6642760Y6813397D01*
X6638899Y6789521D01*
X6636969Y6765391D01*
X6636969Y6741210D01*
X6638899Y6717080D01*
X6642760Y6693204D01*
X6648551Y6669684D01*
X6656222Y6646722D01*
X6663232Y6630263D01*
X6664045Y6626301D01*
X6663232Y6622338D01*
X6656222Y6605879D01*
X6648551Y6582918D01*
X6642760Y6559397D01*
X6638899Y6535521D01*
X6636969Y6511391D01*
X6636969Y6487210D01*
X6638899Y6463080D01*
X6642760Y6439204D01*
X6648551Y6415684D01*
X6656222Y6392722D01*
X6663232Y6376263D01*
X6664045Y6372301D01*
X6663232Y6368338D01*
X6656222Y6351879D01*
X6648551Y6328918D01*
X6642760Y6305397D01*
X6638899Y6281521D01*
X6636969Y6257391D01*
X6636969Y6233210D01*
X6638899Y6209080D01*
X6642760Y6185204D01*
X6648551Y6161684D01*
X6656222Y6138722D01*
X6663232Y6122263D01*
X6664045Y6118301D01*
X6663232Y6114338D01*
X6656222Y6097879D01*
X6648551Y6074918D01*
X6642760Y6051397D01*
X6638899Y6027521D01*
X6636969Y6003391D01*
X6636969Y5979210D01*
X6638899Y5955080D01*
X6642760Y5931204D01*
X6648551Y5907684D01*
X6656222Y5884722D01*
X6663232Y5868263D01*
X6664045Y5864301D01*
X6663232Y5860338D01*
X6656222Y5843879D01*
X6648551Y5820918D01*
X6642760Y5797397D01*
X6642150Y5793638D01*
X6706616Y5793638D01*
X6710781Y5792774D01*
X6714185Y5790234D01*
X6720484Y5783122D01*
X6727647Y5776214D01*
X6730085Y5772607D01*
X6730746Y5768238D01*
X6729526Y5764022D01*
X6726681Y5760720D01*
X6710019Y5748426D01*
X6695440Y5735218D01*
X6682231Y5720638D01*
X6670497Y5704840D01*
X6660388Y5687974D01*
X6657543Y5683707D01*
X6654342Y5681675D01*
X6650634Y5680964D01*
X6642150Y5680964D01*
X6642760Y5677204D01*
X6646824Y5660796D01*
X6647078Y5657850D01*
X6646519Y5654954D01*
X6645351Y5651652D01*
X6640575Y5632551D01*
X6637680Y5613095D01*
X6636715Y5593232D01*
X6636715Y5393690D01*
X6637680Y5373827D01*
X6640575Y5354370D01*
X6645351Y5335270D01*
X6651955Y5316728D01*
X6660388Y5298948D01*
X6670497Y5282082D01*
X6682231Y5266283D01*
X6695440Y5251704D01*
X6710019Y5238496D01*
X6725818Y5226761D01*
X6729933Y5224322D01*
X6733082Y5221274D01*
X6734708Y5217261D01*
X6734454Y5212892D01*
X6732422Y5209032D01*
X6728968Y5206390D01*
X6724700Y5205425D01*
X4624273Y5205425D01*
X4620158Y5206288D01*
X4616754Y5208778D01*
X4614621Y5212384D01*
X4614164Y5216601D01*
X4615434Y5220614D01*
X4618228Y5223764D01*
X4624374Y5228336D01*
X4638954Y5241544D01*
X4652162Y5256123D01*
X4663897Y5271922D01*
X4674006Y5288788D01*
X4682439Y5306568D01*
X4689043Y5325110D01*
X4693818Y5344210D01*
X4696714Y5363667D01*
X4697730Y5383530D01*
X4697730Y5583072D01*
X4696714Y5602935D01*
X4693818Y5622391D01*
X4689043Y5641492D01*
X4686401Y5648909D01*
X4685842Y5651855D01*
X4686096Y5654802D01*
X4691634Y5677204D01*
X4692243Y5680964D01*
X4677918Y5680964D01*
X4674463Y5681522D01*
X4671466Y5683250D01*
X4669180Y5685891D01*
X4663897Y5694680D01*
X4652162Y5710478D01*
X4638954Y5725058D01*
X4624374Y5738266D01*
X4608576Y5750001D01*
X4602022Y5753912D01*
X4599228Y5756402D01*
X4597552Y5759704D01*
X4597146Y5763361D01*
X4598060Y5766968D01*
X4600194Y5769965D01*
X4613910Y5783122D01*
X4620209Y5790234D01*
X4623612Y5792774D01*
X4627829Y5793638D01*
X4692243Y5793638D01*
X4691634Y5797397D01*
X4685842Y5820918D01*
X4678172Y5843879D01*
X4671161Y5860338D01*
X4670348Y5864301D01*
X4671161Y5868263D01*
X4678172Y5884722D01*
X4685842Y5907684D01*
X4691634Y5931204D01*
X4695494Y5955080D01*
X4697476Y5979210D01*
X4697476Y6003391D01*
X4695494Y6027521D01*
X4691634Y6051397D01*
X4685842Y6074918D01*
X4678172Y6097879D01*
X4671161Y6114338D01*
X4670348Y6118301D01*
X4671161Y6122263D01*
X4678172Y6138722D01*
X4685842Y6161684D01*
X4691634Y6185204D01*
X4695494Y6209080D01*
X4697476Y6233210D01*
X4697476Y6257391D01*
X4695494Y6281521D01*
X4691634Y6305397D01*
X4685842Y6328918D01*
X4678172Y6351879D01*
X4671161Y6368338D01*
X4670348Y6372301D01*
X4671161Y6376263D01*
X4678172Y6392722D01*
X4685842Y6415684D01*
X4691634Y6439204D01*
X4695494Y6463080D01*
X4697476Y6487210D01*
X4697476Y6511391D01*
X4695494Y6535521D01*
X4691634Y6559397D01*
X4685842Y6582918D01*
X4678172Y6605879D01*
X4671161Y6622338D01*
X4670348Y6626301D01*
X4671161Y6630263D01*
X4678172Y6646722D01*
X4685842Y6669684D01*
X4691634Y6693204D01*
X4695494Y6717080D01*
X4697476Y6741210D01*
X4697476Y6765391D01*
X4695494Y6789521D01*
X4691634Y6813397D01*
X4685842Y6836918D01*
X4678172Y6859879D01*
X4671161Y6876338D01*
X4670348Y6880301D01*
X4671161Y6884263D01*
X4678172Y6900722D01*
X4685842Y6923684D01*
X4691634Y6947204D01*
X4695494Y6971080D01*
X4697476Y6995210D01*
X4697476Y7019391D01*
X4695494Y7043521D01*
X4691634Y7067397D01*
X4685842Y7090918D01*
X4678172Y7113879D01*
X4671161Y7130338D01*
X4670348Y7134301D01*
X4671161Y7138263D01*
X4678172Y7154722D01*
X4685842Y7177684D01*
X4691634Y7201204D01*
X4695494Y7225080D01*
X4697476Y7249210D01*
X4697476Y7273391D01*
X4695494Y7297521D01*
X4691634Y7321397D01*
X4685842Y7344918D01*
X4678172Y7367879D01*
X4671161Y7384338D01*
X4670348Y7388301D01*
X4671161Y7392263D01*
X4678172Y7408722D01*
X4685842Y7431684D01*
X4691634Y7455204D01*
X4695494Y7479080D01*
X4697476Y7503210D01*
X4697476Y7527391D01*
X4695494Y7551521D01*
X4691634Y7575397D01*
X4685842Y7598918D01*
X4678172Y7621879D01*
X4671161Y7638338D01*
X4670348Y7642301D01*
X4671161Y7646263D01*
X4678172Y7662722D01*
X4685842Y7685684D01*
X4691634Y7709204D01*
X4695494Y7733080D01*
X4697476Y7757210D01*
X4697476Y7781391D01*
X4695494Y7805521D01*
X4691634Y7829397D01*
X4685842Y7852918D01*
X4678172Y7875879D01*
X4671161Y7892338D01*
X4670348Y7896301D01*
X4671161Y7900263D01*
X4678172Y7916722D01*
X4685842Y7939684D01*
X4691634Y7963204D01*
X4695494Y7987080D01*
X4697476Y8011210D01*
X4697476Y8035391D01*
X4695494Y8059521D01*
X4691634Y8083397D01*
X4685842Y8106918D01*
X4678172Y8129879D01*
X4671161Y8146338D01*
X4670348Y8150301D01*
X4671161Y8154263D01*
X4678172Y8170722D01*
X4685842Y8193684D01*
X4691634Y8217204D01*
X4695494Y8241080D01*
X4697476Y8265210D01*
X4697476Y8289391D01*
X4695494Y8313521D01*
X4691634Y8337397D01*
X4685842Y8360918D01*
X4678172Y8383879D01*
X4671161Y8400338D01*
X4670348Y8404301D01*
X4671161Y8408263D01*
X4678172Y8424722D01*
X4685842Y8447684D01*
X4691634Y8471204D01*
X4695494Y8495080D01*
X4697476Y8519210D01*
X4697476Y8543391D01*
X4695494Y8567521D01*
X4691634Y8591397D01*
X4685842Y8614918D01*
X4678172Y8637879D01*
X4671161Y8654338D01*
X4670348Y8658301D01*
X4671161Y8662263D01*
X4678172Y8678722D01*
X4685842Y8701684D01*
X4691634Y8725204D01*
X4695494Y8749080D01*
X4697476Y8773210D01*
X4697476Y8797391D01*
X4695494Y8821521D01*
X4691634Y8845397D01*
X4685842Y8868918D01*
X4678172Y8891879D01*
X4671161Y8908338D01*
X4670348Y8912301D01*
X4671161Y8916263D01*
X4678172Y8932722D01*
X4685842Y8955684D01*
X4691634Y8979204D01*
X4695494Y9003080D01*
X4697476Y9027210D01*
X4697476Y9051391D01*
X4696002Y9069578D01*
X4696358Y9073184D01*
X4697984Y9076436D01*
X4700625Y9078925D01*
X4723688Y9093758D01*
X4744923Y9109811D01*
X4764938Y9127388D01*
X4783632Y9146438D01*
X4800854Y9166758D01*
X4816500Y9188297D01*
X4830521Y9210954D01*
X4842814Y9234576D01*
X4853381Y9259062D01*
X4862068Y9284258D01*
X4868875Y9310014D01*
X4873802Y9336176D01*
X4876749Y9362643D01*
X4877714Y9389262D01*
X4877562Y9393326D01*
X4878171Y9397187D01*
X4880203Y9400540D01*
X5292852Y9851898D01*
X5296306Y9854336D01*
X5300421Y9855200D01*
X12753390Y9817150D01*
X12757251Y9816338D01*
X12760553Y9814153D01*
X12762738Y9810851D01*
X12763500Y9806990D01*
X12763500Y9727742D01*
X12762585Y9723577D01*
X12760045Y9720122D01*
X12756286Y9718040D01*
X12751968Y9717684D01*
X12747955Y9719157D01*
X12735560Y9726930D01*
X12712395Y9739172D01*
X12688366Y9749688D01*
X12663627Y9758324D01*
X12638278Y9765131D01*
X12612522Y9770008D01*
X12586512Y9772904D01*
X12560300Y9773920D01*
X12534087Y9772904D01*
X12508077Y9770008D01*
X12482322Y9765131D01*
X12456972Y9758324D01*
X12432233Y9749688D01*
X12408204Y9739172D01*
X12385040Y9726930D01*
X12362840Y9713010D01*
X12341758Y9697415D01*
X12321895Y9680346D01*
X12303353Y9661804D01*
X12286284Y9641941D01*
X12270689Y9620859D01*
X12256770Y9598660D01*
X12244527Y9575495D01*
X12234011Y9551466D01*
X12225375Y9526727D01*
X12218568Y9501378D01*
X12213691Y9475622D01*
X12210796Y9449612D01*
X12209780Y9423400D01*
X12210796Y9397187D01*
X12213691Y9371177D01*
X12218568Y9345422D01*
X12225375Y9320072D01*
X12234011Y9295333D01*
X12244527Y9271304D01*
X12256770Y9248140D01*
X12270689Y9225940D01*
X12286284Y9204858D01*
X12303353Y9184995D01*
X12321895Y9166453D01*
X12341758Y9149384D01*
X12362840Y9133789D01*
X12385040Y9119870D01*
X12408204Y9107627D01*
X12432233Y9097111D01*
X12456972Y9088475D01*
X12482322Y9081668D01*
X12508077Y9076791D01*
X12534087Y9073896D01*
X12560300Y9072880D01*
X12586512Y9073896D01*
X12612522Y9076791D01*
X12638278Y9081668D01*
X12663627Y9088475D01*
X12688366Y9097111D01*
X12712395Y9107627D01*
X12735560Y9119870D01*
X12747955Y9127642D01*
X12751968Y9129115D01*
X12756286Y9128760D01*
X12760045Y9126677D01*
X12762585Y9123222D01*
X12763500Y9119057D01*
X12763500Y4299915D01*
X12762534Y4295597D01*
X12759791Y4292092D01*
X12755829Y4290060D01*
X12751358Y4289958D01*
X12747294Y4291736D01*
X12732359Y4302810D01*
X12710160Y4316730D01*
X12686995Y4328972D01*
X12662966Y4339488D01*
X12638227Y4348124D01*
X12612878Y4354931D01*
X12587122Y4359808D01*
X12561112Y4362704D01*
X12534900Y4363720D01*
X12508687Y4362704D01*
X12492380Y4360875D01*
X12488570Y4361180D01*
X12485166Y4362856D01*
X12482576Y4365650D01*
X12481204Y4369257D01*
X12481356Y4373422D01*
X12484252Y4396435D01*
X12485217Y4419600D01*
X12484252Y4442764D01*
X12481356Y4465777D01*
X12476632Y4488434D01*
X12469977Y4510684D01*
X12461595Y4532274D01*
X12451384Y4553102D01*
X12439548Y4573016D01*
X12426035Y4591862D01*
X12413437Y4606747D01*
X12411354Y4610912D01*
X12409220Y4619548D01*
X12407849Y4624070D01*
X12402566Y4638700D01*
X12400737Y4643069D01*
X12394133Y4657140D01*
X12391898Y4661306D01*
X12383973Y4674717D01*
X12381382Y4678629D01*
X12372187Y4691227D01*
X12369241Y4694885D01*
X12358878Y4706569D01*
X11939524Y5126024D01*
X11937187Y5129631D01*
X11936577Y5133949D01*
X11937796Y5138064D01*
X11940641Y5141315D01*
X11944553Y5143144D01*
X11955119Y5145430D01*
X11976303Y5151882D01*
X11996775Y5160111D01*
X12016536Y5170068D01*
X12035383Y5181650D01*
X12051334Y5193487D01*
X12054890Y5195163D01*
X12058853Y5195366D01*
X12062561Y5194046D01*
X12071197Y5188915D01*
X12092025Y5178704D01*
X12113615Y5170322D01*
X12135866Y5163667D01*
X12158522Y5158943D01*
X12181535Y5156047D01*
X12204700Y5155082D01*
X12227864Y5156047D01*
X12250877Y5158943D01*
X12273534Y5163667D01*
X12295784Y5170322D01*
X12317374Y5178704D01*
X12338202Y5188915D01*
X12358116Y5200751D01*
X12376962Y5214264D01*
X12394692Y5229250D01*
X12411049Y5245608D01*
X12426035Y5263337D01*
X12439548Y5282184D01*
X12451384Y5302097D01*
X12461595Y5322925D01*
X12469977Y5344515D01*
X12476632Y5366766D01*
X12481356Y5389422D01*
X12484252Y5412435D01*
X12485217Y5435600D01*
X12484252Y5458764D01*
X12481356Y5481777D01*
X12476632Y5504434D01*
X12469977Y5526684D01*
X12461595Y5548274D01*
X12451384Y5569102D01*
X12439548Y5589016D01*
X12426035Y5607862D01*
X12411049Y5625592D01*
X12394692Y5641949D01*
X12376962Y5656935D01*
X12358116Y5670448D01*
X12338202Y5682284D01*
X12317374Y5692495D01*
X12295784Y5700877D01*
X12291364Y5702198D01*
X12287605Y5704281D01*
X12285014Y5707684D01*
X12284100Y5711850D01*
X12284913Y5716016D01*
X12287402Y5719470D01*
X12291110Y5721604D01*
X12300712Y5724753D01*
X12321997Y5733694D01*
X12325705Y5735624D01*
X12328652Y5736640D01*
X12331750Y5736691D01*
X12334748Y5735828D01*
X12351918Y5727750D01*
X12373559Y5719673D01*
X12395809Y5713476D01*
X12414859Y5709869D01*
X12414859Y5801410D01*
X12415418Y5804763D01*
X12417044Y5807760D01*
X12427559Y5821019D01*
X12440361Y5840272D01*
X12451486Y5860491D01*
X12460833Y5881573D01*
X12468453Y5903315D01*
X12474194Y5925667D01*
X12478004Y5948426D01*
X12479934Y5971438D01*
X12479934Y5994501D01*
X12478004Y6017514D01*
X12474194Y6040221D01*
X12468453Y6062573D01*
X12460833Y6084366D01*
X12451486Y6105448D01*
X12440361Y6125667D01*
X12427559Y6144920D01*
X12417044Y6158179D01*
X12415418Y6161176D01*
X12414859Y6164529D01*
X12414859Y6253581D01*
X12395809Y6249924D01*
X12373559Y6243726D01*
X12351918Y6235649D01*
X12337288Y6228791D01*
X12334290Y6227927D01*
X12331192Y6227978D01*
X12328245Y6228994D01*
X12321997Y6232245D01*
X12300712Y6241186D01*
X12278766Y6248298D01*
X12256312Y6253581D01*
X12233503Y6256934D01*
X12210491Y6258407D01*
X12187377Y6257899D01*
X12164466Y6255512D01*
X12141809Y6251194D01*
X12119559Y6244996D01*
X12097918Y6236919D01*
X12080748Y6228842D01*
X12077750Y6227978D01*
X12074652Y6228029D01*
X12071705Y6229045D01*
X12067997Y6230975D01*
X12046712Y6239916D01*
X12024766Y6247028D01*
X12002312Y6252311D01*
X11979503Y6255664D01*
X11956491Y6257137D01*
X11933377Y6256629D01*
X11910466Y6254242D01*
X11887809Y6249924D01*
X11865559Y6243726D01*
X11843918Y6235649D01*
X11823039Y6225844D01*
X11803075Y6214313D01*
X11784126Y6201156D01*
X11766346Y6186424D01*
X11749887Y6170269D01*
X11734800Y6152845D01*
X11721236Y6134150D01*
X11709298Y6114440D01*
X11699036Y6093764D01*
X11690502Y6072327D01*
X11683847Y6050229D01*
X11679072Y6027623D01*
X11676176Y6004763D01*
X11675211Y5981700D01*
X11676176Y5958636D01*
X11679072Y5935776D01*
X11683847Y5913170D01*
X11690502Y5891072D01*
X11699036Y5869635D01*
X11700002Y5867654D01*
X11701018Y5864301D01*
X11700764Y5860796D01*
X11699392Y5857544D01*
X11695836Y5854192D01*
X11679275Y5839561D01*
X11663934Y5823610D01*
X11650065Y5806389D01*
X11637670Y5788101D01*
X11626900Y5768797D01*
X11617807Y5748629D01*
X11610441Y5727801D01*
X11604853Y5706364D01*
X11601094Y5684570D01*
X11599214Y5662574D01*
X11599214Y5640425D01*
X11601094Y5618429D01*
X11604853Y5596636D01*
X11610441Y5575198D01*
X11617807Y5554370D01*
X11626900Y5534202D01*
X11629542Y5529478D01*
X11630710Y5526227D01*
X11630710Y5522772D01*
X11629542Y5519521D01*
X11626900Y5514797D01*
X11617807Y5494629D01*
X11610898Y5475173D01*
X11608816Y5471668D01*
X11605514Y5469280D01*
X11601551Y5468416D01*
X11597538Y5469128D01*
X11594134Y5471363D01*
X11388953Y5676544D01*
X11386921Y5679440D01*
X11382146Y5706364D01*
X11376558Y5727801D01*
X11369192Y5748629D01*
X11360099Y5768797D01*
X11349329Y5788101D01*
X11336934Y5806389D01*
X11323066Y5823610D01*
X11307724Y5839561D01*
X11291163Y5854192D01*
X11273383Y5867349D01*
X11254536Y5878931D01*
X11234775Y5888888D01*
X11214303Y5897118D01*
X11193119Y5903569D01*
X11171529Y5908243D01*
X11149584Y5911037D01*
X11127282Y5912002D01*
X11097717Y5912002D01*
X11087354Y5911545D01*
X11082934Y5912358D01*
X11079276Y5914999D01*
X11077143Y5918962D01*
X11076889Y5923483D01*
X11079429Y5937656D01*
X11081867Y5962751D01*
X11082324Y5987999D01*
X11080851Y6013196D01*
X11077448Y6038240D01*
X11072114Y6062878D01*
X11064849Y6087059D01*
X11055756Y6110630D01*
X11044885Y6133388D01*
X11032286Y6155232D01*
X11018012Y6176060D01*
X11002162Y6195720D01*
X10984839Y6214059D01*
X10966145Y6231026D01*
X10946180Y6246520D01*
X10925098Y6260388D01*
X10903000Y6272580D01*
X10879988Y6283045D01*
X10856264Y6291681D01*
X10831982Y6298438D01*
X10807192Y6303314D01*
X10782147Y6306210D01*
X10756900Y6307175D01*
X10731652Y6306210D01*
X10706608Y6303314D01*
X10681817Y6298438D01*
X10657535Y6291681D01*
X10633811Y6283045D01*
X10610799Y6272580D01*
X10588701Y6260388D01*
X10567619Y6246520D01*
X10547654Y6231026D01*
X10528960Y6214059D01*
X10511637Y6195720D01*
X10495788Y6176060D01*
X10481513Y6155232D01*
X10468914Y6133388D01*
X10458043Y6110630D01*
X10448950Y6087059D01*
X10441686Y6062878D01*
X10436352Y6038240D01*
X10432948Y6013196D01*
X10431475Y5987999D01*
X10431932Y5962751D01*
X10434370Y5937656D01*
X10438790Y5912815D01*
X10445089Y5888329D01*
X10453268Y5864453D01*
X10463225Y5841288D01*
X10475010Y5818936D01*
X10488472Y5797600D01*
X10503560Y5777331D01*
X10520121Y5758332D01*
X10538155Y5740654D01*
X10557510Y5724448D01*
X10578033Y5709767D01*
X10599623Y5696712D01*
X10622229Y5685383D01*
X10645597Y5675833D01*
X10669625Y5668111D01*
X10694162Y5662320D01*
X10719104Y5658408D01*
X10744301Y5656427D01*
X10769498Y5656427D01*
X10794695Y5658408D01*
X10819638Y5662320D01*
X10824718Y5663488D01*
X10828375Y5663692D01*
X10831830Y5662574D01*
X10834725Y5660339D01*
X10836605Y5657189D01*
X10837214Y5653633D01*
X10837214Y5640425D01*
X10839094Y5618429D01*
X10842853Y5596636D01*
X10848441Y5575198D01*
X10855807Y5554370D01*
X10864900Y5534202D01*
X10867542Y5529478D01*
X10868710Y5526227D01*
X10868710Y5522772D01*
X10867542Y5519521D01*
X10864900Y5514797D01*
X10855807Y5494629D01*
X10848441Y5473801D01*
X10842853Y5452364D01*
X10839094Y5430570D01*
X10837214Y5408574D01*
X10837214Y5386425D01*
X10839094Y5364429D01*
X10842853Y5342636D01*
X10848441Y5321198D01*
X10855807Y5300370D01*
X10859566Y5292039D01*
X10860430Y5288330D01*
X10859871Y5284571D01*
X10857992Y5281269D01*
X10854994Y5278882D01*
X10851388Y5277764D01*
X10847578Y5278069D01*
X10831982Y5282438D01*
X10807192Y5287314D01*
X10782147Y5290210D01*
X10756900Y5291175D01*
X10731652Y5290210D01*
X10706608Y5287314D01*
X10681817Y5282438D01*
X10657535Y5275681D01*
X10633811Y5267045D01*
X10610799Y5256580D01*
X10588701Y5244388D01*
X10567619Y5230520D01*
X10547654Y5215026D01*
X10528960Y5198059D01*
X10511637Y5179720D01*
X10495788Y5160060D01*
X10481513Y5139232D01*
X10468914Y5117388D01*
X10458043Y5094630D01*
X10448950Y5071059D01*
X10441686Y5046878D01*
X10436352Y5022240D01*
X10432948Y4997196D01*
X10431475Y4971999D01*
X10431932Y4946751D01*
X10434370Y4921656D01*
X10438790Y4896815D01*
X10445089Y4872329D01*
X10453268Y4848453D01*
X10463225Y4825288D01*
X10475010Y4802936D01*
X10488472Y4781600D01*
X10503560Y4761331D01*
X10520121Y4742332D01*
X10538155Y4724654D01*
X10557510Y4708448D01*
X10578033Y4693767D01*
X10599623Y4680712D01*
X10622229Y4669383D01*
X10645597Y4659833D01*
X10669625Y4652111D01*
X10694162Y4646320D01*
X10719104Y4642408D01*
X10744301Y4640427D01*
X10769498Y4640427D01*
X10794695Y4642408D01*
X10819638Y4646320D01*
X10844174Y4652111D01*
X10868202Y4659833D01*
X10891570Y4669383D01*
X10914176Y4680712D01*
X10935766Y4693767D01*
X10956290Y4708448D01*
X10975644Y4724654D01*
X10993678Y4742332D01*
X11010239Y4761331D01*
X11025327Y4781600D01*
X11038789Y4802936D01*
X11050574Y4825288D01*
X11060531Y4848453D01*
X11068710Y4872329D01*
X11075009Y4896815D01*
X11079429Y4921656D01*
X11081867Y4946751D01*
X11082324Y4971999D01*
X11080851Y4997196D01*
X11077448Y5022240D01*
X11072114Y5046878D01*
X11064849Y5071059D01*
X11055756Y5094630D01*
X11044885Y5117388D01*
X11039703Y5126329D01*
X11038484Y5130038D01*
X11038687Y5133898D01*
X11040313Y5137404D01*
X11043158Y5140045D01*
X11046764Y5141417D01*
X11050676Y5141366D01*
X11053470Y5140756D01*
X11075416Y5137962D01*
X11097717Y5136997D01*
X11127282Y5136997D01*
X11149584Y5137962D01*
X11171529Y5140756D01*
X11193119Y5145430D01*
X11214303Y5151882D01*
X11234775Y5160111D01*
X11254536Y5170068D01*
X11271148Y5180279D01*
X11275364Y5181752D01*
X11279835Y5181244D01*
X11283645Y5178806D01*
X11672112Y4790338D01*
X11674297Y4787087D01*
X11675110Y4783175D01*
X11674297Y4779264D01*
X11672112Y4776012D01*
X11668810Y4773777D01*
X11664950Y4773015D01*
X11346129Y4772964D01*
X11330584Y4772050D01*
X11325860Y4771542D01*
X11310467Y4769104D01*
X11305844Y4768189D01*
X11290757Y4764328D01*
X11286236Y4762957D01*
X11271605Y4757674D01*
X11267236Y4755845D01*
X11253165Y4749241D01*
X11248999Y4747006D01*
X11235588Y4739081D01*
X11231676Y4736490D01*
X11219078Y4727295D01*
X11215420Y4724349D01*
X11203736Y4713986D01*
X11174577Y4684928D01*
X11171986Y4682998D01*
X11168888Y4682032D01*
X11146231Y4678680D01*
X11123676Y4673396D01*
X11101628Y4666234D01*
X11080292Y4657242D01*
X11059769Y4646523D01*
X11040160Y4634128D01*
X11021720Y4620107D01*
X11004499Y4604613D01*
X10988649Y4587697D01*
X10974222Y4569561D01*
X10961420Y4550257D01*
X10950244Y4529937D01*
X10940846Y4508754D01*
X10933226Y4486859D01*
X10927435Y4464405D01*
X10923574Y4441596D01*
X10921644Y4418482D01*
X10921644Y4395317D01*
X10923574Y4372203D01*
X10927435Y4349394D01*
X10933226Y4326940D01*
X10940846Y4305046D01*
X10950244Y4283862D01*
X10961420Y4263542D01*
X10974222Y4244238D01*
X10988649Y4226102D01*
X11004499Y4209186D01*
X11021720Y4193692D01*
X11040160Y4179671D01*
X11059769Y4167276D01*
X11080292Y4156557D01*
X11101628Y4147565D01*
X11123676Y4140403D01*
X11146231Y4135120D01*
X11169192Y4131716D01*
X11192306Y4130243D01*
X11215471Y4130751D01*
X11238534Y4133189D01*
X11261293Y4137507D01*
X11283594Y4143756D01*
X11305336Y4151833D01*
X11326266Y4161688D01*
X11346383Y4173270D01*
X11365382Y4186478D01*
X11383670Y4201668D01*
X11387632Y4203649D01*
X11392052Y4203801D01*
X11396116Y4202074D01*
X11414048Y4189171D01*
X11433302Y4177639D01*
X11453418Y4167886D01*
X11474399Y4159859D01*
X11495938Y4153662D01*
X11517934Y4149344D01*
X11540185Y4146956D01*
X11562588Y4146448D01*
X11584990Y4147921D01*
X11607139Y4151274D01*
X11628932Y4156557D01*
X11650167Y4163618D01*
X11670741Y4172559D01*
X11690451Y4183176D01*
X11694769Y4185208D01*
X11698528Y4185259D01*
X11702084Y4183989D01*
X11712702Y4177639D01*
X11732818Y4167886D01*
X11753799Y4159859D01*
X11775338Y4153662D01*
X11797334Y4149344D01*
X11819585Y4146956D01*
X11841988Y4146448D01*
X11864390Y4147921D01*
X11886539Y4151274D01*
X11908332Y4156557D01*
X11929567Y4163618D01*
X11950141Y4172559D01*
X11969851Y4183176D01*
X11988596Y4195521D01*
X12006478Y4209542D01*
X12009526Y4211218D01*
X12012930Y4211726D01*
X12016333Y4211116D01*
X12019330Y4209338D01*
X12032437Y4198264D01*
X12051284Y4184751D01*
X12071197Y4172915D01*
X12092025Y4162704D01*
X12113615Y4154322D01*
X12135866Y4147667D01*
X12158522Y4142943D01*
X12181535Y4140047D01*
X12194133Y4139539D01*
X12197791Y4138676D01*
X12200890Y4136542D01*
X12203023Y4133443D01*
X12203887Y4129735D01*
X12203277Y4126026D01*
X12199975Y4116527D01*
X12193168Y4091178D01*
X12188291Y4065422D01*
X12185396Y4039412D01*
X12184380Y4013200D01*
X12185396Y3986987D01*
X12188291Y3960977D01*
X12193168Y3935222D01*
X12199975Y3909872D01*
X12208611Y3885133D01*
X12219127Y3861104D01*
X12231370Y3837940D01*
X12245289Y3815740D01*
X12260884Y3794658D01*
X12277953Y3774795D01*
X12296495Y3756253D01*
X12316358Y3739184D01*
X12337440Y3723589D01*
X12359640Y3709670D01*
X12382804Y3697427D01*
X12406833Y3686911D01*
X12431572Y3678275D01*
X12456922Y3671468D01*
X12482677Y3666591D01*
X12508687Y3663696D01*
X12534900Y3662679D01*
X12561112Y3663696D01*
X12587122Y3666591D01*
X12612878Y3671468D01*
X12638227Y3678275D01*
X12662966Y3686911D01*
X12686995Y3697427D01*
X12710160Y3709670D01*
X12732359Y3723589D01*
X12747294Y3734663D01*
X12751358Y3736441D01*
X12755829Y3736340D01*
X12759791Y3734308D01*
X12762534Y3730802D01*
X12763500Y3726484D01*
X12763500Y3629609D01*
X12762738Y3625748D01*
X12760553Y3622446D01*
X12757251Y3620262D01*
X12753390Y3619449D01*
G37*

%LPC*%
G36*
X2463800Y3688079D02*
G01*
X2490012Y3689096D01*
X2516022Y3691991D01*
X2541778Y3696868D01*
X2567127Y3703675D01*
X2591866Y3712311D01*
X2615895Y3722827D01*
X2639060Y3735070D01*
X2661259Y3748989D01*
X2682341Y3764584D01*
X2702204Y3781653D01*
X2720746Y3800195D01*
X2737815Y3820058D01*
X2753410Y3841140D01*
X2767330Y3863340D01*
X2779572Y3886504D01*
X2790088Y3910533D01*
X2798724Y3935272D01*
X2805531Y3960622D01*
X2810408Y3986377D01*
X2813304Y4012387D01*
X2814320Y4038600D01*
X2813304Y4064812D01*
X2810408Y4090822D01*
X2805531Y4116578D01*
X2798724Y4141927D01*
X2790088Y4166666D01*
X2779572Y4190695D01*
X2767330Y4213860D01*
X2753410Y4236059D01*
X2737815Y4257141D01*
X2720746Y4277004D01*
X2702204Y4295546D01*
X2682341Y4312615D01*
X2661259Y4328210D01*
X2639060Y4342130D01*
X2615895Y4354372D01*
X2591866Y4364888D01*
X2567127Y4373524D01*
X2541778Y4380331D01*
X2516022Y4385208D01*
X2490012Y4388104D01*
X2463800Y4389120D01*
X2437587Y4388104D01*
X2411577Y4385208D01*
X2385822Y4380331D01*
X2360472Y4373524D01*
X2335733Y4364888D01*
X2311704Y4354372D01*
X2288540Y4342130D01*
X2266340Y4328210D01*
X2245258Y4312615D01*
X2225395Y4295546D01*
X2206853Y4277004D01*
X2189784Y4257141D01*
X2174189Y4236059D01*
X2160270Y4213860D01*
X2148027Y4190695D01*
X2137511Y4166666D01*
X2128875Y4141927D01*
X2122068Y4116578D01*
X2117191Y4090822D01*
X2114296Y4064812D01*
X2113280Y4038600D01*
X2114296Y4012387D01*
X2117191Y3986377D01*
X2122068Y3960622D01*
X2128875Y3935272D01*
X2137511Y3910533D01*
X2148027Y3886504D01*
X2160270Y3863340D01*
X2174189Y3841140D01*
X2189784Y3820058D01*
X2206853Y3800195D01*
X2225395Y3781653D01*
X2245258Y3764584D01*
X2266340Y3748989D01*
X2288540Y3735070D01*
X2311704Y3722827D01*
X2335733Y3712311D01*
X2360472Y3703675D01*
X2385822Y3696868D01*
X2411577Y3691991D01*
X2437587Y3689096D01*
G37*
G36*
X2355088Y5086248D02*
G01*
X2377490Y5087721D01*
X2399639Y5091074D01*
X2421432Y5096357D01*
X2442667Y5103418D01*
X2463241Y5112359D01*
X2482951Y5122976D01*
X2487269Y5125008D01*
X2491028Y5125059D01*
X2494584Y5123789D01*
X2505202Y5117439D01*
X2525318Y5107686D01*
X2546299Y5099659D01*
X2567838Y5093462D01*
X2589834Y5089144D01*
X2612085Y5086756D01*
X2634488Y5086248D01*
X2656890Y5087721D01*
X2679039Y5091074D01*
X2700832Y5096357D01*
X2722067Y5103418D01*
X2742641Y5112359D01*
X2762351Y5122976D01*
X2781096Y5135321D01*
X2798724Y5149189D01*
X2815082Y5164480D01*
X2830017Y5181193D01*
X2843530Y5199075D01*
X2855417Y5218074D01*
X2865628Y5238038D01*
X2874111Y5258765D01*
X2880766Y5280202D01*
X2885541Y5302097D01*
X2888437Y5324297D01*
X2889402Y5346700D01*
X2888437Y5369102D01*
X2885541Y5391302D01*
X2880766Y5413197D01*
X2874111Y5434634D01*
X2865628Y5455361D01*
X2855417Y5475325D01*
X2843530Y5494324D01*
X2830017Y5512206D01*
X2815082Y5528919D01*
X2798724Y5544210D01*
X2781096Y5558078D01*
X2762351Y5570423D01*
X2742641Y5581040D01*
X2722067Y5589981D01*
X2700832Y5597042D01*
X2679039Y5602325D01*
X2656890Y5605678D01*
X2634488Y5607151D01*
X2612085Y5606643D01*
X2589834Y5604256D01*
X2567838Y5599938D01*
X2546299Y5593740D01*
X2525318Y5585714D01*
X2505202Y5575960D01*
X2494584Y5569610D01*
X2491028Y5568340D01*
X2487269Y5568391D01*
X2482951Y5570423D01*
X2463241Y5581040D01*
X2442667Y5589981D01*
X2421432Y5597042D01*
X2399639Y5602325D01*
X2377490Y5605678D01*
X2355088Y5607151D01*
X2332685Y5606643D01*
X2310434Y5604256D01*
X2288438Y5599938D01*
X2266899Y5593740D01*
X2245918Y5585714D01*
X2225802Y5575960D01*
X2206548Y5564428D01*
X2188362Y5551373D01*
X2171344Y5536742D01*
X2155647Y5520740D01*
X2141423Y5503418D01*
X2128723Y5484926D01*
X2117648Y5465470D01*
X2108301Y5445099D01*
X2100732Y5423966D01*
X2094992Y5402326D01*
X2091182Y5380228D01*
X2089251Y5357926D01*
X2089251Y5335473D01*
X2091182Y5313172D01*
X2094992Y5291074D01*
X2100732Y5269433D01*
X2108301Y5248300D01*
X2117648Y5227929D01*
X2128723Y5208473D01*
X2141423Y5189982D01*
X2155647Y5172659D01*
X2171344Y5156657D01*
X2188362Y5142026D01*
X2206548Y5128971D01*
X2225802Y5117439D01*
X2245918Y5107686D01*
X2266899Y5099659D01*
X2288438Y5093462D01*
X2310434Y5089144D01*
X2332685Y5086756D01*
G37*
G36*
X12502540Y5709920D02*
G01*
X12510312Y5711088D01*
X12532766Y5716371D01*
X12554712Y5723483D01*
X12575997Y5732424D01*
X12596469Y5743092D01*
X12615926Y5755487D01*
X12634315Y5769406D01*
X12651435Y5784850D01*
X12667234Y5801664D01*
X12681559Y5819749D01*
X12694361Y5839002D01*
X12705486Y5859221D01*
X12714833Y5880303D01*
X12722453Y5902096D01*
X12728194Y5924448D01*
X12730429Y5937859D01*
X12502540Y5937859D01*
G37*
G36*
X10140340Y5722620D02*
G01*
X10148112Y5723788D01*
X10170566Y5729071D01*
X10192512Y5736183D01*
X10213797Y5745124D01*
X10234269Y5755792D01*
X10253726Y5768187D01*
X10272115Y5782106D01*
X10289235Y5797550D01*
X10305034Y5814364D01*
X10319359Y5832449D01*
X10332161Y5851702D01*
X10343286Y5871921D01*
X10352633Y5893003D01*
X10360253Y5914796D01*
X10365994Y5937148D01*
X10368229Y5950559D01*
X10140340Y5950559D01*
G37*
G36*
X12502540Y6025540D02*
G01*
X12730429Y6025540D01*
X12728194Y6039002D01*
X12722453Y6061354D01*
X12714833Y6083096D01*
X12705486Y6104178D01*
X12694361Y6124397D01*
X12681559Y6143650D01*
X12667234Y6161735D01*
X12651435Y6178550D01*
X12634315Y6193993D01*
X12615926Y6207912D01*
X12596469Y6220307D01*
X12575997Y6230975D01*
X12554712Y6239916D01*
X12532766Y6247028D01*
X12510312Y6252311D01*
X12502540Y6253480D01*
G37*
G36*
X10140340Y6038240D02*
G01*
X10368229Y6038240D01*
X10365994Y6051702D01*
X10360253Y6074054D01*
X10352633Y6095796D01*
X10343286Y6116878D01*
X10332161Y6137097D01*
X10319359Y6156350D01*
X10305034Y6174435D01*
X10289235Y6191250D01*
X10272115Y6206693D01*
X10253726Y6220612D01*
X10234269Y6233007D01*
X10213797Y6243675D01*
X10192512Y6252616D01*
X10170566Y6259728D01*
X10148112Y6265011D01*
X10140340Y6266180D01*
G37*
G36*
X8997950Y6188862D02*
G01*
X9023350Y6189370D01*
X9048648Y6191808D01*
X9073642Y6196228D01*
X9098229Y6202578D01*
X9122257Y6210808D01*
X9145574Y6220866D01*
X9168079Y6232702D01*
X9189567Y6246215D01*
X9209938Y6261404D01*
X9229039Y6278067D01*
X9246819Y6296202D01*
X9263176Y6315659D01*
X9277959Y6336334D01*
X9291066Y6358077D01*
X9302445Y6380784D01*
X9312046Y6404305D01*
X9319818Y6428486D01*
X9325660Y6453174D01*
X9329623Y6478270D01*
X9331553Y6503619D01*
X9332417Y6508394D01*
X9334855Y6511798D01*
X9338462Y6513931D01*
X9342577Y6514439D01*
X9346590Y6513220D01*
X9349740Y6510528D01*
X9353448Y6505803D01*
X9370517Y6487007D01*
X9388957Y6469532D01*
X9408718Y6453632D01*
X9429699Y6439255D01*
X9451695Y6426555D01*
X9474606Y6415582D01*
X9498279Y6406438D01*
X9522612Y6399174D01*
X9547453Y6393789D01*
X9572599Y6390335D01*
X9597948Y6388862D01*
X9623348Y6389370D01*
X9648647Y6391808D01*
X9673640Y6396228D01*
X9698228Y6402578D01*
X9722256Y6410807D01*
X9745573Y6420866D01*
X9768078Y6432702D01*
X9789566Y6446215D01*
X9809937Y6461404D01*
X9829038Y6478066D01*
X9846818Y6496202D01*
X9863175Y6515658D01*
X9877958Y6536334D01*
X9891064Y6558076D01*
X9902444Y6580784D01*
X9912045Y6604304D01*
X9919817Y6628485D01*
X9925659Y6653174D01*
X9929622Y6678269D01*
X9931552Y6703618D01*
X9931552Y6720992D01*
X9932314Y6724903D01*
X9934549Y6728155D01*
X9937851Y6730390D01*
X9941712Y6731152D01*
X10454436Y6731152D01*
X10458399Y6730339D01*
X10461752Y6728053D01*
X10463936Y6724599D01*
X10464596Y6720586D01*
X10464393Y6716318D01*
X10465409Y6690918D01*
X10468356Y6665722D01*
X10473232Y6640779D01*
X10480040Y6616293D01*
X10488726Y6592417D01*
X10499242Y6569303D01*
X10511536Y6547104D01*
X10525455Y6525869D01*
X10541050Y6505803D01*
X10558119Y6487007D01*
X10576560Y6469532D01*
X10596321Y6453632D01*
X10617301Y6439255D01*
X10639298Y6426555D01*
X10662208Y6415582D01*
X10685881Y6406438D01*
X10710214Y6399174D01*
X10735056Y6393789D01*
X10760202Y6390335D01*
X10785551Y6388862D01*
X10810951Y6389370D01*
X10836249Y6391808D01*
X10861243Y6396228D01*
X10885830Y6402578D01*
X10909858Y6410807D01*
X10933176Y6420866D01*
X10955680Y6432702D01*
X10977168Y6446215D01*
X10997539Y6461404D01*
X11016640Y6478066D01*
X11034420Y6496202D01*
X11046917Y6511086D01*
X11050066Y6513626D01*
X11053978Y6514693D01*
X11057991Y6514185D01*
X11061496Y6512102D01*
X11063884Y6508902D01*
X11064849Y6504940D01*
X11065408Y6490919D01*
X11068354Y6465722D01*
X11073231Y6440779D01*
X11080038Y6416294D01*
X11088725Y6392468D01*
X11099241Y6369304D01*
X11111534Y6347104D01*
X11125454Y6325870D01*
X11141049Y6305804D01*
X11158118Y6287008D01*
X11176558Y6269532D01*
X11196320Y6253632D01*
X11217300Y6239256D01*
X11239296Y6226556D01*
X11262207Y6215583D01*
X11285880Y6206439D01*
X11310213Y6199174D01*
X11335054Y6193790D01*
X11360200Y6190335D01*
X11385550Y6188862D01*
X11410950Y6189370D01*
X11436248Y6191808D01*
X11461242Y6196228D01*
X11485829Y6202578D01*
X11509857Y6210808D01*
X11533174Y6220866D01*
X11555679Y6232702D01*
X11577167Y6246215D01*
X11597538Y6261404D01*
X11616639Y6278067D01*
X11634419Y6296202D01*
X11650776Y6315659D01*
X11665559Y6336334D01*
X11678666Y6358077D01*
X11690045Y6380784D01*
X11699646Y6404305D01*
X11707418Y6428486D01*
X11713260Y6453174D01*
X11717223Y6478270D01*
X11719153Y6503619D01*
X11720017Y6508394D01*
X11722455Y6511798D01*
X11726062Y6513931D01*
X11730177Y6514439D01*
X11734190Y6513220D01*
X11737340Y6510528D01*
X11741048Y6505803D01*
X11758117Y6487007D01*
X11776557Y6469532D01*
X11796318Y6453632D01*
X11817299Y6439255D01*
X11839295Y6426555D01*
X11862206Y6415582D01*
X11885879Y6406438D01*
X11910212Y6399174D01*
X11935053Y6393789D01*
X11960199Y6390335D01*
X11985548Y6388862D01*
X12010948Y6389370D01*
X12036247Y6391808D01*
X12061240Y6396228D01*
X12085828Y6402578D01*
X12109856Y6410807D01*
X12133173Y6420866D01*
X12155678Y6432702D01*
X12177166Y6446215D01*
X12197537Y6461404D01*
X12216638Y6478066D01*
X12234418Y6496202D01*
X12250775Y6515658D01*
X12265558Y6536334D01*
X12278664Y6558076D01*
X12290044Y6580784D01*
X12299645Y6604304D01*
X12307417Y6628485D01*
X12313259Y6653174D01*
X12317222Y6678269D01*
X12319152Y6703618D01*
X12319152Y6729018D01*
X12317222Y6754317D01*
X12313259Y6779412D01*
X12307417Y6804152D01*
X12299645Y6828332D01*
X12290044Y6851802D01*
X12278664Y6874509D01*
X12265558Y6896252D01*
X12250775Y6916928D01*
X12234418Y6936384D01*
X12216638Y6954520D01*
X12197537Y6971233D01*
X12177166Y6986371D01*
X12155678Y6999935D01*
X12133173Y7011771D01*
X12109856Y7021830D01*
X12085828Y7030059D01*
X12061240Y7036358D01*
X12036247Y7040778D01*
X12010948Y7043267D01*
X11985548Y7043724D01*
X11960199Y7042251D01*
X11935053Y7038848D01*
X11910212Y7033463D01*
X11885879Y7026148D01*
X11862206Y7017003D01*
X11839295Y7006081D01*
X11817299Y6993381D01*
X11796318Y6979005D01*
X11776557Y6963054D01*
X11758117Y6945630D01*
X11741048Y6926834D01*
X11725452Y6906717D01*
X11711533Y6885533D01*
X11699240Y6863283D01*
X11688724Y6840169D01*
X11680037Y6816293D01*
X11673230Y6791807D01*
X11668353Y6766915D01*
X11665407Y6741668D01*
X11664848Y6727647D01*
X11663883Y6723735D01*
X11661495Y6720484D01*
X11657990Y6718452D01*
X11653977Y6717893D01*
X11650065Y6719011D01*
X11646916Y6721500D01*
X11634419Y6736384D01*
X11616639Y6754520D01*
X11597538Y6771233D01*
X11577167Y6786372D01*
X11555679Y6799935D01*
X11533174Y6811772D01*
X11509857Y6821830D01*
X11485829Y6830059D01*
X11461242Y6836359D01*
X11436248Y6840778D01*
X11410950Y6843268D01*
X11385550Y6843725D01*
X11360200Y6842252D01*
X11335054Y6838848D01*
X11310213Y6833463D01*
X11285880Y6826148D01*
X11262207Y6817004D01*
X11239296Y6806082D01*
X11217300Y6793382D01*
X11196320Y6779006D01*
X11176558Y6763054D01*
X11158118Y6745630D01*
X11141049Y6726834D01*
X11137341Y6722059D01*
X11134191Y6719366D01*
X11130178Y6718198D01*
X11126063Y6718706D01*
X11122456Y6720840D01*
X11120018Y6724192D01*
X11119154Y6729018D01*
X11117224Y6754317D01*
X11113262Y6779412D01*
X11107420Y6804152D01*
X11099647Y6828332D01*
X11090046Y6851802D01*
X11078667Y6874509D01*
X11065560Y6896252D01*
X11050778Y6916928D01*
X11034420Y6936384D01*
X11016640Y6954520D01*
X10997539Y6971233D01*
X10977168Y6986371D01*
X10955680Y6999935D01*
X10933176Y7011771D01*
X10909858Y7021830D01*
X10885830Y7030059D01*
X10861243Y7036358D01*
X10836249Y7040778D01*
X10810951Y7043267D01*
X10785551Y7043724D01*
X10771581Y7042912D01*
X10767415Y7043572D01*
X10763808Y7045909D01*
X10711078Y7098538D01*
X10699445Y7108901D01*
X10695787Y7111847D01*
X10683189Y7121042D01*
X10679277Y7123633D01*
X10665866Y7131558D01*
X10661700Y7133793D01*
X10647578Y7140397D01*
X10643260Y7142225D01*
X10628579Y7147509D01*
X10624058Y7148880D01*
X10608970Y7152741D01*
X10604347Y7153656D01*
X10588955Y7156094D01*
X10584281Y7156602D01*
X10568736Y7157516D01*
X8627465Y7157516D01*
X8611920Y7156602D01*
X8607247Y7156094D01*
X8591854Y7153656D01*
X8587232Y7152741D01*
X8572144Y7148880D01*
X8567623Y7147509D01*
X8552942Y7142225D01*
X8548624Y7140397D01*
X8534501Y7133793D01*
X8530336Y7131558D01*
X8516924Y7123633D01*
X8513013Y7121042D01*
X8500414Y7111847D01*
X8496757Y7108901D01*
X8485124Y7098538D01*
X8432546Y7046061D01*
X8428786Y7043674D01*
X8423351Y7043267D01*
X8397951Y7043724D01*
X8372602Y7042251D01*
X8347456Y7038848D01*
X8322614Y7033463D01*
X8298281Y7026148D01*
X8274608Y7017003D01*
X8251698Y7006081D01*
X8229701Y6993381D01*
X8208721Y6979005D01*
X8188959Y6963054D01*
X8170519Y6945630D01*
X8153450Y6926834D01*
X8137855Y6906717D01*
X8123936Y6885533D01*
X8111642Y6863283D01*
X8101126Y6840169D01*
X8092440Y6816293D01*
X8085632Y6791807D01*
X8080756Y6766915D01*
X8077809Y6741668D01*
X8076793Y6716318D01*
X8077809Y6690918D01*
X8080756Y6665722D01*
X8085632Y6640779D01*
X8092440Y6616293D01*
X8101126Y6592417D01*
X8111642Y6569303D01*
X8123936Y6547104D01*
X8137855Y6525869D01*
X8153450Y6505803D01*
X8170519Y6487007D01*
X8188959Y6469532D01*
X8208721Y6453632D01*
X8229701Y6439255D01*
X8251698Y6426555D01*
X8274608Y6415582D01*
X8298281Y6406438D01*
X8322614Y6399174D01*
X8347456Y6393789D01*
X8372602Y6390335D01*
X8397951Y6388862D01*
X8423351Y6389370D01*
X8448649Y6391808D01*
X8473643Y6396228D01*
X8498230Y6402578D01*
X8522258Y6410807D01*
X8545576Y6420866D01*
X8568080Y6432702D01*
X8589568Y6446215D01*
X8609939Y6461404D01*
X8629040Y6478066D01*
X8646820Y6496202D01*
X8659317Y6511086D01*
X8662466Y6513626D01*
X8666378Y6514693D01*
X8670391Y6514185D01*
X8673896Y6512102D01*
X8676284Y6508902D01*
X8677249Y6504940D01*
X8677808Y6490919D01*
X8680754Y6465722D01*
X8685631Y6440779D01*
X8692438Y6416294D01*
X8701125Y6392468D01*
X8711641Y6369304D01*
X8723934Y6347104D01*
X8737854Y6325870D01*
X8753449Y6305804D01*
X8770518Y6287008D01*
X8788958Y6269532D01*
X8808720Y6253632D01*
X8829700Y6239256D01*
X8851696Y6226556D01*
X8874607Y6215583D01*
X8898280Y6206439D01*
X8922613Y6199174D01*
X8947454Y6193790D01*
X8972600Y6190335D01*
G37*
G36*
X11985548Y7608874D02*
G01*
X12010948Y7609382D01*
X12036247Y7611821D01*
X12061240Y7616240D01*
X12085828Y7622590D01*
X12109856Y7630820D01*
X12133173Y7640878D01*
X12155678Y7652715D01*
X12177166Y7666228D01*
X12197537Y7681417D01*
X12216638Y7698130D01*
X12234418Y7716215D01*
X12250775Y7735671D01*
X12265558Y7756347D01*
X12278664Y7778089D01*
X12290044Y7800797D01*
X12299645Y7824317D01*
X12307417Y7848498D01*
X12313259Y7873187D01*
X12317222Y7898282D01*
X12319152Y7923631D01*
X12319152Y7949031D01*
X12317222Y7974330D01*
X12313259Y7999425D01*
X12307417Y8024164D01*
X12299645Y8048345D01*
X12290044Y8071866D01*
X12278664Y8094522D01*
X12265558Y8116265D01*
X12250775Y8136940D01*
X12234418Y8156397D01*
X12216638Y8174532D01*
X12197537Y8191246D01*
X12177166Y8206384D01*
X12155678Y8219948D01*
X12133173Y8231784D01*
X12109856Y8241842D01*
X12085828Y8250072D01*
X12061240Y8256422D01*
X12036247Y8260791D01*
X12010948Y8263280D01*
X11985548Y8263737D01*
X11960199Y8262264D01*
X11935053Y8258860D01*
X11910212Y8253475D01*
X11885879Y8246160D01*
X11862206Y8237016D01*
X11839295Y8226094D01*
X11817299Y8213394D01*
X11796318Y8199018D01*
X11776557Y8183067D01*
X11758117Y8165642D01*
X11741048Y8146846D01*
X11725452Y8126780D01*
X11711533Y8105546D01*
X11699240Y8083296D01*
X11688724Y8060181D01*
X11680037Y8036306D01*
X11673230Y8011871D01*
X11668353Y7986928D01*
X11665407Y7961680D01*
X11664391Y7936331D01*
X11665407Y7910931D01*
X11668353Y7885734D01*
X11673230Y7860792D01*
X11680037Y7836306D01*
X11688724Y7812481D01*
X11699240Y7789316D01*
X11711533Y7767116D01*
X11725452Y7745882D01*
X11741048Y7725816D01*
X11758117Y7707020D01*
X11776557Y7689596D01*
X11796318Y7673644D01*
X11817299Y7659268D01*
X11839295Y7646568D01*
X11862206Y7635595D01*
X11885879Y7626451D01*
X11910212Y7619187D01*
X11935053Y7613802D01*
X11960199Y7610348D01*
G37*
G36*
X8397951Y7608874D02*
G01*
X8423351Y7609382D01*
X8448649Y7611821D01*
X8473643Y7616240D01*
X8498230Y7622590D01*
X8522258Y7630820D01*
X8545576Y7640878D01*
X8568080Y7652715D01*
X8589568Y7666228D01*
X8609939Y7681417D01*
X8629040Y7698130D01*
X8646820Y7716215D01*
X8663178Y7735671D01*
X8677960Y7756347D01*
X8691067Y7778089D01*
X8702446Y7800797D01*
X8712047Y7824317D01*
X8719820Y7848498D01*
X8725662Y7873187D01*
X8729624Y7898282D01*
X8731554Y7923631D01*
X8731554Y7949031D01*
X8729624Y7974330D01*
X8725662Y7999425D01*
X8719820Y8024164D01*
X8712047Y8048345D01*
X8702446Y8071866D01*
X8691067Y8094522D01*
X8677960Y8116265D01*
X8663178Y8136940D01*
X8646820Y8156397D01*
X8629040Y8174532D01*
X8609939Y8191246D01*
X8589568Y8206384D01*
X8568080Y8219948D01*
X8545576Y8231784D01*
X8522258Y8241842D01*
X8498230Y8250072D01*
X8473643Y8256422D01*
X8448649Y8260791D01*
X8423351Y8263280D01*
X8397951Y8263737D01*
X8372602Y8262264D01*
X8347456Y8258860D01*
X8322614Y8253475D01*
X8298281Y8246160D01*
X8274608Y8237016D01*
X8251698Y8226094D01*
X8229701Y8213394D01*
X8208721Y8199018D01*
X8188959Y8183067D01*
X8170519Y8165642D01*
X8153450Y8146846D01*
X8137855Y8126780D01*
X8123936Y8105546D01*
X8111642Y8083296D01*
X8101126Y8060181D01*
X8092440Y8036306D01*
X8085632Y8011871D01*
X8080756Y7986928D01*
X8077809Y7961680D01*
X8076793Y7936331D01*
X8077809Y7910931D01*
X8080756Y7885734D01*
X8085632Y7860792D01*
X8092440Y7836306D01*
X8101126Y7812481D01*
X8111642Y7789316D01*
X8123936Y7767116D01*
X8137855Y7745882D01*
X8153450Y7725816D01*
X8170519Y7707020D01*
X8188959Y7689596D01*
X8208721Y7673644D01*
X8229701Y7659268D01*
X8251698Y7646568D01*
X8274608Y7635595D01*
X8298281Y7626451D01*
X8322614Y7619187D01*
X8347456Y7613802D01*
X8372602Y7610348D01*
G37*
G36*
X10785551Y7608874D02*
G01*
X10810951Y7609382D01*
X10836249Y7611821D01*
X10861243Y7616240D01*
X10885830Y7622590D01*
X10909858Y7630820D01*
X10933176Y7640878D01*
X10955680Y7652715D01*
X10977168Y7666228D01*
X10997539Y7681417D01*
X11016640Y7698130D01*
X11034420Y7716215D01*
X11050778Y7735671D01*
X11065560Y7756347D01*
X11078667Y7778089D01*
X11090046Y7800797D01*
X11099647Y7824317D01*
X11107420Y7848498D01*
X11113262Y7873187D01*
X11117224Y7898282D01*
X11119154Y7923631D01*
X11119154Y7949031D01*
X11117224Y7974330D01*
X11113262Y7999425D01*
X11107420Y8024164D01*
X11099647Y8048345D01*
X11090046Y8071866D01*
X11078667Y8094522D01*
X11065560Y8116265D01*
X11050778Y8136940D01*
X11034420Y8156397D01*
X11016640Y8174532D01*
X10997539Y8191246D01*
X10977168Y8206384D01*
X10955680Y8219948D01*
X10933176Y8231784D01*
X10909858Y8241842D01*
X10885830Y8250072D01*
X10861243Y8256422D01*
X10836249Y8260791D01*
X10810951Y8263280D01*
X10785551Y8263737D01*
X10760202Y8262264D01*
X10735056Y8258860D01*
X10710214Y8253475D01*
X10685881Y8246160D01*
X10662208Y8237016D01*
X10639298Y8226094D01*
X10617301Y8213394D01*
X10596321Y8199018D01*
X10576560Y8183067D01*
X10558119Y8165642D01*
X10541050Y8146846D01*
X10525455Y8126780D01*
X10511536Y8105546D01*
X10499242Y8083296D01*
X10488726Y8060181D01*
X10480040Y8036306D01*
X10473232Y8011871D01*
X10468356Y7986928D01*
X10465409Y7961680D01*
X10464393Y7936331D01*
X10465409Y7910931D01*
X10468356Y7885734D01*
X10473232Y7860792D01*
X10480040Y7836306D01*
X10488726Y7812481D01*
X10499242Y7789316D01*
X10511536Y7767116D01*
X10525455Y7745882D01*
X10541050Y7725816D01*
X10558119Y7707020D01*
X10576560Y7689596D01*
X10596321Y7673644D01*
X10617301Y7659268D01*
X10639298Y7646568D01*
X10662208Y7635595D01*
X10685881Y7626451D01*
X10710214Y7619187D01*
X10735056Y7613802D01*
X10760202Y7610348D01*
G37*
G36*
X9597948Y7608874D02*
G01*
X9623348Y7609382D01*
X9648647Y7611821D01*
X9673640Y7616240D01*
X9698228Y7622590D01*
X9722256Y7630820D01*
X9745573Y7640878D01*
X9768078Y7652715D01*
X9789566Y7666228D01*
X9809937Y7681417D01*
X9829038Y7698130D01*
X9846818Y7716215D01*
X9863175Y7735671D01*
X9877958Y7756347D01*
X9891064Y7778089D01*
X9902444Y7800797D01*
X9912045Y7824317D01*
X9919817Y7848498D01*
X9925659Y7873187D01*
X9929622Y7898282D01*
X9931552Y7923631D01*
X9931552Y7949031D01*
X9929622Y7974330D01*
X9925659Y7999425D01*
X9919817Y8024164D01*
X9912045Y8048345D01*
X9902444Y8071866D01*
X9891064Y8094522D01*
X9877958Y8116265D01*
X9863175Y8136940D01*
X9846818Y8156397D01*
X9829038Y8174532D01*
X9809937Y8191246D01*
X9789566Y8206384D01*
X9768078Y8219948D01*
X9745573Y8231784D01*
X9722256Y8241842D01*
X9698228Y8250072D01*
X9673640Y8256422D01*
X9648647Y8260791D01*
X9623348Y8263280D01*
X9597948Y8263737D01*
X9572599Y8262264D01*
X9547453Y8258860D01*
X9522612Y8253475D01*
X9498279Y8246160D01*
X9474606Y8237016D01*
X9451695Y8226094D01*
X9429699Y8213394D01*
X9408718Y8199018D01*
X9388957Y8183067D01*
X9370517Y8165642D01*
X9353448Y8146846D01*
X9337852Y8126780D01*
X9323933Y8105546D01*
X9311640Y8083296D01*
X9301124Y8060181D01*
X9292437Y8036306D01*
X9285630Y8011871D01*
X9280753Y7986928D01*
X9277807Y7961680D01*
X9276791Y7936331D01*
X9277807Y7910931D01*
X9280753Y7885734D01*
X9285630Y7860792D01*
X9292437Y7836306D01*
X9301124Y7812481D01*
X9311640Y7789316D01*
X9323933Y7767116D01*
X9337852Y7745882D01*
X9353448Y7725816D01*
X9370517Y7707020D01*
X9388957Y7689596D01*
X9408718Y7673644D01*
X9429699Y7659268D01*
X9451695Y7646568D01*
X9474606Y7635595D01*
X9498279Y7626451D01*
X9522612Y7619187D01*
X9547453Y7613802D01*
X9572599Y7610348D01*
G37*
G36*
X10910925Y8691575D02*
G01*
X10936122Y8693048D01*
X10961116Y8696452D01*
X10985804Y8701786D01*
X11009985Y8709050D01*
X11033506Y8718143D01*
X11056315Y8729014D01*
X11078159Y8741613D01*
X11098987Y8755888D01*
X11118646Y8771737D01*
X11136985Y8789060D01*
X11146942Y8800084D01*
X11150447Y8802573D01*
X11154664Y8803436D01*
X11158880Y8802420D01*
X11162284Y8799779D01*
X11163554Y8798255D01*
X11181232Y8780221D01*
X11200231Y8763660D01*
X11220500Y8748572D01*
X11241836Y8735110D01*
X11264188Y8723325D01*
X11287353Y8713368D01*
X11311229Y8705189D01*
X11335715Y8698890D01*
X11360556Y8694470D01*
X11385651Y8692032D01*
X11410899Y8691575D01*
X11436096Y8693048D01*
X11461140Y8696452D01*
X11485778Y8701786D01*
X11509959Y8709050D01*
X11533530Y8718143D01*
X11556288Y8729014D01*
X11578132Y8741613D01*
X11598960Y8755888D01*
X11618620Y8771737D01*
X11636959Y8789060D01*
X11646966Y8800084D01*
X11650472Y8802573D01*
X11654688Y8803436D01*
X11658854Y8802420D01*
X11662257Y8799779D01*
X11663527Y8798255D01*
X11681206Y8780221D01*
X11700256Y8763660D01*
X11720474Y8748572D01*
X11741861Y8735110D01*
X11764162Y8723325D01*
X11787378Y8713368D01*
X11811254Y8705189D01*
X11835688Y8698890D01*
X11860530Y8694470D01*
X11885676Y8692032D01*
X11910923Y8691575D01*
X11936120Y8693048D01*
X11961114Y8696452D01*
X11985802Y8701786D01*
X12009983Y8709050D01*
X12033504Y8718143D01*
X12056313Y8729014D01*
X12078157Y8741613D01*
X12098985Y8755888D01*
X12118644Y8771737D01*
X12136983Y8789060D01*
X12153950Y8807754D01*
X12169394Y8827719D01*
X12183262Y8848801D01*
X12195454Y8870899D01*
X12205919Y8893911D01*
X12214555Y8917635D01*
X12221311Y8941917D01*
X12226188Y8966708D01*
X12229134Y8991752D01*
X12230100Y9017000D01*
X12229134Y9042247D01*
X12226188Y9067292D01*
X12221311Y9092082D01*
X12214555Y9116364D01*
X12205919Y9140088D01*
X12195454Y9163100D01*
X12183262Y9185198D01*
X12169394Y9206280D01*
X12153950Y9226245D01*
X12136983Y9244939D01*
X12118644Y9262262D01*
X12098985Y9278112D01*
X12078157Y9292386D01*
X12056313Y9304985D01*
X12033504Y9315856D01*
X12009983Y9324949D01*
X11985802Y9332214D01*
X11961114Y9337548D01*
X11936120Y9340951D01*
X11910923Y9342424D01*
X11885676Y9341967D01*
X11860530Y9339529D01*
X11835688Y9335109D01*
X11811254Y9328810D01*
X11787378Y9320631D01*
X11764162Y9310674D01*
X11741861Y9298889D01*
X11720474Y9285427D01*
X11700256Y9270339D01*
X11681206Y9253778D01*
X11663527Y9235744D01*
X11662257Y9234220D01*
X11658854Y9231579D01*
X11654688Y9230563D01*
X11650472Y9231426D01*
X11646966Y9233916D01*
X11636959Y9244939D01*
X11618620Y9262262D01*
X11598960Y9278112D01*
X11578132Y9292386D01*
X11556288Y9304985D01*
X11533530Y9315856D01*
X11509959Y9324949D01*
X11485778Y9332214D01*
X11461140Y9337548D01*
X11436096Y9340951D01*
X11410899Y9342424D01*
X11385651Y9341967D01*
X11360556Y9339529D01*
X11335715Y9335109D01*
X11311229Y9328810D01*
X11287353Y9320631D01*
X11264188Y9310674D01*
X11241836Y9298889D01*
X11220500Y9285427D01*
X11200231Y9270339D01*
X11181232Y9253778D01*
X11163554Y9235744D01*
X11162284Y9234220D01*
X11158880Y9231579D01*
X11154664Y9230563D01*
X11150447Y9231426D01*
X11146942Y9233916D01*
X11136985Y9244939D01*
X11118646Y9262262D01*
X11098987Y9278112D01*
X11078159Y9292386D01*
X11056315Y9304985D01*
X11033506Y9315856D01*
X11009985Y9324949D01*
X10985804Y9332214D01*
X10961116Y9337548D01*
X10936122Y9340951D01*
X10910925Y9342424D01*
X10885678Y9341967D01*
X10860532Y9339529D01*
X10835690Y9335109D01*
X10811256Y9328810D01*
X10787380Y9320631D01*
X10764164Y9310674D01*
X10741863Y9298889D01*
X10720476Y9285427D01*
X10700258Y9270339D01*
X10681208Y9253778D01*
X10663529Y9235744D01*
X10647324Y9216390D01*
X10632643Y9195866D01*
X10619587Y9174276D01*
X10608259Y9151670D01*
X10598708Y9128302D01*
X10591038Y9104274D01*
X10585196Y9079738D01*
X10581284Y9054795D01*
X10579354Y9029598D01*
X10579354Y9004401D01*
X10581284Y8979204D01*
X10585196Y8954262D01*
X10591038Y8929725D01*
X10598708Y8905697D01*
X10608259Y8882329D01*
X10619587Y8859723D01*
X10632643Y8838133D01*
X10647324Y8817610D01*
X10663529Y8798255D01*
X10681208Y8780221D01*
X10700258Y8763660D01*
X10720476Y8748572D01*
X10741863Y8735110D01*
X10764164Y8723325D01*
X10787380Y8713368D01*
X10811256Y8705189D01*
X10835690Y8698890D01*
X10860532Y8694470D01*
X10885678Y8692032D01*
G37*
G36*
X8497925Y8691575D02*
G01*
X8523122Y8693048D01*
X8548116Y8696452D01*
X8572804Y8701786D01*
X8596985Y8709050D01*
X8620506Y8718143D01*
X8643315Y8729014D01*
X8665159Y8741613D01*
X8685987Y8755888D01*
X8705646Y8771737D01*
X8723985Y8789060D01*
X8733942Y8800084D01*
X8737447Y8802573D01*
X8741664Y8803436D01*
X8745880Y8802420D01*
X8749284Y8799779D01*
X8750554Y8798255D01*
X8768232Y8780221D01*
X8787231Y8763660D01*
X8807500Y8748572D01*
X8828836Y8735110D01*
X8851188Y8723325D01*
X8874353Y8713368D01*
X8898229Y8705189D01*
X8922715Y8698890D01*
X8947556Y8694470D01*
X8972651Y8692032D01*
X8997899Y8691575D01*
X9023096Y8693048D01*
X9048140Y8696452D01*
X9072778Y8701786D01*
X9096959Y8709050D01*
X9120530Y8718143D01*
X9143288Y8729014D01*
X9165132Y8741613D01*
X9185960Y8755888D01*
X9205620Y8771737D01*
X9223959Y8789060D01*
X9233966Y8800084D01*
X9237472Y8802573D01*
X9241688Y8803436D01*
X9245854Y8802420D01*
X9249257Y8799779D01*
X9250527Y8798255D01*
X9268206Y8780221D01*
X9287256Y8763660D01*
X9307474Y8748572D01*
X9328861Y8735110D01*
X9351162Y8723325D01*
X9374378Y8713368D01*
X9398254Y8705189D01*
X9422688Y8698890D01*
X9447530Y8694470D01*
X9472676Y8692032D01*
X9497923Y8691575D01*
X9523120Y8693048D01*
X9548114Y8696452D01*
X9572802Y8701786D01*
X9596983Y8709050D01*
X9620504Y8718143D01*
X9643313Y8729014D01*
X9665157Y8741613D01*
X9685985Y8755888D01*
X9705644Y8771737D01*
X9723983Y8789060D01*
X9740950Y8807754D01*
X9756394Y8827719D01*
X9770262Y8848801D01*
X9782454Y8870899D01*
X9792919Y8893911D01*
X9801555Y8917635D01*
X9808311Y8941917D01*
X9813188Y8966708D01*
X9816134Y8991752D01*
X9817100Y9017000D01*
X9816134Y9042247D01*
X9813188Y9067292D01*
X9808311Y9092082D01*
X9801555Y9116364D01*
X9792919Y9140088D01*
X9782454Y9163100D01*
X9770262Y9185198D01*
X9756394Y9206280D01*
X9740950Y9226245D01*
X9723983Y9244939D01*
X9705644Y9262262D01*
X9685985Y9278112D01*
X9665157Y9292386D01*
X9643313Y9304985D01*
X9620504Y9315856D01*
X9596983Y9324949D01*
X9572802Y9332214D01*
X9548114Y9337548D01*
X9523120Y9340951D01*
X9497923Y9342424D01*
X9472676Y9341967D01*
X9447530Y9339529D01*
X9422688Y9335109D01*
X9398254Y9328810D01*
X9374378Y9320631D01*
X9351162Y9310674D01*
X9328861Y9298889D01*
X9307474Y9285427D01*
X9287256Y9270339D01*
X9268206Y9253778D01*
X9250527Y9235744D01*
X9249257Y9234220D01*
X9245854Y9231579D01*
X9241688Y9230563D01*
X9237472Y9231426D01*
X9233966Y9233916D01*
X9223959Y9244939D01*
X9205620Y9262262D01*
X9185960Y9278112D01*
X9165132Y9292386D01*
X9143288Y9304985D01*
X9120530Y9315856D01*
X9096959Y9324949D01*
X9072778Y9332214D01*
X9048140Y9337548D01*
X9023096Y9340951D01*
X8997899Y9342424D01*
X8972651Y9341967D01*
X8947556Y9339529D01*
X8922715Y9335109D01*
X8898229Y9328810D01*
X8874353Y9320631D01*
X8851188Y9310674D01*
X8828836Y9298889D01*
X8807500Y9285427D01*
X8787231Y9270339D01*
X8768232Y9253778D01*
X8750554Y9235744D01*
X8749284Y9234220D01*
X8745880Y9231579D01*
X8741664Y9230563D01*
X8737447Y9231426D01*
X8733942Y9233916D01*
X8723985Y9244939D01*
X8705646Y9262262D01*
X8685987Y9278112D01*
X8665159Y9292386D01*
X8643315Y9304985D01*
X8620506Y9315856D01*
X8596985Y9324949D01*
X8572804Y9332214D01*
X8548116Y9337548D01*
X8523122Y9340951D01*
X8497925Y9342424D01*
X8472678Y9341967D01*
X8447532Y9339529D01*
X8422690Y9335109D01*
X8398256Y9328810D01*
X8374380Y9320631D01*
X8351164Y9310674D01*
X8328863Y9298889D01*
X8307476Y9285427D01*
X8287258Y9270339D01*
X8268208Y9253778D01*
X8250529Y9235744D01*
X8234324Y9216390D01*
X8219643Y9195866D01*
X8206587Y9174276D01*
X8195259Y9151670D01*
X8185708Y9128302D01*
X8178038Y9104274D01*
X8172196Y9079738D01*
X8168284Y9054795D01*
X8166353Y9029598D01*
X8166353Y9004401D01*
X8168284Y8979204D01*
X8172196Y8954262D01*
X8178038Y8929725D01*
X8185708Y8905697D01*
X8195259Y8882329D01*
X8206587Y8859723D01*
X8219643Y8838133D01*
X8234324Y8817610D01*
X8250529Y8798255D01*
X8268208Y8780221D01*
X8287258Y8763660D01*
X8307476Y8748572D01*
X8328863Y8735110D01*
X8351164Y8723325D01*
X8374380Y8713368D01*
X8398256Y8705189D01*
X8422690Y8698890D01*
X8447532Y8694470D01*
X8472678Y8692032D01*
G37*

%LPD*%
D10*
X9512300Y5638800D02*
G01*
X8883116Y5009616D01*
X8778011Y5009616D01*
X9588500Y5994400D02*
G01*
X9588500Y5963615D01*
X8757894Y5133009D01*
X8562009Y5133009D01*
X8407400Y4978400D01*
X2451100Y6769100D02*
G01*
X2451100Y6578600D01*
X1981200Y6108700D01*
X11198097Y4406900D02*
G01*
X11351006Y4559807D01*
X11934063Y4559807D01*
X4397197Y7007301D02*
G01*
X3660698Y7007301D01*
X3657600Y7010400D01*
X7823200Y4419600D02*
G01*
X4108475Y4419600D01*
X3829075Y4699000D01*
X10198100Y4406900D02*
G01*
X10035159Y4243959D01*
X7998840Y4243959D01*
X7823200Y4419600D01*
X3657600Y4699000D02*
G01*
X3829075Y4699000D01*
X2705100Y6769100D02*
G01*
X2705100Y7175500D01*
X2324100Y7556500D01*
X3657600Y5486400D02*
G01*
X3826332Y5486400D01*
X4397197Y5483301D02*
G01*
X3829431Y5483301D01*
X3826332Y5486400D01*
X6937197Y6499301D02*
G01*
X7648498Y6499301D01*
X7658100Y6489700D01*
X10791901Y6716293D02*
G01*
X10563834Y6944360D01*
X8632367Y6944360D01*
X8404301Y6716293D01*
X3657600Y4953000D02*
G01*
X3696817Y4992217D01*
X7714411Y4992217D01*
X8106994Y5384800D01*
X8750300Y5384800D01*
X2197100Y6769100D02*
G01*
X1810613Y6382613D01*
X1810613Y6017768D01*
X2087981Y5740400D01*
X3657600Y5740400D01*
X10096500Y5994400D02*
G01*
X9920224Y6170676D01*
X8971406Y6170676D01*
X8528431Y5727700D01*
X7658100Y5727700D01*
X12458700Y5981700D02*
G01*
X12290780Y5813780D01*
X10976787Y5813780D01*
X10926165Y5763158D01*
X10327741Y5763158D01*
X10096500Y5994400D01*
X4397197Y5737301D02*
G01*
X6937197Y5737301D01*
X3657600Y5740400D02*
G01*
X3660698Y5737301D01*
X4397197Y5737301D01*
X6937197Y5737301D02*
G01*
X6946798Y5727700D01*
X7658100Y5727700D01*
X8823197Y4419600D02*
G01*
X8823197Y4695697D01*
X9512300Y5384800D01*
X4397197Y6753301D02*
G01*
X3660698Y6753301D01*
X3657600Y6756400D01*
X6937197Y6245301D02*
G01*
X7648498Y6245301D01*
X7658100Y6235700D01*
X6937197Y6753301D02*
G01*
X7648498Y6753301D01*
X7658100Y6743700D01*
X11112500Y5651500D02*
G01*
X12204700Y4559300D01*
X12204700Y4419600D01*
X4397197Y7261301D02*
G01*
X3660698Y7261301D01*
X3657600Y7264400D01*
X4397197Y7515301D02*
G01*
X3660698Y7515301D01*
X3657600Y7518400D01*
X4397197Y8785301D02*
G01*
X3660698Y8785301D01*
X3657600Y8788400D01*
X4397197Y8531301D02*
G01*
X3660698Y8531301D01*
X3657600Y8534400D01*
X4397197Y8277301D02*
G01*
X3660698Y8277301D01*
X3657600Y8280400D01*
X4397197Y8023301D02*
G01*
X3660698Y8023301D01*
X3657600Y8026400D01*
X4397197Y7769301D02*
G01*
X3660698Y7769301D01*
X3657600Y7772400D01*
X4397197Y6499301D02*
G01*
X3660698Y6499301D01*
X3657600Y6502400D01*
X4397197Y6245301D02*
G01*
X3660698Y6245301D01*
X3657600Y6248400D01*
X4397197Y5991301D02*
G01*
X3660698Y5991301D01*
X3657600Y5994400D01*
X6937197Y8785301D02*
G01*
X7648498Y8785301D01*
X7658100Y8775700D01*
X6937197Y8531301D02*
G01*
X7648498Y8531301D01*
X7658100Y8521700D01*
X6937197Y8277301D02*
G01*
X7648498Y8277301D01*
X7658100Y8267700D01*
X6937197Y8023301D02*
G01*
X7648498Y8023301D01*
X7658100Y8013700D01*
X6937197Y7769301D02*
G01*
X7648498Y7769301D01*
X7658100Y7759700D01*
X6937197Y7515301D02*
G01*
X7648498Y7515301D01*
X7658100Y7505700D01*
X6937197Y7261301D02*
G01*
X7648498Y7261301D01*
X7658100Y7251700D01*
X6937197Y7007301D02*
G01*
X7648498Y7007301D01*
X7658100Y6997700D01*
X6937197Y5991301D02*
G01*
X7648498Y5991301D01*
X7658100Y5981700D01*
X6937197Y5493461D02*
G01*
X7129932Y5493461D01*
X7129932Y5493461D02*
G01*
X7149693Y5473700D01*
X7658100Y5473700D01*
X4397197Y9039301D02*
G01*
X4394098Y9042400D01*
X3657600Y9042400D01*
X6937197Y9039301D02*
G01*
X7648498Y9039301D01*
X7658100Y9029700D01*
D11*
G01*
X2002663Y8751062D03*
D12*
G01*
X2467736Y9101074D03*
G01*
X2467736Y8501126D03*
D13*
G01*
X9169400Y4445000D03*
G01*
X9448800Y4445000D03*
G01*
X11557000Y4406900D03*
G01*
X11836400Y4406900D03*
G01*
X2349500Y5346700D03*
G01*
X2628900Y5346700D03*
D14*
G01*
X8407400Y4978400D03*
G01*
X8407400Y5994400D03*
G01*
X8491600Y9017000D03*
G01*
X8991600Y9017000D03*
G01*
X9491599Y9017000D03*
G01*
X10904600Y9017000D03*
G01*
X11404600Y9017000D03*
G01*
X11904599Y9017000D03*
D15*
G01*
X9512300Y5384800D03*
G01*
X8750300Y5384800D03*
G01*
X9512300Y5638800D03*
G01*
X8750300Y5638800D03*
G01*
X11874500Y5397500D03*
G01*
X11112500Y5397500D03*
G01*
X11874500Y5651500D03*
G01*
X11112500Y5651500D03*
D16*
G01*
X9842500Y5995670D03*
G01*
X10096500Y5994400D03*
G01*
X9588500Y5994400D03*
G01*
X12204700Y5982970D03*
G01*
X12458700Y5981700D03*
G01*
X11950700Y5981700D03*
D17*
G01*
X7823200Y4419600D03*
G01*
X8823197Y4419600D03*
G01*
X10198100Y4406900D03*
G01*
X11198097Y4406900D03*
G01*
X1981200Y6108700D03*
G01*
X2981197Y6108700D03*
D18*
G01*
X9842500Y4445000D03*
G01*
X9842500Y5461000D03*
G01*
X12204700Y4419600D03*
G01*
X12204700Y5435600D03*
D19*
G01*
X3657600Y4699000D03*
D20*
G01*
X3657600Y4953000D03*
D18*
G01*
X2705100Y6769100D03*
G01*
X2451100Y6769100D03*
G01*
X2197100Y6769100D03*
D21*
G01*
X7658100Y5473700D03*
D22*
G01*
X7658100Y5727700D03*
G01*
X7658100Y5981700D03*
G01*
X7658100Y6235700D03*
G01*
X7658100Y6489700D03*
G01*
X7658100Y6743700D03*
G01*
X7658100Y6997700D03*
G01*
X7658100Y7251700D03*
G01*
X7658100Y7505700D03*
G01*
X7658100Y7759700D03*
G01*
X7658100Y8013700D03*
G01*
X7658100Y8267700D03*
G01*
X7658100Y8521700D03*
G01*
X7658100Y8775700D03*
G01*
X7658100Y9029700D03*
D21*
G01*
X3657600Y5486400D03*
D22*
G01*
X3657600Y5740400D03*
G01*
X3657600Y5994400D03*
G01*
X3657600Y6248400D03*
G01*
X3657600Y6502400D03*
G01*
X3657600Y6756400D03*
G01*
X3657600Y7010400D03*
G01*
X3657600Y7264400D03*
G01*
X3657600Y7518400D03*
G01*
X3657600Y7772400D03*
G01*
X3657600Y8026400D03*
G01*
X3657600Y8280400D03*
G01*
X3657600Y8534400D03*
G01*
X3657600Y8788400D03*
G01*
X3657600Y9042400D03*
D23*
G01*
X9604298Y7936306D03*
G01*
X8404301Y7936306D03*
G01*
X8404301Y6716293D03*
G01*
X9604298Y6716293D03*
G01*
X9004300Y6516293D03*
G01*
X11991898Y7936306D03*
G01*
X10791901Y7936306D03*
G01*
X10791901Y6716293D03*
G01*
X11991898Y6716293D03*
G01*
X11391900Y6516293D03*
D24*
G01*
X6937197Y9039301D03*
G01*
X6937197Y8785301D03*
G01*
X6937197Y8531301D03*
G01*
X6937197Y8277301D03*
G01*
X6937197Y8023301D03*
G01*
X6937197Y7769301D03*
G01*
X6937197Y7515301D03*
G01*
X6937197Y7261301D03*
G01*
X6937197Y7007301D03*
G01*
X6937197Y6753301D03*
G01*
X6937197Y6499301D03*
G01*
X6937197Y6245301D03*
G01*
X6937197Y5991301D03*
G01*
X6937197Y5737301D03*
D25*
G01*
X6937197Y5493461D03*
D24*
G01*
X4397197Y8785301D03*
G01*
X4397197Y8531301D03*
G01*
X4397197Y8277301D03*
G01*
X4397197Y8023301D03*
G01*
X4397197Y7769301D03*
G01*
X4397197Y7515301D03*
G01*
X4397197Y7261301D03*
G01*
X4397197Y7007301D03*
G01*
X4397197Y6753301D03*
G01*
X4397197Y6499301D03*
G01*
X4397197Y6245301D03*
G01*
X4397197Y5991301D03*
G01*
X4397197Y5737301D03*
D25*
G01*
X4397197Y5483301D03*
D24*
G01*
X4397197Y9039301D03*
D19*
G01*
X2070100Y7556500D03*
D20*
G01*
X2324100Y7556500D03*
G01*
X2578100Y7556500D03*
G01*
X2832100Y7556500D03*
D14*
G01*
X10756900Y4965700D03*
G01*
X10756900Y5981700D03*
D26*
G01*
X8778011Y5009616D03*
G01*
X11934063Y4559807D03*
M02*
