G04 Layer: BottomLayer*
G04 EasyEDA v6.5.48, 2025-01-19 19:24:15*
G04 93f84cf920734f188c47773e0b6923d2,3cbab8949a5742979101216bdbeae448,10*
G04 Gerber Generator version 0.2*
G04 Scale: 100 percent, Rotated: No, Reflected: No *
G04 Dimensions in millimeters *
G04 leading zeros omitted , absolute positions ,4 integer and 5 decimal *
%FSLAX45Y45*%
%MOMM*%

%AMMACRO1*21,1,$1,$2,0,0,$3*%
%ADD10C,0.2540*%
%ADD11C,2.5400*%
%ADD12MACRO1,0.864X0.8065X-90.0000*%
%ADD13MACRO1,0.864X0.8065X90.0000*%
%ADD14O,1.499997X3.6999926000000003*%
%ADD15O,3.7999924X1.499997*%
%ADD16C,1.1999*%
%ADD17C,2.5000*%
%ADD18O,1.499997X1.1999976*%
%ADD19C,1.5000*%
%ADD20C,1.5240*%
%ADD21C,1.6000*%
%ADD22R,1.5748X1.5748*%
%ADD23C,1.5748*%
%ADD24R,1.5200X1.5200*%
%ADD25C,1.5200*%
%ADD26C,2.0000*%
%ADD27R,2.0000X2.0000*%
%ADD28C,0.6100*%
%ADD29C,0.0117*%

%LPD*%
G36*
X1762760Y3606800D02*
G01*
X1758899Y3607562D01*
X1755597Y3609797D01*
X1753362Y3613099D01*
X1752600Y3616960D01*
X1752600Y5609183D01*
X1753362Y5613095D01*
X1755597Y5616397D01*
X1968296Y5829096D01*
X1971497Y5831230D01*
X1975256Y5832043D01*
X1998573Y5832551D01*
X2021636Y5834989D01*
X2044395Y5839307D01*
X2066696Y5845556D01*
X2088438Y5853633D01*
X2109368Y5863488D01*
X2129485Y5875070D01*
X2148484Y5888278D01*
X2166366Y5903061D01*
X2182926Y5919266D01*
X2198065Y5936843D01*
X2211679Y5955588D01*
X2223668Y5975400D01*
X2233980Y5996178D01*
X2242515Y6017717D01*
X2249220Y6039866D01*
X2254046Y6062573D01*
X2256942Y6085535D01*
X2257907Y6108700D01*
X2257704Y6113830D01*
X2258364Y6117945D01*
X2260650Y6121450D01*
X2486253Y6347053D01*
X2489504Y6349238D01*
X2493365Y6350050D01*
X2814624Y6352336D01*
X2818739Y6351473D01*
X2822194Y6349034D01*
X2824327Y6345428D01*
X2824835Y6341262D01*
X2823616Y6337249D01*
X2820873Y6334048D01*
X2804820Y6321907D01*
X2787599Y6306413D01*
X2771749Y6289497D01*
X2757322Y6271361D01*
X2744520Y6252057D01*
X2733344Y6231737D01*
X2723946Y6210554D01*
X2716326Y6188659D01*
X2710535Y6166205D01*
X2706674Y6143396D01*
X2706268Y6138722D01*
X2705404Y6135268D01*
X2703372Y6132372D01*
X2195322Y5624271D01*
X2184958Y5612587D01*
X2182012Y5608929D01*
X2172817Y5596331D01*
X2170226Y5592419D01*
X2162302Y5579008D01*
X2160066Y5574842D01*
X2153462Y5560771D01*
X2151634Y5556402D01*
X2146350Y5541772D01*
X2144979Y5537250D01*
X2141118Y5522163D01*
X2140204Y5517540D01*
X2137156Y5497830D01*
X2135936Y5495391D01*
X2128723Y5484926D01*
X2117648Y5465470D01*
X2108301Y5445099D01*
X2100732Y5423966D01*
X2094992Y5402326D01*
X2091182Y5380228D01*
X2089251Y5357926D01*
X2089251Y5335473D01*
X2091182Y5313172D01*
X2094992Y5291074D01*
X2100732Y5269433D01*
X2108301Y5248300D01*
X2117648Y5227929D01*
X2128723Y5208473D01*
X2141423Y5189982D01*
X2155647Y5172659D01*
X2171344Y5156657D01*
X2188362Y5142026D01*
X2206548Y5128971D01*
X2225802Y5117439D01*
X2245918Y5107686D01*
X2266899Y5099659D01*
X2288438Y5093462D01*
X2310434Y5089144D01*
X2332685Y5086756D01*
X2355088Y5086248D01*
X2377490Y5087721D01*
X2399639Y5091074D01*
X2421432Y5096357D01*
X2442667Y5103418D01*
X2463241Y5112359D01*
X2482951Y5122976D01*
X2487269Y5125008D01*
X2491028Y5125059D01*
X2494584Y5123789D01*
X2505202Y5117439D01*
X2525318Y5107686D01*
X2546299Y5099659D01*
X2567838Y5093462D01*
X2580690Y5090922D01*
X2583535Y5089956D01*
X2585923Y5088178D01*
X3300984Y4373168D01*
X3312668Y4362805D01*
X3316325Y4359859D01*
X3328924Y4350664D01*
X3332835Y4348073D01*
X3346246Y4340148D01*
X3350412Y4337913D01*
X3364484Y4331309D01*
X3368852Y4329480D01*
X3383483Y4324197D01*
X3388004Y4322826D01*
X3403092Y4318965D01*
X3407714Y4318050D01*
X3423107Y4315612D01*
X3427831Y4315104D01*
X3443376Y4314190D01*
X3941673Y4314190D01*
X3957218Y4315104D01*
X3961892Y4315612D01*
X3977284Y4318050D01*
X3981907Y4318965D01*
X3996994Y4322826D01*
X4001515Y4324197D01*
X4016197Y4329480D01*
X4020515Y4331309D01*
X4034637Y4337913D01*
X4038803Y4340148D01*
X4052214Y4348073D01*
X4056126Y4350664D01*
X4068724Y4359859D01*
X4072382Y4362805D01*
X4084015Y4373168D01*
X4223105Y4512157D01*
X4226661Y4514443D01*
X4230878Y4515104D01*
X4234992Y4513935D01*
X4238244Y4511243D01*
X4242003Y4506468D01*
X4259935Y4486757D01*
X4279290Y4468469D01*
X4299966Y4451604D01*
X4321810Y4436364D01*
X4344720Y4422749D01*
X4368546Y4410862D01*
X4393234Y4400804D01*
X4418533Y4392574D01*
X4444441Y4386224D01*
X4470704Y4381804D01*
X4497222Y4379366D01*
X4523892Y4378858D01*
X4550460Y4380331D01*
X4576876Y4383786D01*
X4602988Y4389170D01*
X4628591Y4396435D01*
X4653635Y4405630D01*
X4677918Y4416602D01*
X4701286Y4429353D01*
X4723688Y4443780D01*
X4744923Y4459833D01*
X4764938Y4477410D01*
X4783632Y4496460D01*
X4800854Y4516780D01*
X4816500Y4538319D01*
X4830521Y4560976D01*
X4842814Y4584598D01*
X4853381Y4609084D01*
X4862068Y4634280D01*
X4868875Y4660036D01*
X4873802Y4686198D01*
X4876749Y4712665D01*
X4877714Y4739284D01*
X4876749Y4765954D01*
X4873802Y4792421D01*
X4868875Y4818583D01*
X4862068Y4844338D01*
X4853381Y4869535D01*
X4842814Y4894021D01*
X4830521Y4917643D01*
X4816500Y4940300D01*
X4800854Y4961839D01*
X4783632Y4982159D01*
X4764938Y5001209D01*
X4744974Y5018735D01*
X4742484Y5022037D01*
X4741519Y5026050D01*
X4742230Y5030114D01*
X4744516Y5033568D01*
X5740044Y6029096D01*
X5743346Y6031331D01*
X5747258Y6032093D01*
X6628231Y6032093D01*
X6632346Y6031230D01*
X6635699Y6028842D01*
X6637832Y6025235D01*
X6638391Y6021120D01*
X6636969Y6003391D01*
X6636969Y5979210D01*
X6638899Y5955080D01*
X6642760Y5931204D01*
X6648551Y5907684D01*
X6656222Y5884722D01*
X6663232Y5868263D01*
X6664045Y5864301D01*
X6663232Y5860338D01*
X6656222Y5843879D01*
X6648551Y5820918D01*
X6642760Y5797397D01*
X6642150Y5793638D01*
X6706616Y5793638D01*
X6710781Y5792774D01*
X6714185Y5790234D01*
X6720484Y5783122D01*
X6727647Y5776214D01*
X6730085Y5772607D01*
X6730746Y5768238D01*
X6729526Y5764022D01*
X6726681Y5760720D01*
X6710019Y5748426D01*
X6695440Y5735218D01*
X6682231Y5720638D01*
X6670497Y5704840D01*
X6660388Y5687974D01*
X6657543Y5683707D01*
X6654342Y5681675D01*
X6650634Y5680964D01*
X6642150Y5680964D01*
X6642760Y5677204D01*
X6646824Y5660796D01*
X6647078Y5657850D01*
X6646519Y5654954D01*
X6645351Y5651652D01*
X6640575Y5632551D01*
X6637680Y5613095D01*
X6636715Y5593232D01*
X6636715Y5393690D01*
X6637680Y5373827D01*
X6640575Y5354370D01*
X6645351Y5335270D01*
X6651955Y5316728D01*
X6660388Y5298948D01*
X6670497Y5282082D01*
X6682231Y5266283D01*
X6695440Y5251704D01*
X6710019Y5238496D01*
X6725818Y5226761D01*
X6742684Y5216652D01*
X6760464Y5208219D01*
X6779006Y5201615D01*
X6798106Y5196840D01*
X6817563Y5193944D01*
X6837425Y5192928D01*
X7036968Y5192928D01*
X7056831Y5193944D01*
X7076338Y5196840D01*
X7095388Y5201615D01*
X7113930Y5208219D01*
X7131710Y5216652D01*
X7148575Y5226761D01*
X7164374Y5238496D01*
X7178954Y5251704D01*
X7192162Y5266283D01*
X7203897Y5282082D01*
X7214006Y5298948D01*
X7222439Y5316728D01*
X7229043Y5335270D01*
X7233818Y5354370D01*
X7236714Y5373827D01*
X7237730Y5393690D01*
X7237730Y5593232D01*
X7236714Y5613095D01*
X7233818Y5632551D01*
X7229043Y5651652D01*
X7227874Y5654954D01*
X7227316Y5657850D01*
X7227570Y5660796D01*
X7231634Y5677204D01*
X7232243Y5680964D01*
X7223759Y5680964D01*
X7220051Y5681675D01*
X7216851Y5683707D01*
X7214006Y5687974D01*
X7203897Y5704840D01*
X7192162Y5720638D01*
X7178954Y5735218D01*
X7164425Y5748426D01*
X7147763Y5760720D01*
X7144867Y5764022D01*
X7143648Y5768238D01*
X7144308Y5772607D01*
X7146747Y5776214D01*
X7153909Y5783122D01*
X7160209Y5790234D01*
X7163612Y5792774D01*
X7167829Y5793638D01*
X7232243Y5793638D01*
X7231634Y5797397D01*
X7225842Y5820918D01*
X7218172Y5843879D01*
X7211161Y5860338D01*
X7210348Y5864301D01*
X7211161Y5868263D01*
X7218172Y5884722D01*
X7225842Y5907684D01*
X7231634Y5931204D01*
X7235494Y5955080D01*
X7237475Y5979210D01*
X7237475Y6003391D01*
X7235494Y6027521D01*
X7231634Y6051397D01*
X7225842Y6074918D01*
X7218172Y6097879D01*
X7211161Y6114338D01*
X7210348Y6118301D01*
X7211161Y6122263D01*
X7218172Y6138722D01*
X7225842Y6161684D01*
X7231634Y6185204D01*
X7235494Y6209080D01*
X7237475Y6233210D01*
X7237475Y6257391D01*
X7235494Y6281521D01*
X7231634Y6305397D01*
X7225842Y6328918D01*
X7218172Y6351879D01*
X7211161Y6368338D01*
X7210348Y6372301D01*
X7211161Y6376263D01*
X7218172Y6392722D01*
X7225842Y6415684D01*
X7231634Y6439204D01*
X7235494Y6463080D01*
X7237475Y6487210D01*
X7237475Y6511391D01*
X7235494Y6535521D01*
X7231634Y6559397D01*
X7225842Y6582918D01*
X7218172Y6605879D01*
X7211161Y6622338D01*
X7210348Y6626301D01*
X7211161Y6630263D01*
X7218172Y6646722D01*
X7225842Y6669684D01*
X7231634Y6693204D01*
X7235494Y6717080D01*
X7237475Y6741210D01*
X7237475Y6765391D01*
X7235494Y6789521D01*
X7231634Y6813397D01*
X7225842Y6836918D01*
X7218172Y6859879D01*
X7211161Y6876338D01*
X7210348Y6880301D01*
X7211161Y6884263D01*
X7218172Y6900722D01*
X7225842Y6923684D01*
X7231634Y6947204D01*
X7235494Y6971080D01*
X7237475Y6995210D01*
X7237475Y7019391D01*
X7235494Y7043521D01*
X7231634Y7067397D01*
X7225842Y7090918D01*
X7218172Y7113879D01*
X7211161Y7130338D01*
X7210348Y7134301D01*
X7211161Y7138263D01*
X7218172Y7154722D01*
X7225842Y7177684D01*
X7231634Y7201204D01*
X7235494Y7225080D01*
X7237475Y7249210D01*
X7237475Y7273391D01*
X7235494Y7297521D01*
X7231634Y7321397D01*
X7225842Y7344918D01*
X7218172Y7367879D01*
X7211161Y7384338D01*
X7210348Y7388301D01*
X7211161Y7392263D01*
X7218172Y7408722D01*
X7225842Y7431684D01*
X7231634Y7455204D01*
X7235494Y7479080D01*
X7237475Y7503210D01*
X7237475Y7527391D01*
X7235494Y7551521D01*
X7231634Y7575397D01*
X7225842Y7598918D01*
X7218172Y7621879D01*
X7211161Y7638338D01*
X7210348Y7642301D01*
X7211161Y7646263D01*
X7218172Y7662722D01*
X7225842Y7685684D01*
X7231634Y7709204D01*
X7235494Y7733080D01*
X7237475Y7757210D01*
X7237475Y7781391D01*
X7235494Y7805521D01*
X7231634Y7829397D01*
X7225842Y7852918D01*
X7218172Y7875879D01*
X7211161Y7892338D01*
X7210348Y7896301D01*
X7211161Y7900263D01*
X7218172Y7916722D01*
X7225842Y7939684D01*
X7231634Y7963204D01*
X7235494Y7987080D01*
X7237475Y8011210D01*
X7237475Y8035391D01*
X7235494Y8059521D01*
X7231634Y8083397D01*
X7225842Y8106918D01*
X7218172Y8129879D01*
X7211161Y8146338D01*
X7210348Y8150301D01*
X7211161Y8154263D01*
X7218172Y8170722D01*
X7225842Y8193684D01*
X7231634Y8217204D01*
X7235494Y8241080D01*
X7237475Y8265210D01*
X7237475Y8289391D01*
X7235494Y8313521D01*
X7231634Y8337397D01*
X7225842Y8360918D01*
X7218172Y8383879D01*
X7211161Y8400338D01*
X7210348Y8404301D01*
X7211161Y8408263D01*
X7218172Y8424722D01*
X7225842Y8447684D01*
X7231634Y8471204D01*
X7235494Y8495080D01*
X7237475Y8519210D01*
X7237475Y8543391D01*
X7235494Y8567521D01*
X7231634Y8591397D01*
X7225842Y8614918D01*
X7218172Y8637879D01*
X7211161Y8654338D01*
X7210348Y8658301D01*
X7211161Y8662263D01*
X7218172Y8678722D01*
X7225842Y8701684D01*
X7231634Y8725204D01*
X7235494Y8749080D01*
X7237475Y8773210D01*
X7237475Y8797391D01*
X7235494Y8821521D01*
X7231634Y8845397D01*
X7225842Y8868918D01*
X7218172Y8891879D01*
X7211161Y8908338D01*
X7210348Y8912301D01*
X7211161Y8916263D01*
X7218172Y8932722D01*
X7225842Y8955684D01*
X7231634Y8979204D01*
X7235494Y9003080D01*
X7237475Y9027210D01*
X7237475Y9051391D01*
X7235494Y9075521D01*
X7231634Y9099397D01*
X7225842Y9122918D01*
X7218172Y9145879D01*
X7208672Y9168130D01*
X7197445Y9189567D01*
X7184491Y9209989D01*
X7169962Y9229344D01*
X7154468Y9246870D01*
X7152538Y9250121D01*
X7151928Y9253880D01*
X7153351Y9259062D01*
X7162088Y9284258D01*
X7168896Y9310014D01*
X7173772Y9336176D01*
X7176719Y9362643D01*
X7177684Y9389262D01*
X7176719Y9415932D01*
X7173772Y9442399D01*
X7168896Y9468561D01*
X7162088Y9494316D01*
X7153351Y9519513D01*
X7142835Y9543999D01*
X7130491Y9567621D01*
X7116470Y9590278D01*
X7100824Y9611817D01*
X7083602Y9632137D01*
X7064959Y9651187D01*
X7044944Y9668764D01*
X7023658Y9684816D01*
X7001306Y9699244D01*
X6977888Y9711994D01*
X6953605Y9722967D01*
X6928612Y9732162D01*
X6903008Y9739426D01*
X6876897Y9744811D01*
X6850481Y9748266D01*
X6823862Y9749739D01*
X6797243Y9749231D01*
X6770725Y9746792D01*
X6744411Y9742373D01*
X6718553Y9736023D01*
X6693204Y9727793D01*
X6668566Y9717735D01*
X6644690Y9705848D01*
X6621780Y9692233D01*
X6599936Y9676993D01*
X6579311Y9660128D01*
X6559956Y9641840D01*
X6542024Y9622129D01*
X6525564Y9601200D01*
X6510680Y9579051D01*
X6497523Y9555937D01*
X6486093Y9531858D01*
X6476492Y9507016D01*
X6468719Y9481515D01*
X6462826Y9455505D01*
X6458915Y9429191D01*
X6456934Y9402622D01*
X6456934Y9375952D01*
X6458915Y9349384D01*
X6462826Y9323070D01*
X6468719Y9297060D01*
X6476492Y9271558D01*
X6486093Y9246717D01*
X6497523Y9222638D01*
X6510680Y9199524D01*
X6525564Y9177375D01*
X6542024Y9156446D01*
X6559956Y9136735D01*
X6579311Y9118447D01*
X6599936Y9101582D01*
X6621780Y9086342D01*
X6633514Y9079382D01*
X6636308Y9076893D01*
X6638036Y9073591D01*
X6638442Y9069832D01*
X6636969Y9051391D01*
X6636969Y9027210D01*
X6638899Y9003080D01*
X6642760Y8979204D01*
X6648551Y8955684D01*
X6656222Y8932722D01*
X6663232Y8916263D01*
X6664045Y8912301D01*
X6663232Y8908338D01*
X6656222Y8891879D01*
X6648551Y8868918D01*
X6642760Y8845397D01*
X6638899Y8821521D01*
X6636969Y8797391D01*
X6636969Y8773210D01*
X6638899Y8749080D01*
X6642760Y8725204D01*
X6648551Y8701684D01*
X6656222Y8678722D01*
X6663232Y8662263D01*
X6664045Y8658301D01*
X6663232Y8654338D01*
X6656222Y8637879D01*
X6648551Y8614918D01*
X6642760Y8591397D01*
X6638899Y8567521D01*
X6636969Y8543391D01*
X6636969Y8519210D01*
X6638899Y8495080D01*
X6642760Y8471204D01*
X6648551Y8447684D01*
X6656222Y8424722D01*
X6663232Y8408263D01*
X6664045Y8404301D01*
X6663232Y8400338D01*
X6656222Y8383879D01*
X6648551Y8360918D01*
X6642760Y8337397D01*
X6638899Y8313521D01*
X6636969Y8289391D01*
X6636969Y8265210D01*
X6638899Y8241080D01*
X6642760Y8217204D01*
X6648551Y8193684D01*
X6656222Y8170722D01*
X6663232Y8154263D01*
X6664045Y8150301D01*
X6663232Y8146338D01*
X6656222Y8129879D01*
X6648551Y8106918D01*
X6642760Y8083397D01*
X6638899Y8059521D01*
X6636969Y8035391D01*
X6636969Y8011210D01*
X6638899Y7987080D01*
X6642760Y7963204D01*
X6648551Y7939684D01*
X6656222Y7916722D01*
X6663232Y7900263D01*
X6664045Y7896301D01*
X6663232Y7892338D01*
X6656222Y7875879D01*
X6648551Y7852918D01*
X6642760Y7829397D01*
X6638899Y7805521D01*
X6636969Y7781391D01*
X6636969Y7757210D01*
X6638899Y7733080D01*
X6642760Y7709204D01*
X6648551Y7685684D01*
X6656222Y7662722D01*
X6663232Y7646263D01*
X6664045Y7642301D01*
X6663232Y7638338D01*
X6656222Y7621879D01*
X6648551Y7598918D01*
X6642760Y7575397D01*
X6638899Y7551521D01*
X6636969Y7527391D01*
X6636969Y7503210D01*
X6638899Y7479080D01*
X6642760Y7455204D01*
X6648551Y7431684D01*
X6656222Y7408722D01*
X6663232Y7392263D01*
X6664045Y7388301D01*
X6663232Y7384338D01*
X6656222Y7367879D01*
X6648551Y7344918D01*
X6642760Y7321397D01*
X6638899Y7297521D01*
X6636969Y7273391D01*
X6636969Y7249210D01*
X6638899Y7225080D01*
X6642760Y7201204D01*
X6648551Y7177684D01*
X6656222Y7154722D01*
X6663232Y7138263D01*
X6664045Y7134301D01*
X6663232Y7130338D01*
X6656222Y7113879D01*
X6648551Y7090918D01*
X6642760Y7067397D01*
X6638899Y7043521D01*
X6636969Y7019391D01*
X6636969Y6995210D01*
X6638899Y6971080D01*
X6642760Y6947204D01*
X6648551Y6923684D01*
X6656222Y6900722D01*
X6663232Y6884263D01*
X6664045Y6880301D01*
X6663232Y6876338D01*
X6656222Y6859879D01*
X6648551Y6836918D01*
X6642760Y6813397D01*
X6638899Y6789521D01*
X6636969Y6765391D01*
X6636969Y6741210D01*
X6638899Y6717080D01*
X6642760Y6693204D01*
X6648551Y6669684D01*
X6656222Y6646722D01*
X6663232Y6630263D01*
X6664045Y6626301D01*
X6663232Y6622338D01*
X6656222Y6605879D01*
X6648551Y6582918D01*
X6642760Y6559397D01*
X6638899Y6535521D01*
X6636969Y6511391D01*
X6636969Y6487210D01*
X6638391Y6469481D01*
X6637832Y6465366D01*
X6635699Y6461760D01*
X6632346Y6459372D01*
X6628231Y6458508D01*
X5649823Y6458458D01*
X5634278Y6457543D01*
X5629605Y6457035D01*
X5614212Y6454597D01*
X5609590Y6453682D01*
X5594502Y6449822D01*
X5589981Y6448450D01*
X5575300Y6443167D01*
X5570982Y6441338D01*
X5556859Y6434734D01*
X5552694Y6432499D01*
X5539282Y6424574D01*
X5535371Y6421983D01*
X5522772Y6412788D01*
X5519115Y6409842D01*
X5507482Y6399479D01*
X4797653Y5689752D01*
X4794148Y5687466D01*
X4790033Y5686806D01*
X4785969Y5687872D01*
X4782667Y5690463D01*
X4780737Y5694172D01*
X4778705Y5701233D01*
X4773472Y5715711D01*
X4771644Y5720181D01*
X4765040Y5734151D01*
X4762804Y5738418D01*
X4754880Y5751728D01*
X4752238Y5755741D01*
X4743145Y5768187D01*
X4736795Y5775909D01*
X4729835Y5783580D01*
X4722774Y5790590D01*
X4715154Y5797550D01*
X4707483Y5803900D01*
X4699203Y5810097D01*
X4689551Y5816498D01*
X4687112Y5818784D01*
X4685538Y5821730D01*
X4678172Y5843879D01*
X4671161Y5860338D01*
X4670348Y5864301D01*
X4671161Y5868263D01*
X4678172Y5884722D01*
X4685842Y5907684D01*
X4691634Y5931204D01*
X4695494Y5955080D01*
X4697476Y5979210D01*
X4697476Y6003391D01*
X4695494Y6027521D01*
X4691634Y6051397D01*
X4685842Y6074918D01*
X4678172Y6097879D01*
X4671161Y6114338D01*
X4670348Y6118301D01*
X4671161Y6122263D01*
X4678172Y6138722D01*
X4685842Y6161684D01*
X4691634Y6185204D01*
X4695494Y6209080D01*
X4697476Y6233210D01*
X4697476Y6257391D01*
X4695494Y6281521D01*
X4691634Y6305397D01*
X4685842Y6328918D01*
X4678172Y6351879D01*
X4671161Y6368338D01*
X4670348Y6372301D01*
X4671161Y6376263D01*
X4678172Y6392722D01*
X4685842Y6415684D01*
X4691634Y6439204D01*
X4695494Y6463080D01*
X4697476Y6487210D01*
X4697476Y6511391D01*
X4695494Y6535521D01*
X4691634Y6559397D01*
X4685842Y6582918D01*
X4678172Y6605879D01*
X4671161Y6622338D01*
X4670348Y6626301D01*
X4671161Y6630263D01*
X4678172Y6646722D01*
X4685842Y6669684D01*
X4691634Y6693204D01*
X4695494Y6717080D01*
X4697476Y6741210D01*
X4697476Y6765391D01*
X4695494Y6789521D01*
X4691634Y6813397D01*
X4685842Y6836918D01*
X4678172Y6859879D01*
X4671161Y6876338D01*
X4670348Y6880301D01*
X4671161Y6884263D01*
X4678172Y6900722D01*
X4685842Y6923684D01*
X4691634Y6947204D01*
X4695494Y6971080D01*
X4697476Y6995210D01*
X4697476Y7019391D01*
X4695494Y7043521D01*
X4691634Y7067397D01*
X4685842Y7090918D01*
X4678172Y7113879D01*
X4671161Y7130338D01*
X4670348Y7134301D01*
X4671161Y7138263D01*
X4678172Y7154722D01*
X4685842Y7177684D01*
X4691634Y7201204D01*
X4695494Y7225080D01*
X4697476Y7249210D01*
X4697476Y7273391D01*
X4695494Y7297521D01*
X4691634Y7321397D01*
X4685842Y7344918D01*
X4678172Y7367879D01*
X4671161Y7384338D01*
X4670348Y7388301D01*
X4671161Y7392263D01*
X4678172Y7408722D01*
X4685842Y7431684D01*
X4691634Y7455204D01*
X4695494Y7479080D01*
X4697476Y7503210D01*
X4697476Y7527391D01*
X4695494Y7551521D01*
X4691634Y7575397D01*
X4685842Y7598918D01*
X4678172Y7621879D01*
X4671161Y7638338D01*
X4670348Y7642301D01*
X4671161Y7646263D01*
X4678172Y7662722D01*
X4685842Y7685684D01*
X4691634Y7709204D01*
X4695494Y7733080D01*
X4697476Y7757210D01*
X4697476Y7781391D01*
X4695494Y7805521D01*
X4691634Y7829397D01*
X4685842Y7852918D01*
X4678172Y7875879D01*
X4671161Y7892338D01*
X4670348Y7896301D01*
X4671161Y7900263D01*
X4678172Y7916722D01*
X4685842Y7939684D01*
X4691634Y7963204D01*
X4695494Y7987080D01*
X4697476Y8011210D01*
X4697476Y8035391D01*
X4695494Y8059521D01*
X4691634Y8083397D01*
X4685842Y8106918D01*
X4678172Y8129879D01*
X4671161Y8146338D01*
X4670348Y8150301D01*
X4671161Y8154263D01*
X4678172Y8170722D01*
X4685842Y8193684D01*
X4691634Y8217204D01*
X4695494Y8241080D01*
X4697476Y8265210D01*
X4697476Y8289391D01*
X4695494Y8313521D01*
X4691634Y8337397D01*
X4685842Y8360918D01*
X4678172Y8383879D01*
X4671161Y8400338D01*
X4670348Y8404301D01*
X4671161Y8408263D01*
X4678172Y8424722D01*
X4685842Y8447684D01*
X4691634Y8471204D01*
X4695494Y8495080D01*
X4697476Y8519210D01*
X4697476Y8543391D01*
X4695494Y8567521D01*
X4691634Y8591397D01*
X4685842Y8614918D01*
X4678172Y8637879D01*
X4671161Y8654338D01*
X4670348Y8658301D01*
X4671161Y8662263D01*
X4678172Y8678722D01*
X4685842Y8701684D01*
X4691634Y8725204D01*
X4695494Y8749080D01*
X4697476Y8773210D01*
X4697476Y8797391D01*
X4695494Y8821521D01*
X4691634Y8845397D01*
X4685842Y8868918D01*
X4678172Y8891879D01*
X4671161Y8908338D01*
X4670348Y8912301D01*
X4671161Y8916263D01*
X4678172Y8932722D01*
X4685842Y8955684D01*
X4691634Y8979204D01*
X4695494Y9003080D01*
X4697476Y9027210D01*
X4697476Y9051391D01*
X4696002Y9069578D01*
X4696358Y9073184D01*
X4697984Y9076436D01*
X4700625Y9078925D01*
X4723688Y9093758D01*
X4744923Y9109811D01*
X4764938Y9127388D01*
X4783632Y9146438D01*
X4800854Y9166758D01*
X4816500Y9188297D01*
X4830521Y9210954D01*
X4842814Y9234576D01*
X4853381Y9259062D01*
X4862068Y9284258D01*
X4868875Y9310014D01*
X4873802Y9336176D01*
X4876749Y9362643D01*
X4877714Y9389262D01*
X4877155Y9404400D01*
X4877765Y9408261D01*
X4879797Y9411614D01*
X5305094Y9876790D01*
X5308498Y9879228D01*
X5312613Y9880092D01*
X5358587Y9880092D01*
X12791440Y9804501D01*
X12795351Y9803688D01*
X12798602Y9801453D01*
X12800787Y9798151D01*
X12801498Y9794240D01*
X12800736Y9700615D01*
X12799974Y9696907D01*
X12797891Y9693656D01*
X12794792Y9691471D01*
X12791084Y9690557D01*
X12787274Y9691116D01*
X12783972Y9692995D01*
X12778841Y9697415D01*
X12757759Y9713010D01*
X12735560Y9726930D01*
X12712395Y9739172D01*
X12688366Y9749688D01*
X12663627Y9758324D01*
X12638278Y9765131D01*
X12612522Y9770008D01*
X12586512Y9772904D01*
X12560300Y9773920D01*
X12534087Y9772904D01*
X12508077Y9770008D01*
X12482322Y9765131D01*
X12456972Y9758324D01*
X12432233Y9749688D01*
X12408204Y9739172D01*
X12385040Y9726930D01*
X12362840Y9713010D01*
X12341758Y9697415D01*
X12321895Y9680346D01*
X12303353Y9661804D01*
X12286284Y9641941D01*
X12270689Y9620859D01*
X12256770Y9598660D01*
X12244527Y9575495D01*
X12234011Y9551466D01*
X12225375Y9526727D01*
X12218568Y9501378D01*
X12213691Y9475622D01*
X12210796Y9449612D01*
X12209780Y9423400D01*
X12210796Y9397187D01*
X12213691Y9371177D01*
X12218568Y9345422D01*
X12225375Y9320072D01*
X12234011Y9295333D01*
X12244527Y9271304D01*
X12256770Y9248140D01*
X12270689Y9225940D01*
X12286284Y9204858D01*
X12303353Y9184995D01*
X12321895Y9166453D01*
X12341758Y9149384D01*
X12362840Y9133789D01*
X12385040Y9119870D01*
X12408204Y9107627D01*
X12432233Y9097111D01*
X12456972Y9088475D01*
X12482322Y9081668D01*
X12508077Y9076791D01*
X12534087Y9073896D01*
X12560300Y9072880D01*
X12586512Y9073896D01*
X12612522Y9076791D01*
X12638278Y9081668D01*
X12663627Y9088475D01*
X12688366Y9097111D01*
X12712395Y9107627D01*
X12735560Y9119870D01*
X12757759Y9133789D01*
X12778841Y9149384D01*
X12782702Y9151721D01*
X12786512Y9152280D01*
X12790271Y9151366D01*
X12793421Y9149080D01*
X12795453Y9145828D01*
X12796164Y9142069D01*
X12756438Y4305046D01*
X12755422Y4300728D01*
X12752679Y4297273D01*
X12748717Y4295292D01*
X12744297Y4295190D01*
X12740233Y4296968D01*
X12732359Y4302810D01*
X12710160Y4316730D01*
X12686995Y4328972D01*
X12662966Y4339488D01*
X12638227Y4348124D01*
X12612878Y4354931D01*
X12587122Y4359808D01*
X12561112Y4362704D01*
X12534900Y4363720D01*
X12508687Y4362704D01*
X12492380Y4360875D01*
X12488570Y4361180D01*
X12485166Y4362856D01*
X12482576Y4365650D01*
X12481204Y4369257D01*
X12481356Y4373422D01*
X12484252Y4396435D01*
X12485217Y4419600D01*
X12484252Y4442764D01*
X12481356Y4465777D01*
X12476632Y4488434D01*
X12469977Y4510684D01*
X12461595Y4532274D01*
X12451384Y4553102D01*
X12439548Y4573016D01*
X12426035Y4591862D01*
X12411049Y4609592D01*
X12394692Y4625949D01*
X12376962Y4640935D01*
X12358116Y4654448D01*
X12338202Y4666284D01*
X12317374Y4676495D01*
X12295784Y4684877D01*
X12273534Y4691532D01*
X12250877Y4696256D01*
X12227864Y4699152D01*
X12204700Y4700117D01*
X12181535Y4699152D01*
X12158675Y4696307D01*
X12154408Y4696663D01*
X12150699Y4698746D01*
X12148159Y4702200D01*
X12147296Y4706366D01*
X12147296Y5148834D01*
X12148159Y5152999D01*
X12150699Y5156454D01*
X12154408Y5158536D01*
X12158675Y5158892D01*
X12181535Y5156047D01*
X12204700Y5155082D01*
X12227864Y5156047D01*
X12250877Y5158943D01*
X12273534Y5163667D01*
X12295784Y5170322D01*
X12317374Y5178704D01*
X12338202Y5188915D01*
X12358116Y5200751D01*
X12376962Y5214264D01*
X12394692Y5229250D01*
X12411049Y5245608D01*
X12426035Y5263337D01*
X12439548Y5282184D01*
X12451384Y5302097D01*
X12461595Y5322925D01*
X12469977Y5344515D01*
X12476632Y5366766D01*
X12481356Y5389422D01*
X12484252Y5412435D01*
X12485217Y5435600D01*
X12484252Y5458764D01*
X12481356Y5481777D01*
X12476632Y5504434D01*
X12469977Y5526684D01*
X12461595Y5548274D01*
X12451384Y5569102D01*
X12439548Y5589016D01*
X12426035Y5607862D01*
X12420295Y5614670D01*
X12418517Y5617718D01*
X12417907Y5621223D01*
X12417907Y5805271D01*
X12418466Y5808624D01*
X12420092Y5811621D01*
X12427559Y5821019D01*
X12440361Y5840272D01*
X12451486Y5860491D01*
X12460833Y5881573D01*
X12468453Y5903315D01*
X12474194Y5925667D01*
X12478004Y5948426D01*
X12479934Y5971438D01*
X12479934Y5994501D01*
X12478004Y6017514D01*
X12474194Y6040221D01*
X12468453Y6062573D01*
X12460833Y6084366D01*
X12451486Y6105448D01*
X12440361Y6125667D01*
X12427559Y6144920D01*
X12417044Y6158179D01*
X12415418Y6161176D01*
X12414859Y6164529D01*
X12414859Y6253581D01*
X12395809Y6249924D01*
X12373559Y6243726D01*
X12351918Y6235649D01*
X12337288Y6228791D01*
X12334290Y6227927D01*
X12331192Y6227978D01*
X12328245Y6228994D01*
X12321997Y6232245D01*
X12300712Y6241186D01*
X12278766Y6248298D01*
X12256312Y6253581D01*
X12233503Y6256934D01*
X12214606Y6258153D01*
X12210948Y6259068D01*
X12207849Y6261354D01*
X12205817Y6264554D01*
X12205106Y6268262D01*
X12205106Y6463385D01*
X12206020Y6467602D01*
X12208560Y6471056D01*
X12216638Y6478066D01*
X12234418Y6496202D01*
X12250775Y6515658D01*
X12265558Y6536334D01*
X12278664Y6558076D01*
X12290044Y6580784D01*
X12299645Y6604304D01*
X12307417Y6628485D01*
X12313259Y6653174D01*
X12317222Y6678269D01*
X12319152Y6703618D01*
X12319152Y6729018D01*
X12317222Y6754317D01*
X12313259Y6779412D01*
X12307417Y6804152D01*
X12299645Y6828332D01*
X12290044Y6851802D01*
X12278664Y6874509D01*
X12265558Y6896252D01*
X12250775Y6916928D01*
X12234418Y6936384D01*
X12216638Y6954520D01*
X12197537Y6971233D01*
X12177166Y6986371D01*
X12155678Y6999935D01*
X12133173Y7011771D01*
X12109856Y7021830D01*
X12085828Y7030059D01*
X12061240Y7036358D01*
X12036247Y7040778D01*
X12010948Y7043267D01*
X11985548Y7043724D01*
X11960199Y7042251D01*
X11935053Y7038848D01*
X11910212Y7033463D01*
X11885879Y7026148D01*
X11862206Y7017003D01*
X11839295Y7006081D01*
X11817299Y6993381D01*
X11796318Y6979005D01*
X11776557Y6963054D01*
X11758117Y6945630D01*
X11749786Y6936486D01*
X11746534Y6934098D01*
X11742572Y6933133D01*
X11738610Y6933793D01*
X11735206Y6935978D01*
X11732920Y6939330D01*
X11732107Y6943293D01*
X11732107Y7708392D01*
X11732869Y7712303D01*
X11735104Y7715605D01*
X11738356Y7717790D01*
X11742267Y7718552D01*
X11746179Y7717790D01*
X11749430Y7715605D01*
X11760200Y7704836D01*
X11778742Y7687665D01*
X11798401Y7672070D01*
X11819178Y7658049D01*
X11840972Y7645653D01*
X11863679Y7634935D01*
X11887098Y7625994D01*
X11911177Y7618933D01*
X11935053Y7613802D01*
X11960606Y7610297D01*
X11985650Y7608874D01*
X12010694Y7609331D01*
X12035688Y7611770D01*
X12060377Y7616037D01*
X12084710Y7622235D01*
X12108484Y7630261D01*
X12133224Y7640878D01*
X12155525Y7652613D01*
X12177014Y7666126D01*
X12197384Y7681315D01*
X12216536Y7697978D01*
X12234316Y7716113D01*
X12250674Y7735570D01*
X12265456Y7756194D01*
X12278563Y7777937D01*
X12288215Y7796784D01*
X12298019Y7819847D01*
X12306046Y7843621D01*
X12312192Y7867954D01*
X12313259Y7873085D01*
X12316510Y7892694D01*
X12317171Y7898180D01*
X12318898Y7917637D01*
X12319152Y7923479D01*
X12319355Y7942732D01*
X12319152Y7948879D01*
X12317882Y7967776D01*
X12317222Y7974228D01*
X12314529Y7992618D01*
X12313310Y7999323D01*
X12309246Y8017154D01*
X12307468Y8024012D01*
X12302134Y8041233D01*
X12299696Y8048193D01*
X12293193Y8064652D01*
X12290094Y8071713D01*
X12282474Y8087359D01*
X12278715Y8094421D01*
X12270079Y8109153D01*
X12265609Y8116163D01*
X12256058Y8129930D01*
X12250826Y8136839D01*
X12240463Y8149590D01*
X12234621Y8156143D01*
X12232741Y8159292D01*
X12232132Y8162899D01*
X12232132Y9016796D01*
X12231116Y9042044D01*
X12228271Y9066987D01*
X12223496Y9091625D01*
X12216841Y9115806D01*
X12208357Y9139428D01*
X12198096Y9162338D01*
X12186107Y9184335D01*
X12172492Y9205417D01*
X12157252Y9225381D01*
X12140590Y9244076D01*
X12122505Y9261500D01*
X12103150Y9277451D01*
X12082627Y9291878D01*
X12061037Y9304731D01*
X12038584Y9315856D01*
X12015317Y9325203D01*
X11991390Y9332772D01*
X11966956Y9338513D01*
X11942165Y9342323D01*
X11917121Y9344253D01*
X11892076Y9344253D01*
X11867032Y9342323D01*
X11842242Y9338513D01*
X11817807Y9332772D01*
X11793880Y9325203D01*
X11770614Y9315856D01*
X11748160Y9304731D01*
X11726570Y9291878D01*
X11706047Y9277451D01*
X11686692Y9261500D01*
X11668607Y9244076D01*
X11662206Y9236862D01*
X11658752Y9234373D01*
X11654586Y9233458D01*
X11650421Y9234373D01*
X11647017Y9236862D01*
X11640566Y9244076D01*
X11622481Y9261500D01*
X11603126Y9277451D01*
X11582603Y9291878D01*
X11561064Y9304731D01*
X11538559Y9315856D01*
X11515293Y9325203D01*
X11491366Y9332772D01*
X11466931Y9338513D01*
X11442141Y9342323D01*
X11417147Y9344253D01*
X11392052Y9344253D01*
X11367058Y9342323D01*
X11342268Y9338513D01*
X11317833Y9332772D01*
X11293906Y9325203D01*
X11270640Y9315856D01*
X11248136Y9304731D01*
X11226596Y9291878D01*
X11206073Y9277451D01*
X11186718Y9261500D01*
X11168634Y9244076D01*
X11162182Y9236862D01*
X11158778Y9234373D01*
X11154613Y9233458D01*
X11150447Y9234373D01*
X11146993Y9236862D01*
X11140592Y9244076D01*
X11122507Y9261500D01*
X11103152Y9277451D01*
X11082629Y9291878D01*
X11061039Y9304731D01*
X11038586Y9315856D01*
X11015319Y9325203D01*
X10991392Y9332772D01*
X10966958Y9338513D01*
X10942167Y9342323D01*
X10917123Y9344253D01*
X10892078Y9344253D01*
X10867034Y9342323D01*
X10842244Y9338513D01*
X10817809Y9332772D01*
X10793882Y9325203D01*
X10770616Y9315856D01*
X10748162Y9304731D01*
X10726572Y9291878D01*
X10706049Y9277451D01*
X10686694Y9261500D01*
X10668609Y9244076D01*
X10651947Y9225381D01*
X10636707Y9205417D01*
X10623092Y9184335D01*
X10611104Y9162338D01*
X10600842Y9139428D01*
X10592358Y9115806D01*
X10585704Y9091625D01*
X10580928Y9066987D01*
X10578084Y9042044D01*
X10577118Y9016796D01*
X10577118Y8188858D01*
X10576306Y8184997D01*
X10574121Y8181695D01*
X10558221Y8165744D01*
X10541152Y8146948D01*
X10527588Y8129676D01*
X10511586Y8105698D01*
X10501172Y8087106D01*
X10488777Y8060334D01*
X10481564Y8040928D01*
X10480090Y8036458D01*
X10474452Y8016900D01*
X10469219Y7992364D01*
X10468356Y7987080D01*
X10465866Y7967472D01*
X10465409Y7961884D01*
X10464444Y7942427D01*
X10464393Y7936484D01*
X10464952Y7917383D01*
X10465358Y7911084D01*
X10467340Y7892389D01*
X10468305Y7885887D01*
X10471658Y7867700D01*
X10473182Y7860944D01*
X10477855Y7843367D01*
X10479989Y7836458D01*
X10485882Y7819593D01*
X10488676Y7812582D01*
X10495737Y7796530D01*
X10499191Y7789468D01*
X10507268Y7774279D01*
X10511434Y7767218D01*
X10515701Y7760766D01*
X10520527Y7752943D01*
X10525404Y7745984D01*
X10535361Y7732725D01*
X10540949Y7725918D01*
X10551718Y7713675D01*
X10558018Y7707071D01*
X10569448Y7695946D01*
X10576458Y7689646D01*
X10582097Y7685125D01*
X10588498Y7679639D01*
X10596219Y7673695D01*
X10608716Y7664805D01*
X10617200Y7659319D01*
X10623194Y7655864D01*
X10629950Y7651648D01*
X10639298Y7646568D01*
X10652252Y7640066D01*
X10662208Y7635595D01*
X10675315Y7630261D01*
X10685881Y7626451D01*
X10699089Y7622235D01*
X10710214Y7619187D01*
X10723422Y7616037D01*
X10729925Y7614920D01*
X10735056Y7613802D01*
X10748111Y7611770D01*
X10754868Y7611109D01*
X10760202Y7610348D01*
X10766348Y7609992D01*
X10773105Y7609331D01*
X10780014Y7609230D01*
X10785551Y7608874D01*
X10798149Y7608874D01*
X10810951Y7609382D01*
X10823244Y7610297D01*
X10830356Y7611262D01*
X10836249Y7611821D01*
X10841939Y7612837D01*
X10848086Y7613650D01*
X10861243Y7616240D01*
X10872622Y7618933D01*
X10885830Y7622590D01*
X10896701Y7625994D01*
X10903762Y7628737D01*
X10909858Y7630820D01*
X10920120Y7634935D01*
X10933176Y7640878D01*
X10942828Y7645653D01*
X10955680Y7652715D01*
X10964621Y7658049D01*
X10977270Y7666329D01*
X10985347Y7672019D01*
X10991748Y7677099D01*
X10997641Y7681468D01*
X11005007Y7687614D01*
X11011052Y7693253D01*
X11016742Y7698181D01*
X11059769Y7741005D01*
X11063020Y7743190D01*
X11066932Y7743952D01*
X11070844Y7743190D01*
X11074095Y7741005D01*
X11076330Y7737703D01*
X11077092Y7733792D01*
X11077092Y6911797D01*
X11076228Y6907631D01*
X11073688Y6904228D01*
X11070031Y6902094D01*
X11065814Y6901688D01*
X11061801Y6903008D01*
X11058652Y6905853D01*
X11050778Y6916928D01*
X11034420Y6936384D01*
X11016640Y6954520D01*
X10997539Y6971233D01*
X10977168Y6986371D01*
X10955680Y6999935D01*
X10933176Y7011771D01*
X10909858Y7021830D01*
X10885830Y7030059D01*
X10861243Y7036358D01*
X10836249Y7040778D01*
X10810951Y7043267D01*
X10785551Y7043724D01*
X10760202Y7042251D01*
X10735056Y7038848D01*
X10710214Y7033463D01*
X10685881Y7026148D01*
X10662208Y7017003D01*
X10639298Y7006081D01*
X10617301Y6993381D01*
X10596321Y6979005D01*
X10576560Y6963054D01*
X10558119Y6945630D01*
X10541050Y6926834D01*
X10525455Y6906717D01*
X10511536Y6885533D01*
X10499242Y6863283D01*
X10488726Y6840169D01*
X10480040Y6816293D01*
X10473232Y6791807D01*
X10468356Y6766915D01*
X10465409Y6741668D01*
X10464393Y6716318D01*
X10465409Y6690918D01*
X10468356Y6665722D01*
X10473232Y6640779D01*
X10480040Y6616293D01*
X10488726Y6592417D01*
X10499242Y6569303D01*
X10511536Y6547104D01*
X10525455Y6525869D01*
X10541050Y6505803D01*
X10558119Y6487007D01*
X10575493Y6470548D01*
X10577880Y6467195D01*
X10578693Y6463182D01*
X10578693Y6259271D01*
X10578134Y6255969D01*
X10576560Y6253022D01*
X10574121Y6250787D01*
X10567619Y6246520D01*
X10547654Y6231026D01*
X10528960Y6214059D01*
X10511637Y6195720D01*
X10495788Y6176060D01*
X10481513Y6155232D01*
X10468914Y6133388D01*
X10458043Y6110630D01*
X10448950Y6087059D01*
X10441686Y6062878D01*
X10436352Y6038240D01*
X10432948Y6013196D01*
X10431475Y5987999D01*
X10431932Y5962751D01*
X10434370Y5937656D01*
X10438790Y5912815D01*
X10445089Y5888329D01*
X10453268Y5864453D01*
X10463225Y5841288D01*
X10475010Y5818936D01*
X10488472Y5797600D01*
X10503560Y5777331D01*
X10520121Y5758332D01*
X10538155Y5740654D01*
X10541304Y5738012D01*
X10543794Y5734913D01*
X10544911Y5731154D01*
X10545216Y5727903D01*
X10547604Y5712561D01*
X10548518Y5707938D01*
X10552379Y5692851D01*
X10553750Y5688330D01*
X10559034Y5673699D01*
X10560862Y5669330D01*
X10567466Y5655259D01*
X10569702Y5651093D01*
X10577626Y5637682D01*
X10580217Y5633770D01*
X10589412Y5621172D01*
X10592358Y5617514D01*
X10602722Y5605830D01*
X10836046Y5372455D01*
X10838078Y5369560D01*
X10842853Y5342636D01*
X10848441Y5321198D01*
X10855807Y5300370D01*
X10859566Y5292039D01*
X10860430Y5288330D01*
X10859871Y5284571D01*
X10857992Y5281269D01*
X10854994Y5278882D01*
X10851388Y5277764D01*
X10847578Y5278069D01*
X10831982Y5282438D01*
X10807192Y5287314D01*
X10782147Y5290210D01*
X10756900Y5291175D01*
X10731652Y5290210D01*
X10706608Y5287314D01*
X10681817Y5282438D01*
X10657535Y5275681D01*
X10633811Y5267045D01*
X10610799Y5256580D01*
X10588701Y5244388D01*
X10567619Y5230520D01*
X10547654Y5215026D01*
X10528960Y5198059D01*
X10511637Y5179720D01*
X10495788Y5160060D01*
X10481513Y5139232D01*
X10468914Y5117388D01*
X10458043Y5094630D01*
X10448950Y5071059D01*
X10441686Y5046878D01*
X10436352Y5022240D01*
X10434066Y5005527D01*
X10432491Y5001310D01*
X10429290Y4998212D01*
X10425023Y4996789D01*
X10420604Y4997348D01*
X10416794Y4999736D01*
X10094264Y5322265D01*
X10091978Y5325770D01*
X10091318Y5329885D01*
X10092334Y5333898D01*
X10099395Y5348325D01*
X10107777Y5369915D01*
X10114432Y5392166D01*
X10119156Y5414822D01*
X10122052Y5437835D01*
X10123017Y5461000D01*
X10122052Y5484164D01*
X10119156Y5507177D01*
X10114432Y5529834D01*
X10107777Y5552084D01*
X10099395Y5573674D01*
X10089184Y5594502D01*
X10077348Y5614416D01*
X10063835Y5633262D01*
X10058095Y5640070D01*
X10056317Y5643118D01*
X10055707Y5646623D01*
X10055707Y5817971D01*
X10056266Y5821324D01*
X10057892Y5824321D01*
X10065359Y5833719D01*
X10078161Y5852972D01*
X10089286Y5873191D01*
X10098633Y5894273D01*
X10106253Y5916015D01*
X10111994Y5938367D01*
X10115804Y5961126D01*
X10117734Y5984138D01*
X10117734Y6007201D01*
X10115804Y6030214D01*
X10111994Y6052921D01*
X10106253Y6075273D01*
X10098633Y6097066D01*
X10089286Y6118148D01*
X10078161Y6138367D01*
X10065359Y6157620D01*
X10054844Y6170879D01*
X10053218Y6173876D01*
X10052659Y6177229D01*
X10052659Y6266281D01*
X10033609Y6262624D01*
X10011359Y6256426D01*
X9989718Y6248349D01*
X9975088Y6241491D01*
X9972090Y6240627D01*
X9968992Y6240678D01*
X9966045Y6241694D01*
X9959797Y6244945D01*
X9938512Y6253886D01*
X9916566Y6260998D01*
X9894112Y6266281D01*
X9871303Y6269634D01*
X9848291Y6271107D01*
X9825177Y6270599D01*
X9812934Y6269329D01*
X9808718Y6269786D01*
X9805060Y6271869D01*
X9802571Y6275324D01*
X9801707Y6279438D01*
X9801707Y6450177D01*
X9802215Y6453276D01*
X9803587Y6456070D01*
X9805822Y6458305D01*
X9809937Y6461404D01*
X9829038Y6478066D01*
X9846818Y6496202D01*
X9863175Y6515658D01*
X9877958Y6536334D01*
X9891064Y6558076D01*
X9902444Y6580784D01*
X9912045Y6604304D01*
X9919817Y6628485D01*
X9925659Y6653174D01*
X9929622Y6678269D01*
X9931552Y6703618D01*
X9931552Y6729018D01*
X9929622Y6754317D01*
X9925659Y6779412D01*
X9919817Y6804152D01*
X9912045Y6828332D01*
X9902444Y6851802D01*
X9891064Y6874509D01*
X9877958Y6896252D01*
X9863175Y6916928D01*
X9846818Y6936384D01*
X9829038Y6954520D01*
X9809937Y6971233D01*
X9789566Y6986371D01*
X9768078Y6999935D01*
X9745573Y7011771D01*
X9722256Y7021830D01*
X9698228Y7030059D01*
X9673640Y7036358D01*
X9648647Y7040778D01*
X9623348Y7043267D01*
X9597948Y7043724D01*
X9572599Y7042251D01*
X9547453Y7038848D01*
X9522612Y7033463D01*
X9498279Y7026148D01*
X9474606Y7017003D01*
X9451695Y7006081D01*
X9429699Y6993381D01*
X9408718Y6979005D01*
X9388957Y6963054D01*
X9370517Y6945630D01*
X9353448Y6926834D01*
X9337294Y6905955D01*
X9334144Y6903212D01*
X9330131Y6902043D01*
X9325965Y6902551D01*
X9322409Y6904685D01*
X9319971Y6908038D01*
X9319107Y6912152D01*
X9319107Y7733792D01*
X9319869Y7737703D01*
X9322104Y7741005D01*
X9325356Y7743190D01*
X9329267Y7743952D01*
X9333179Y7743190D01*
X9336430Y7741005D01*
X9372600Y7704836D01*
X9391142Y7687665D01*
X9410801Y7672070D01*
X9431578Y7658049D01*
X9453372Y7645653D01*
X9476079Y7634935D01*
X9499498Y7625994D01*
X9523577Y7618933D01*
X9547453Y7613802D01*
X9573006Y7610297D01*
X9598050Y7608874D01*
X9623094Y7609331D01*
X9648088Y7611770D01*
X9672777Y7616037D01*
X9697110Y7622235D01*
X9720884Y7630261D01*
X9745624Y7640878D01*
X9767925Y7652613D01*
X9789414Y7666126D01*
X9809784Y7681315D01*
X9828936Y7697978D01*
X9846716Y7716113D01*
X9863074Y7735570D01*
X9877856Y7756194D01*
X9890963Y7777937D01*
X9900615Y7796784D01*
X9910419Y7819847D01*
X9918446Y7843621D01*
X9924592Y7867954D01*
X9925659Y7873085D01*
X9928910Y7892694D01*
X9929571Y7898180D01*
X9931298Y7917637D01*
X9931552Y7923479D01*
X9931755Y7942732D01*
X9931552Y7948879D01*
X9930282Y7967776D01*
X9929622Y7974228D01*
X9926929Y7992618D01*
X9925710Y7999323D01*
X9921646Y8017154D01*
X9919868Y8024012D01*
X9914534Y8041233D01*
X9912096Y8048193D01*
X9905593Y8064652D01*
X9902494Y8071713D01*
X9894874Y8087359D01*
X9891115Y8094421D01*
X9882479Y8109153D01*
X9878009Y8116163D01*
X9868458Y8129930D01*
X9863226Y8136839D01*
X9852863Y8149590D01*
X9846919Y8156346D01*
X9835743Y8168030D01*
X9822078Y8181695D01*
X9819894Y8184997D01*
X9819132Y8188858D01*
X9819132Y9016796D01*
X9818116Y9042044D01*
X9815271Y9066987D01*
X9810496Y9091625D01*
X9803841Y9115806D01*
X9795357Y9139428D01*
X9785096Y9162338D01*
X9773107Y9184335D01*
X9759492Y9205417D01*
X9744252Y9225381D01*
X9727590Y9244076D01*
X9709505Y9261500D01*
X9690150Y9277451D01*
X9669627Y9291878D01*
X9648037Y9304731D01*
X9625584Y9315856D01*
X9602317Y9325203D01*
X9578390Y9332772D01*
X9553956Y9338513D01*
X9529165Y9342323D01*
X9504121Y9344253D01*
X9479076Y9344253D01*
X9454032Y9342323D01*
X9429242Y9338513D01*
X9404807Y9332772D01*
X9380880Y9325203D01*
X9357614Y9315856D01*
X9335160Y9304731D01*
X9313570Y9291878D01*
X9293047Y9277451D01*
X9273692Y9261500D01*
X9255607Y9244076D01*
X9249206Y9236862D01*
X9245752Y9234373D01*
X9241586Y9233458D01*
X9237421Y9234373D01*
X9234017Y9236862D01*
X9227566Y9244076D01*
X9209481Y9261500D01*
X9190126Y9277451D01*
X9169603Y9291878D01*
X9148064Y9304731D01*
X9125559Y9315856D01*
X9102293Y9325203D01*
X9078366Y9332772D01*
X9053931Y9338513D01*
X9029141Y9342323D01*
X9004147Y9344253D01*
X8979052Y9344253D01*
X8954058Y9342323D01*
X8929268Y9338513D01*
X8904833Y9332772D01*
X8880906Y9325203D01*
X8857640Y9315856D01*
X8835136Y9304731D01*
X8813596Y9291878D01*
X8793073Y9277451D01*
X8773718Y9261500D01*
X8755634Y9244076D01*
X8749182Y9236862D01*
X8745778Y9234373D01*
X8741613Y9233458D01*
X8737447Y9234373D01*
X8733993Y9236862D01*
X8727592Y9244076D01*
X8709507Y9261500D01*
X8690152Y9277451D01*
X8669629Y9291878D01*
X8648039Y9304731D01*
X8625586Y9315856D01*
X8602319Y9325203D01*
X8578392Y9332772D01*
X8553958Y9338513D01*
X8529167Y9342323D01*
X8504123Y9344253D01*
X8479078Y9344253D01*
X8454034Y9342323D01*
X8429244Y9338513D01*
X8404809Y9332772D01*
X8380882Y9325203D01*
X8357616Y9315856D01*
X8335162Y9304731D01*
X8313572Y9291878D01*
X8293049Y9277451D01*
X8273694Y9261500D01*
X8255609Y9244076D01*
X8238947Y9225381D01*
X8223707Y9205417D01*
X8210092Y9184335D01*
X8198103Y9162338D01*
X8187842Y9139428D01*
X8179358Y9115806D01*
X8172703Y9091625D01*
X8167928Y9066987D01*
X8165084Y9042044D01*
X8164118Y9016796D01*
X8164118Y8162544D01*
X8163407Y8158835D01*
X8161375Y8155635D01*
X8153552Y8146948D01*
X8139988Y8129676D01*
X8123986Y8105698D01*
X8113572Y8087106D01*
X8101177Y8060334D01*
X8093964Y8040928D01*
X8092490Y8036458D01*
X8086852Y8016900D01*
X8081619Y7992364D01*
X8080756Y7987080D01*
X8078266Y7967472D01*
X8077809Y7961884D01*
X8076844Y7942427D01*
X8076793Y7936484D01*
X8077352Y7917383D01*
X8077758Y7911084D01*
X8079740Y7892389D01*
X8080705Y7885887D01*
X8084058Y7867700D01*
X8085581Y7860944D01*
X8090255Y7843367D01*
X8092389Y7836458D01*
X8098281Y7819593D01*
X8101075Y7812582D01*
X8108137Y7796530D01*
X8111591Y7789468D01*
X8119668Y7774279D01*
X8123834Y7767218D01*
X8128101Y7760766D01*
X8132927Y7752943D01*
X8137804Y7745984D01*
X8147761Y7732725D01*
X8153349Y7725918D01*
X8164118Y7713675D01*
X8170418Y7707071D01*
X8181848Y7695946D01*
X8188858Y7689646D01*
X8194497Y7685125D01*
X8200898Y7679639D01*
X8208619Y7673695D01*
X8221116Y7664805D01*
X8229600Y7659319D01*
X8235594Y7655864D01*
X8242350Y7651648D01*
X8251698Y7646568D01*
X8264652Y7640066D01*
X8274608Y7635595D01*
X8287715Y7630261D01*
X8298281Y7626451D01*
X8311489Y7622235D01*
X8322614Y7619187D01*
X8335822Y7616037D01*
X8342325Y7614920D01*
X8347456Y7613802D01*
X8360511Y7611770D01*
X8367268Y7611109D01*
X8372602Y7610348D01*
X8378748Y7609992D01*
X8385505Y7609331D01*
X8392414Y7609230D01*
X8397951Y7608874D01*
X8410549Y7608874D01*
X8423351Y7609382D01*
X8435644Y7610297D01*
X8442756Y7611262D01*
X8448649Y7611821D01*
X8454339Y7612837D01*
X8460486Y7613650D01*
X8473643Y7616240D01*
X8485022Y7618933D01*
X8498230Y7622590D01*
X8509101Y7625994D01*
X8516162Y7628737D01*
X8522258Y7630820D01*
X8532520Y7634935D01*
X8545576Y7640878D01*
X8555228Y7645653D01*
X8568080Y7652715D01*
X8577021Y7658049D01*
X8589670Y7666329D01*
X8597747Y7672019D01*
X8604148Y7677099D01*
X8610041Y7681468D01*
X8617407Y7687614D01*
X8623452Y7693253D01*
X8629142Y7698181D01*
X8646769Y7715605D01*
X8650020Y7717790D01*
X8653932Y7718552D01*
X8657844Y7717790D01*
X8661095Y7715605D01*
X8663330Y7712303D01*
X8664092Y7708392D01*
X8664092Y7099503D01*
X8663330Y7095591D01*
X8661146Y7092340D01*
X8657844Y7090105D01*
X8653983Y7089343D01*
X8650071Y7090105D01*
X8646769Y7092289D01*
X8637930Y7101027D01*
X8626297Y7111390D01*
X8622639Y7114336D01*
X8610041Y7123531D01*
X8606129Y7126122D01*
X8592718Y7134047D01*
X8588552Y7136282D01*
X8574430Y7142886D01*
X8570112Y7144715D01*
X8555431Y7149998D01*
X8550910Y7151370D01*
X8535822Y7155230D01*
X8531199Y7156145D01*
X8515807Y7158583D01*
X8511133Y7159091D01*
X8495588Y7160006D01*
X7932877Y7160056D01*
X7929270Y7160717D01*
X7926120Y7162647D01*
X7923885Y7165543D01*
X7922768Y7169048D01*
X7923022Y7172756D01*
X7928559Y7194194D01*
X7932420Y7217054D01*
X7934350Y7240117D01*
X7934350Y7263282D01*
X7932420Y7286345D01*
X7928559Y7309205D01*
X7922818Y7331608D01*
X7915198Y7353503D01*
X7905800Y7374585D01*
X7904937Y7378700D01*
X7905800Y7382814D01*
X7915198Y7403896D01*
X7922818Y7425791D01*
X7928559Y7448194D01*
X7932420Y7471054D01*
X7934350Y7494117D01*
X7934350Y7517282D01*
X7932420Y7540345D01*
X7928559Y7563205D01*
X7922818Y7585608D01*
X7915198Y7607503D01*
X7905800Y7628585D01*
X7904937Y7632700D01*
X7905800Y7636814D01*
X7915198Y7657896D01*
X7922818Y7679791D01*
X7928559Y7702194D01*
X7932420Y7725054D01*
X7934350Y7748117D01*
X7934350Y7771282D01*
X7932420Y7794345D01*
X7928559Y7817205D01*
X7922818Y7839608D01*
X7915198Y7861503D01*
X7905800Y7882585D01*
X7904937Y7886700D01*
X7905800Y7890814D01*
X7915198Y7911896D01*
X7922818Y7933791D01*
X7928559Y7956194D01*
X7932420Y7979054D01*
X7934350Y8002117D01*
X7934350Y8025282D01*
X7932420Y8048345D01*
X7928559Y8071205D01*
X7922818Y8093608D01*
X7915198Y8115503D01*
X7905800Y8136585D01*
X7904937Y8140700D01*
X7905800Y8144814D01*
X7915198Y8165896D01*
X7922818Y8187791D01*
X7928559Y8210194D01*
X7932420Y8233054D01*
X7934350Y8256117D01*
X7934350Y8279282D01*
X7932420Y8302345D01*
X7928559Y8325205D01*
X7922818Y8347608D01*
X7915198Y8369503D01*
X7905800Y8390585D01*
X7904937Y8394700D01*
X7905800Y8398814D01*
X7915198Y8419896D01*
X7922818Y8441791D01*
X7928559Y8464194D01*
X7932420Y8487054D01*
X7934350Y8510117D01*
X7934350Y8533282D01*
X7932420Y8556345D01*
X7928559Y8579205D01*
X7922818Y8601608D01*
X7915198Y8623503D01*
X7905800Y8644585D01*
X7904937Y8648700D01*
X7905800Y8652814D01*
X7915198Y8673896D01*
X7922818Y8695791D01*
X7928559Y8718194D01*
X7932420Y8741054D01*
X7934350Y8764117D01*
X7934350Y8787282D01*
X7932420Y8810345D01*
X7928559Y8833205D01*
X7922818Y8855608D01*
X7915198Y8877503D01*
X7905800Y8898585D01*
X7904937Y8902700D01*
X7905800Y8906814D01*
X7915198Y8927896D01*
X7922818Y8949791D01*
X7928559Y8972194D01*
X7932420Y8995054D01*
X7934350Y9018117D01*
X7934350Y9041282D01*
X7932420Y9064345D01*
X7928559Y9087205D01*
X7922818Y9109608D01*
X7915198Y9131503D01*
X7905750Y9152636D01*
X7894624Y9172956D01*
X7881772Y9192209D01*
X7867396Y9210344D01*
X7851546Y9227261D01*
X7834325Y9242755D01*
X7815884Y9256725D01*
X7796326Y9269171D01*
X7775803Y9279890D01*
X7754467Y9288881D01*
X7732471Y9295993D01*
X7709916Y9301276D01*
X7687005Y9304680D01*
X7663891Y9306153D01*
X7640726Y9305645D01*
X7617714Y9303207D01*
X7594955Y9298889D01*
X7572654Y9292640D01*
X7550962Y9284614D01*
X7529982Y9274708D01*
X7509967Y9263176D01*
X7490917Y9249918D01*
X7473086Y9235186D01*
X7456525Y9218980D01*
X7441387Y9201454D01*
X7427823Y9182709D01*
X7415784Y9162897D01*
X7405522Y9142171D01*
X7396988Y9120632D01*
X7390282Y9098483D01*
X7385456Y9075826D01*
X7382560Y9052814D01*
X7381595Y9029700D01*
X7382560Y9006586D01*
X7385456Y8983573D01*
X7390282Y8960916D01*
X7396988Y8938768D01*
X7405522Y8917228D01*
X7410500Y8907221D01*
X7411415Y8904274D01*
X7411415Y8901125D01*
X7410500Y8898178D01*
X7405522Y8888171D01*
X7396988Y8866632D01*
X7390282Y8844483D01*
X7385456Y8821826D01*
X7382560Y8798814D01*
X7381595Y8775700D01*
X7382560Y8752586D01*
X7385456Y8729573D01*
X7390282Y8706916D01*
X7396988Y8684768D01*
X7405522Y8663228D01*
X7410500Y8653221D01*
X7411415Y8650274D01*
X7411415Y8647125D01*
X7410500Y8644178D01*
X7405522Y8634171D01*
X7396988Y8612632D01*
X7390282Y8590483D01*
X7385456Y8567826D01*
X7382560Y8544814D01*
X7381595Y8521700D01*
X7382560Y8498586D01*
X7385456Y8475573D01*
X7390282Y8452916D01*
X7396988Y8430768D01*
X7405522Y8409228D01*
X7410500Y8399221D01*
X7411415Y8396274D01*
X7411415Y8393125D01*
X7410500Y8390178D01*
X7405522Y8380171D01*
X7396988Y8358631D01*
X7390282Y8336483D01*
X7385456Y8313826D01*
X7382560Y8290814D01*
X7381595Y8267700D01*
X7382560Y8244586D01*
X7385456Y8221573D01*
X7390282Y8198916D01*
X7396988Y8176768D01*
X7405522Y8155228D01*
X7410500Y8145221D01*
X7411415Y8142274D01*
X7411415Y8139125D01*
X7410500Y8136178D01*
X7405522Y8126171D01*
X7396988Y8104631D01*
X7390282Y8082483D01*
X7385456Y8059826D01*
X7382560Y8036814D01*
X7381595Y8013700D01*
X7382560Y7990586D01*
X7385456Y7967573D01*
X7390282Y7944916D01*
X7396988Y7922768D01*
X7405522Y7901228D01*
X7410500Y7891221D01*
X7411415Y7888274D01*
X7411415Y7885125D01*
X7410500Y7882178D01*
X7405522Y7872171D01*
X7396988Y7850631D01*
X7390282Y7828483D01*
X7385456Y7805826D01*
X7382560Y7782814D01*
X7381595Y7759700D01*
X7382560Y7736586D01*
X7385456Y7713573D01*
X7390282Y7690916D01*
X7396988Y7668768D01*
X7405522Y7647228D01*
X7410500Y7637221D01*
X7411415Y7634274D01*
X7411415Y7631125D01*
X7410500Y7628178D01*
X7405522Y7618171D01*
X7396988Y7596631D01*
X7390282Y7574483D01*
X7385456Y7551826D01*
X7382560Y7528814D01*
X7381595Y7505700D01*
X7382560Y7482586D01*
X7385456Y7459573D01*
X7390282Y7436916D01*
X7396988Y7414768D01*
X7405522Y7393228D01*
X7410500Y7383221D01*
X7411415Y7380274D01*
X7411415Y7377125D01*
X7410500Y7374178D01*
X7405522Y7364171D01*
X7396988Y7342631D01*
X7390282Y7320483D01*
X7385456Y7297826D01*
X7382560Y7274814D01*
X7381595Y7251700D01*
X7382560Y7228586D01*
X7385456Y7205573D01*
X7390282Y7182916D01*
X7396988Y7160768D01*
X7405522Y7139228D01*
X7410500Y7129221D01*
X7411415Y7126274D01*
X7411415Y7123125D01*
X7410500Y7120178D01*
X7405522Y7110171D01*
X7396988Y7088631D01*
X7390282Y7066483D01*
X7385456Y7043826D01*
X7382560Y7020814D01*
X7381595Y6997700D01*
X7382560Y6974586D01*
X7385456Y6951573D01*
X7390282Y6928916D01*
X7396988Y6906768D01*
X7405522Y6885228D01*
X7410500Y6875221D01*
X7411415Y6872274D01*
X7411415Y6869125D01*
X7410500Y6866178D01*
X7405522Y6856171D01*
X7396988Y6834631D01*
X7390282Y6812483D01*
X7385456Y6789826D01*
X7382560Y6766814D01*
X7381595Y6743700D01*
X7382560Y6720586D01*
X7385456Y6697573D01*
X7390282Y6674916D01*
X7396988Y6652768D01*
X7405522Y6631228D01*
X7410500Y6621221D01*
X7411415Y6618274D01*
X7411415Y6615125D01*
X7410500Y6612178D01*
X7405522Y6602171D01*
X7396988Y6580631D01*
X7390282Y6558483D01*
X7385456Y6535826D01*
X7382560Y6512814D01*
X7381595Y6489700D01*
X7382560Y6466586D01*
X7385456Y6443573D01*
X7390282Y6420916D01*
X7396988Y6398768D01*
X7405522Y6377228D01*
X7410500Y6367221D01*
X7411415Y6364274D01*
X7411415Y6361125D01*
X7410500Y6358178D01*
X7405522Y6348171D01*
X7396988Y6326632D01*
X7390282Y6304483D01*
X7385456Y6281826D01*
X7382560Y6258814D01*
X7381595Y6235700D01*
X7382560Y6212586D01*
X7385456Y6189573D01*
X7390282Y6166916D01*
X7396988Y6144768D01*
X7405522Y6123228D01*
X7410500Y6113221D01*
X7411415Y6110274D01*
X7411415Y6107125D01*
X7410500Y6104178D01*
X7405522Y6094171D01*
X7396988Y6072632D01*
X7390282Y6050483D01*
X7385456Y6027826D01*
X7382560Y6004814D01*
X7381595Y5981700D01*
X7382560Y5958586D01*
X7385456Y5935573D01*
X7390282Y5912916D01*
X7396988Y5890768D01*
X7405522Y5869228D01*
X7410500Y5859221D01*
X7411415Y5856274D01*
X7411415Y5853125D01*
X7410500Y5850178D01*
X7405522Y5840171D01*
X7396988Y5818632D01*
X7390282Y5796483D01*
X7385456Y5773826D01*
X7385253Y5772048D01*
X7474458Y5772048D01*
X7477912Y5771438D01*
X7480960Y5769711D01*
X7490917Y5761482D01*
X7505090Y5751626D01*
X7507986Y5748578D01*
X7509357Y5744565D01*
X7509002Y5740349D01*
X7506970Y5736640D01*
X7503617Y5734100D01*
X7487564Y5726531D01*
X7470698Y5716422D01*
X7454900Y5704687D01*
X7440320Y5691479D01*
X7436002Y5686704D01*
X7432598Y5684215D01*
X7428484Y5683351D01*
X7385253Y5683351D01*
X7385456Y5681573D01*
X7390282Y5658916D01*
X7396988Y5636768D01*
X7398258Y5631281D01*
X7396886Y5626404D01*
X7390231Y5607913D01*
X7385456Y5588812D01*
X7382560Y5569356D01*
X7381595Y5549442D01*
X7381595Y5397957D01*
X7382560Y5378043D01*
X7385456Y5358587D01*
X7390231Y5339486D01*
X7396886Y5320995D01*
X7405268Y5303164D01*
X7415377Y5286298D01*
X7427112Y5270500D01*
X7440320Y5255920D01*
X7454900Y5242712D01*
X7470698Y5230977D01*
X7487564Y5220868D01*
X7505395Y5212486D01*
X7523886Y5205831D01*
X7542987Y5201056D01*
X7562443Y5198160D01*
X7582357Y5197195D01*
X7733842Y5197195D01*
X7753756Y5198160D01*
X7773212Y5201056D01*
X7792313Y5205831D01*
X7810804Y5212486D01*
X7828635Y5220868D01*
X7845501Y5230977D01*
X7861300Y5242712D01*
X7875879Y5255920D01*
X7889087Y5270500D01*
X7900822Y5286298D01*
X7910931Y5303164D01*
X7919313Y5320995D01*
X7925968Y5339486D01*
X7930743Y5358587D01*
X7933639Y5378043D01*
X7934604Y5397957D01*
X7934604Y5549442D01*
X7933639Y5569356D01*
X7930743Y5588812D01*
X7925968Y5607913D01*
X7919313Y5626404D01*
X7917840Y5631332D01*
X7918399Y5635193D01*
X7922818Y5647791D01*
X7928559Y5670194D01*
X7930794Y5683351D01*
X7887716Y5683351D01*
X7883601Y5684215D01*
X7880197Y5686704D01*
X7875879Y5691479D01*
X7861300Y5704687D01*
X7845501Y5716422D01*
X7828635Y5726531D01*
X7812582Y5734100D01*
X7809179Y5736742D01*
X7807147Y5740501D01*
X7806893Y5744819D01*
X7808417Y5748832D01*
X7811516Y5751880D01*
X7815884Y5754674D01*
X7834325Y5768644D01*
X7838389Y5771388D01*
X7841996Y5772048D01*
X7935772Y5772048D01*
X7939684Y5771286D01*
X7942935Y5769051D01*
X7945170Y5765800D01*
X7945932Y5761888D01*
X7945983Y5729782D01*
X7946898Y5714187D01*
X7947406Y5709513D01*
X7949692Y5694934D01*
X7949539Y5691276D01*
X7951266Y5687720D01*
X7954619Y5674461D01*
X7955991Y5669889D01*
X7961274Y5655259D01*
X7963103Y5650890D01*
X7969707Y5636818D01*
X7971942Y5632653D01*
X7979867Y5619242D01*
X7982458Y5615330D01*
X7991652Y5602732D01*
X7994599Y5599074D01*
X8004962Y5587390D01*
X8293760Y5298541D01*
X8295995Y5295138D01*
X8296706Y5291175D01*
X8295843Y5287213D01*
X8293506Y5283911D01*
X8290052Y5281828D01*
X8284311Y5279745D01*
X8261299Y5269280D01*
X8239201Y5257088D01*
X8218119Y5243220D01*
X8198154Y5227726D01*
X8179460Y5210759D01*
X8162137Y5192420D01*
X8146288Y5172760D01*
X8132013Y5151932D01*
X8119414Y5130088D01*
X8108543Y5107330D01*
X8099450Y5083759D01*
X8092186Y5059578D01*
X8086852Y5034940D01*
X8083448Y5009896D01*
X8081975Y4984699D01*
X8082432Y4959451D01*
X8084870Y4934356D01*
X8089290Y4909515D01*
X8095589Y4885029D01*
X8103768Y4861153D01*
X8113725Y4837988D01*
X8125510Y4815636D01*
X8138972Y4794300D01*
X8154060Y4774031D01*
X8170621Y4755032D01*
X8188655Y4737354D01*
X8208009Y4721148D01*
X8228533Y4706467D01*
X8250123Y4693412D01*
X8272729Y4682083D01*
X8296097Y4672533D01*
X8320125Y4664811D01*
X8344662Y4659020D01*
X8369604Y4655108D01*
X8394801Y4653127D01*
X8419998Y4653127D01*
X8445195Y4655108D01*
X8470138Y4659020D01*
X8494674Y4664811D01*
X8518702Y4672533D01*
X8542070Y4682083D01*
X8564676Y4693412D01*
X8586266Y4706467D01*
X8593124Y4711344D01*
X8596731Y4712970D01*
X8600694Y4713122D01*
X8604402Y4711700D01*
X8607298Y4708956D01*
X8610549Y4704435D01*
X8613495Y4700778D01*
X8623808Y4689144D01*
X8657488Y4655362D01*
X8659825Y4651756D01*
X8660434Y4647488D01*
X8659266Y4643374D01*
X8656472Y4640122D01*
X8646820Y4632807D01*
X8629599Y4617313D01*
X8613749Y4600397D01*
X8599322Y4582261D01*
X8586520Y4562957D01*
X8575344Y4542637D01*
X8565946Y4521454D01*
X8558326Y4499559D01*
X8552535Y4477105D01*
X8548674Y4454296D01*
X8546744Y4431182D01*
X8546744Y4408017D01*
X8548674Y4384903D01*
X8552535Y4362094D01*
X8558326Y4339640D01*
X8565946Y4317746D01*
X8575344Y4296562D01*
X8586520Y4276242D01*
X8599322Y4256938D01*
X8613749Y4238802D01*
X8629599Y4221886D01*
X8646820Y4206392D01*
X8665260Y4192371D01*
X8684869Y4179976D01*
X8705392Y4169257D01*
X8726728Y4160265D01*
X8748776Y4153103D01*
X8771331Y4147820D01*
X8794292Y4144416D01*
X8817406Y4142943D01*
X8840571Y4143451D01*
X8863634Y4145889D01*
X8886393Y4150207D01*
X8908694Y4156456D01*
X8930436Y4164533D01*
X8951366Y4174388D01*
X8971483Y4185970D01*
X8990482Y4199178D01*
X9008364Y4213961D01*
X9018016Y4223461D01*
X9021775Y4225798D01*
X9026144Y4226306D01*
X9030360Y4224934D01*
X9045702Y4215739D01*
X9065818Y4205986D01*
X9086799Y4197959D01*
X9108338Y4191762D01*
X9130334Y4187444D01*
X9152585Y4185056D01*
X9174988Y4184548D01*
X9197390Y4186021D01*
X9219539Y4189374D01*
X9241332Y4194657D01*
X9262567Y4201718D01*
X9283141Y4210659D01*
X9302851Y4221276D01*
X9307169Y4223308D01*
X9310928Y4223359D01*
X9314484Y4222089D01*
X9325102Y4215739D01*
X9345218Y4205986D01*
X9366199Y4197959D01*
X9387738Y4191762D01*
X9409734Y4187444D01*
X9431985Y4185056D01*
X9454388Y4184548D01*
X9476790Y4186021D01*
X9498939Y4189374D01*
X9520732Y4194657D01*
X9541967Y4201718D01*
X9562541Y4210659D01*
X9582251Y4221276D01*
X9600996Y4233621D01*
X9618624Y4247489D01*
X9624364Y4252874D01*
X9627666Y4254957D01*
X9631476Y4255617D01*
X9635286Y4254804D01*
X9638487Y4252620D01*
X9652508Y4238650D01*
X9670237Y4223664D01*
X9689084Y4210151D01*
X9708997Y4198315D01*
X9729825Y4188104D01*
X9751415Y4179722D01*
X9773666Y4173067D01*
X9796322Y4168343D01*
X9819335Y4165447D01*
X9842500Y4164482D01*
X9865664Y4165447D01*
X9888677Y4168343D01*
X9911334Y4173067D01*
X9933584Y4179722D01*
X9955174Y4188104D01*
X9976002Y4198315D01*
X9993985Y4209034D01*
X9998049Y4210405D01*
X10002316Y4209999D01*
X10006025Y4207865D01*
X10021722Y4193692D01*
X10040162Y4179671D01*
X10059771Y4167276D01*
X10080294Y4156557D01*
X10101630Y4147565D01*
X10123678Y4140403D01*
X10146233Y4135120D01*
X10169194Y4131716D01*
X10192308Y4130243D01*
X10215473Y4130751D01*
X10238536Y4133189D01*
X10261295Y4137507D01*
X10283596Y4143756D01*
X10305338Y4151833D01*
X10326268Y4161688D01*
X10346385Y4173270D01*
X10365384Y4186478D01*
X10383266Y4201261D01*
X10399826Y4217466D01*
X10414965Y4235043D01*
X10428579Y4253788D01*
X10440568Y4273600D01*
X10450880Y4294378D01*
X10459415Y4315917D01*
X10463377Y4328972D01*
X10465358Y4332630D01*
X10468660Y4335170D01*
X10472674Y4336186D01*
X10476788Y4335475D01*
X10480243Y4333240D01*
X10741355Y4072229D01*
X10752988Y4061866D01*
X10756646Y4058920D01*
X10769244Y4049725D01*
X10773156Y4047134D01*
X10786567Y4039209D01*
X10790732Y4036974D01*
X10804855Y4030370D01*
X10809173Y4028541D01*
X10823854Y4023258D01*
X10828375Y4021886D01*
X10843463Y4018026D01*
X10848086Y4017111D01*
X10863478Y4014673D01*
X10868152Y4014165D01*
X10883696Y4013250D01*
X11660784Y4013250D01*
X11676380Y4014165D01*
X11681053Y4014673D01*
X11696446Y4017111D01*
X11701068Y4018026D01*
X11716156Y4021886D01*
X11720677Y4023258D01*
X11735308Y4028541D01*
X11739676Y4030370D01*
X11753748Y4036974D01*
X11757914Y4039209D01*
X11771325Y4047134D01*
X11775236Y4049725D01*
X11787835Y4058920D01*
X11791492Y4061866D01*
X11803176Y4072229D01*
X11879173Y4148175D01*
X11881764Y4150055D01*
X11908332Y4156557D01*
X11929567Y4163618D01*
X11950141Y4172559D01*
X11969851Y4183176D01*
X11988596Y4195521D01*
X12006478Y4209542D01*
X12009526Y4211218D01*
X12012930Y4211726D01*
X12016333Y4211116D01*
X12019330Y4209338D01*
X12032437Y4198264D01*
X12051284Y4184751D01*
X12071197Y4172915D01*
X12092025Y4162704D01*
X12113615Y4154322D01*
X12135866Y4147667D01*
X12158522Y4142943D01*
X12181535Y4140047D01*
X12194133Y4139539D01*
X12197791Y4138676D01*
X12200890Y4136542D01*
X12203023Y4133443D01*
X12203887Y4129735D01*
X12203277Y4126026D01*
X12199975Y4116527D01*
X12193168Y4091178D01*
X12188291Y4065422D01*
X12185396Y4039412D01*
X12184380Y4013200D01*
X12185396Y3986987D01*
X12188291Y3960977D01*
X12193168Y3935222D01*
X12199975Y3909872D01*
X12208611Y3885133D01*
X12219127Y3861104D01*
X12231370Y3837940D01*
X12245289Y3815740D01*
X12260884Y3794658D01*
X12277953Y3774795D01*
X12296495Y3756253D01*
X12316358Y3739184D01*
X12337440Y3723589D01*
X12359640Y3709670D01*
X12382804Y3697427D01*
X12406833Y3686911D01*
X12431572Y3678275D01*
X12456922Y3671468D01*
X12482677Y3666591D01*
X12508687Y3663696D01*
X12534900Y3662679D01*
X12561112Y3663696D01*
X12587122Y3666591D01*
X12612878Y3671468D01*
X12638227Y3678275D01*
X12662966Y3686911D01*
X12686995Y3697427D01*
X12710160Y3709670D01*
X12732359Y3723589D01*
X12735407Y3725875D01*
X12739522Y3727653D01*
X12743942Y3727551D01*
X12747955Y3725519D01*
X12750647Y3721963D01*
X12751612Y3717594D01*
X12750901Y3629558D01*
X12750088Y3625697D01*
X12747904Y3622446D01*
X12744602Y3620262D01*
X12740741Y3619500D01*
G37*

%LPC*%
G36*
X2463800Y3688079D02*
G01*
X2490012Y3689096D01*
X2516022Y3691991D01*
X2541778Y3696868D01*
X2567127Y3703675D01*
X2591866Y3712311D01*
X2615895Y3722827D01*
X2639060Y3735070D01*
X2661259Y3748989D01*
X2682341Y3764584D01*
X2702204Y3781653D01*
X2720746Y3800195D01*
X2737815Y3820058D01*
X2753410Y3841140D01*
X2767330Y3863340D01*
X2779572Y3886504D01*
X2790088Y3910533D01*
X2798724Y3935272D01*
X2805531Y3960622D01*
X2810408Y3986377D01*
X2813304Y4012387D01*
X2814320Y4038600D01*
X2813304Y4064812D01*
X2810408Y4090822D01*
X2805531Y4116578D01*
X2798724Y4141927D01*
X2790088Y4166666D01*
X2779572Y4190695D01*
X2767330Y4213860D01*
X2753410Y4236059D01*
X2737815Y4257141D01*
X2720746Y4277004D01*
X2702204Y4295546D01*
X2682341Y4312615D01*
X2661259Y4328210D01*
X2639060Y4342130D01*
X2615895Y4354372D01*
X2591866Y4364888D01*
X2567127Y4373524D01*
X2541778Y4380331D01*
X2516022Y4385208D01*
X2490012Y4388104D01*
X2463800Y4389120D01*
X2437587Y4388104D01*
X2411577Y4385208D01*
X2385822Y4380331D01*
X2360472Y4373524D01*
X2335733Y4364888D01*
X2311704Y4354372D01*
X2288540Y4342130D01*
X2266340Y4328210D01*
X2245258Y4312615D01*
X2225395Y4295546D01*
X2206853Y4277004D01*
X2189784Y4257141D01*
X2174189Y4236059D01*
X2160270Y4213860D01*
X2148027Y4190695D01*
X2137511Y4166666D01*
X2128875Y4141927D01*
X2122068Y4116578D01*
X2117191Y4090822D01*
X2114296Y4064812D01*
X2113280Y4038600D01*
X2114296Y4012387D01*
X2117191Y3986377D01*
X2122068Y3960622D01*
X2128875Y3935272D01*
X2137511Y3910533D01*
X2148027Y3886504D01*
X2160270Y3863340D01*
X2174189Y3841140D01*
X2189784Y3820058D01*
X2206853Y3800195D01*
X2225395Y3781653D01*
X2245258Y3764584D01*
X2266340Y3748989D01*
X2288540Y3735070D01*
X2311704Y3722827D01*
X2335733Y3712311D01*
X2360472Y3703675D01*
X2385822Y3696868D01*
X2411577Y3691991D01*
X2437587Y3689096D01*
G37*
G36*
X7817408Y4142943D02*
G01*
X7840573Y4143451D01*
X7863636Y4145889D01*
X7886395Y4150207D01*
X7908696Y4156456D01*
X7930438Y4164533D01*
X7951368Y4174388D01*
X7971485Y4185970D01*
X7990484Y4199178D01*
X8008366Y4213961D01*
X8024926Y4230166D01*
X8040065Y4247743D01*
X8053679Y4266488D01*
X8065668Y4286300D01*
X8075980Y4307078D01*
X8084515Y4328617D01*
X8091220Y4350766D01*
X8096046Y4373473D01*
X8098942Y4396435D01*
X8099907Y4419600D01*
X8098942Y4442764D01*
X8096046Y4465726D01*
X8091220Y4488434D01*
X8084515Y4510582D01*
X8075980Y4532122D01*
X8065668Y4552899D01*
X8053679Y4572711D01*
X8040065Y4591456D01*
X8024926Y4609033D01*
X8008366Y4625238D01*
X7990484Y4640021D01*
X7971485Y4653229D01*
X7951368Y4664811D01*
X7930438Y4674666D01*
X7908696Y4682744D01*
X7886395Y4688992D01*
X7863636Y4693310D01*
X7840573Y4695748D01*
X7817408Y4696256D01*
X7794294Y4694783D01*
X7771333Y4691380D01*
X7748778Y4686096D01*
X7726730Y4678934D01*
X7705394Y4669942D01*
X7684871Y4659223D01*
X7665262Y4646828D01*
X7646822Y4632807D01*
X7629601Y4617313D01*
X7613751Y4600397D01*
X7599324Y4582261D01*
X7586522Y4562957D01*
X7575346Y4542637D01*
X7565948Y4521454D01*
X7558328Y4499559D01*
X7552537Y4477105D01*
X7548676Y4454296D01*
X7546746Y4431182D01*
X7546746Y4408017D01*
X7548676Y4384903D01*
X7552537Y4362094D01*
X7558328Y4339640D01*
X7565948Y4317746D01*
X7575346Y4296562D01*
X7586522Y4276242D01*
X7599324Y4256938D01*
X7613751Y4238802D01*
X7629601Y4221886D01*
X7646822Y4206392D01*
X7665262Y4192371D01*
X7684871Y4179976D01*
X7705394Y4169257D01*
X7726730Y4160265D01*
X7748778Y4153103D01*
X7771333Y4147820D01*
X7794294Y4144416D01*
G37*
G36*
X6823862Y4378858D02*
G01*
X6850481Y4380331D01*
X6876897Y4383786D01*
X6903008Y4389170D01*
X6928612Y4396435D01*
X6953605Y4405630D01*
X6977888Y4416602D01*
X7001306Y4429353D01*
X7023658Y4443780D01*
X7044944Y4459833D01*
X7064959Y4477410D01*
X7083602Y4496460D01*
X7100824Y4516780D01*
X7116470Y4538319D01*
X7130491Y4560976D01*
X7142835Y4584598D01*
X7153351Y4609084D01*
X7162088Y4634280D01*
X7168896Y4660036D01*
X7173772Y4686198D01*
X7176719Y4712665D01*
X7177684Y4739284D01*
X7176719Y4765954D01*
X7173772Y4792421D01*
X7168896Y4818583D01*
X7162088Y4844338D01*
X7153351Y4869535D01*
X7142835Y4894021D01*
X7130491Y4917643D01*
X7116470Y4940300D01*
X7100824Y4961839D01*
X7083602Y4982159D01*
X7064959Y5001209D01*
X7044944Y5018786D01*
X7023658Y5034838D01*
X7001306Y5049266D01*
X6977888Y5062016D01*
X6953605Y5072989D01*
X6928612Y5082184D01*
X6903008Y5089448D01*
X6876897Y5094833D01*
X6850481Y5098288D01*
X6823862Y5099761D01*
X6797243Y5099253D01*
X6770725Y5096814D01*
X6744411Y5092395D01*
X6718553Y5086045D01*
X6693204Y5077815D01*
X6668566Y5067757D01*
X6644690Y5055870D01*
X6621780Y5042255D01*
X6599936Y5027015D01*
X6579311Y5010150D01*
X6559956Y4991862D01*
X6542024Y4972151D01*
X6525564Y4951222D01*
X6510680Y4929073D01*
X6497523Y4905959D01*
X6486093Y4881880D01*
X6476492Y4857038D01*
X6468719Y4831537D01*
X6462826Y4805527D01*
X6458915Y4779213D01*
X6456934Y4752644D01*
X6456934Y4725974D01*
X6458915Y4699406D01*
X6462826Y4673092D01*
X6468719Y4647082D01*
X6476492Y4621580D01*
X6486093Y4596739D01*
X6497523Y4572660D01*
X6510680Y4549546D01*
X6525564Y4527397D01*
X6542024Y4506468D01*
X6559956Y4486757D01*
X6579311Y4468469D01*
X6599936Y4451604D01*
X6621780Y4436364D01*
X6644690Y4422749D01*
X6668566Y4410862D01*
X6693204Y4400804D01*
X6718553Y4392574D01*
X6744411Y4386224D01*
X6770725Y4381804D01*
X6797243Y4379366D01*
G37*
G36*
X12502540Y5709920D02*
G01*
X12510312Y5711088D01*
X12532766Y5716371D01*
X12554712Y5723483D01*
X12575997Y5732424D01*
X12596469Y5743092D01*
X12615926Y5755487D01*
X12634315Y5769406D01*
X12651435Y5784850D01*
X12667234Y5801664D01*
X12681559Y5819749D01*
X12694361Y5839002D01*
X12705486Y5859221D01*
X12714833Y5880303D01*
X12722453Y5902096D01*
X12728194Y5924448D01*
X12730429Y5937859D01*
X12502540Y5937859D01*
G37*
G36*
X10140340Y5722620D02*
G01*
X10148112Y5723788D01*
X10170566Y5729071D01*
X10192512Y5736183D01*
X10213797Y5745124D01*
X10234269Y5755792D01*
X10253726Y5768187D01*
X10272115Y5782106D01*
X10289235Y5797550D01*
X10305034Y5814364D01*
X10319359Y5832449D01*
X10332161Y5851702D01*
X10343286Y5871921D01*
X10352633Y5893003D01*
X10360253Y5914796D01*
X10365994Y5937148D01*
X10368229Y5950559D01*
X10140340Y5950559D01*
G37*
G36*
X12502540Y6025540D02*
G01*
X12730429Y6025540D01*
X12728194Y6039002D01*
X12722453Y6061354D01*
X12714833Y6083096D01*
X12705486Y6104178D01*
X12694361Y6124397D01*
X12681559Y6143650D01*
X12667234Y6161735D01*
X12651435Y6178550D01*
X12634315Y6193993D01*
X12615926Y6207912D01*
X12596469Y6220307D01*
X12575997Y6230975D01*
X12554712Y6239916D01*
X12532766Y6247028D01*
X12510312Y6252311D01*
X12502540Y6253480D01*
G37*
G36*
X10140340Y6038240D02*
G01*
X10368229Y6038240D01*
X10365994Y6051702D01*
X10360253Y6074054D01*
X10352633Y6095796D01*
X10343286Y6116878D01*
X10332161Y6137097D01*
X10319359Y6156350D01*
X10305034Y6174435D01*
X10289235Y6191250D01*
X10272115Y6206693D01*
X10253726Y6220612D01*
X10234269Y6233007D01*
X10213797Y6243675D01*
X10192512Y6252616D01*
X10170566Y6259728D01*
X10148112Y6265011D01*
X10140340Y6266180D01*
G37*

%LPD*%
D10*
X8778011Y5009616D02*
G01*
X8778011Y4836388D01*
X9169400Y4445000D01*
X2981197Y6108700D02*
G01*
X2349500Y5477002D01*
X2349500Y5346700D01*
X9842500Y4445000D02*
G01*
X9842500Y4546600D01*
X8750300Y5638800D01*
X2934563Y8128000D02*
G01*
X2801315Y8128000D01*
X2801315Y8128000D02*
G01*
X2801315Y7779715D01*
X2578100Y7556500D01*
X9604298Y6716293D02*
G01*
X9588500Y6700494D01*
X9588500Y5994400D01*
X2832100Y7556500D02*
G01*
X2832100Y7150100D01*
X2451100Y6769100D01*
X3085236Y8128000D02*
G01*
X3085236Y7809636D01*
X2832100Y7556500D01*
X12204700Y5435600D02*
G01*
X12204700Y5982970D01*
X9842500Y5461000D02*
G01*
X9842500Y5995670D01*
D11*
X11991898Y7936306D02*
G01*
X11904599Y8023605D01*
X11904599Y9017000D01*
X11391900Y6516293D02*
G01*
X11404600Y6528993D01*
X11404600Y9017000D01*
X10791901Y7936306D02*
G01*
X10904600Y8049005D01*
X10904600Y9017000D01*
X9604298Y7936306D02*
G01*
X9491599Y8049005D01*
X9491599Y9017000D01*
X9004300Y6516293D02*
G01*
X8991600Y6528993D01*
X8991600Y9017000D01*
X8404301Y7936306D02*
G01*
X8491600Y8023605D01*
X8491600Y9017000D01*
D10*
X11950700Y5981700D02*
G01*
X10934700Y4965700D01*
X10756900Y4965700D01*
X11991898Y6716293D02*
G01*
X11991898Y6022898D01*
X11950700Y5981700D01*
X11874500Y5397500D02*
G01*
X11934063Y5337937D01*
X11934063Y4559807D01*
X2134463Y8128000D02*
G01*
X2134463Y8263940D01*
X2134463Y8263940D02*
G01*
X2371648Y8501126D01*
X2467736Y8501126D01*
X2324100Y7556500D02*
G01*
X2324100Y7779638D01*
X2134463Y7969275D01*
X2134463Y8128000D01*
X2705100Y6769100D02*
G01*
X3218459Y6255740D01*
X3218459Y5138140D01*
X3657600Y4699000D01*
X3657600Y5486400D02*
G01*
X3826332Y5486400D01*
X3826332Y5486400D02*
G01*
X3982135Y5330596D01*
X4227601Y5330596D01*
X4441418Y5544413D01*
X4477105Y5544413D01*
X4569079Y5636387D01*
X4575581Y5636387D01*
X4575606Y5636361D01*
X4575606Y5628233D01*
X3657600Y4710226D01*
X3657600Y4699000D01*
X9448800Y4445000D02*
G01*
X9448800Y4513351D01*
X8829141Y5133009D01*
X8760790Y5133009D01*
X8159140Y5734659D01*
X8159140Y5988659D01*
X7658100Y6489700D01*
X2285136Y8128000D02*
G01*
X2418181Y8128000D01*
X3657600Y4953000D02*
G01*
X3488690Y5121910D01*
X3488690Y7945653D01*
X3158870Y8275472D01*
X2565654Y8275472D01*
X2418181Y8128000D01*
X8750300Y5384800D02*
G01*
X8407400Y5727700D01*
X8407400Y5994400D01*
X8404301Y6716293D02*
G01*
X8407400Y6713194D01*
X8407400Y5994400D01*
X10756900Y5981700D02*
G01*
X10756900Y5753100D01*
X11112500Y5397500D01*
X10791901Y6716293D02*
G01*
X10791901Y6016701D01*
X10756900Y5981700D01*
X2070100Y7556500D02*
G01*
X2070100Y7727975D01*
X2070100Y7727975D02*
G01*
X1995754Y7802321D01*
X1995754Y8381593D01*
X2467736Y8853576D01*
X2467736Y9101074D01*
X2070100Y7556500D02*
G01*
X2070100Y6896100D01*
X2197100Y6769100D01*
X11874500Y5651500D02*
G01*
X11557000Y5334000D01*
X11557000Y4406900D01*
X6937197Y6245301D02*
G01*
X5654725Y6245301D01*
X3936771Y4527346D01*
X3448253Y4527346D01*
X2628900Y5346700D01*
X11836400Y4406900D02*
G01*
X11655907Y4226407D01*
X10888599Y4226407D01*
X9909987Y5205018D01*
X9446564Y5205018D01*
X8726119Y5925464D01*
X8726119Y6711416D01*
X8490686Y6946849D01*
X7861249Y6946849D01*
X7658100Y6743700D01*
D12*
G01*
X2285124Y8128000D03*
G01*
X2134475Y8128000D03*
D13*
G01*
X2934575Y8128000D03*
G01*
X3085224Y8128000D03*
D14*
G01*
X2002663Y8751062D03*
D15*
G01*
X2467736Y9101074D03*
G01*
X2467736Y8501126D03*
D16*
G01*
X9169400Y4445000D03*
G01*
X9448800Y4445000D03*
G01*
X11557000Y4406900D03*
G01*
X11836400Y4406900D03*
G01*
X2349500Y5346700D03*
G01*
X2628900Y5346700D03*
D17*
G01*
X8407400Y4978400D03*
G01*
X8407400Y5994400D03*
G01*
X8491600Y9017000D03*
G01*
X8991600Y9017000D03*
G01*
X9491599Y9017000D03*
G01*
X10904600Y9017000D03*
G01*
X11404600Y9017000D03*
G01*
X11904599Y9017000D03*
D18*
G01*
X9512300Y5384800D03*
G01*
X8750300Y5384800D03*
G01*
X9512300Y5638800D03*
G01*
X8750300Y5638800D03*
G01*
X11874500Y5397500D03*
G01*
X11112500Y5397500D03*
G01*
X11874500Y5651500D03*
G01*
X11112500Y5651500D03*
D19*
G01*
X9842500Y5995670D03*
G01*
X10096500Y5994400D03*
G01*
X9588500Y5994400D03*
G01*
X12204700Y5982970D03*
G01*
X12458700Y5981700D03*
G01*
X11950700Y5981700D03*
D20*
G01*
X7823200Y4419600D03*
G01*
X8823197Y4419600D03*
G01*
X10198100Y4406900D03*
G01*
X11198097Y4406900D03*
G01*
X1981200Y6108700D03*
G01*
X2981197Y6108700D03*
D21*
G01*
X9842500Y4445000D03*
G01*
X9842500Y5461000D03*
G01*
X12204700Y4419600D03*
G01*
X12204700Y5435600D03*
D22*
G01*
X3657600Y4699000D03*
D23*
G01*
X3657600Y4953000D03*
D21*
G01*
X2705100Y6769100D03*
G01*
X2451100Y6769100D03*
G01*
X2197100Y6769100D03*
D24*
G01*
X7658100Y5473700D03*
D25*
G01*
X7658100Y5727700D03*
G01*
X7658100Y5981700D03*
G01*
X7658100Y6235700D03*
G01*
X7658100Y6489700D03*
G01*
X7658100Y6743700D03*
G01*
X7658100Y6997700D03*
G01*
X7658100Y7251700D03*
G01*
X7658100Y7505700D03*
G01*
X7658100Y7759700D03*
G01*
X7658100Y8013700D03*
G01*
X7658100Y8267700D03*
G01*
X7658100Y8521700D03*
G01*
X7658100Y8775700D03*
G01*
X7658100Y9029700D03*
D24*
G01*
X3657600Y5486400D03*
D25*
G01*
X3657600Y5740400D03*
G01*
X3657600Y5994400D03*
G01*
X3657600Y6248400D03*
G01*
X3657600Y6502400D03*
G01*
X3657600Y6756400D03*
G01*
X3657600Y7010400D03*
G01*
X3657600Y7264400D03*
G01*
X3657600Y7518400D03*
G01*
X3657600Y7772400D03*
G01*
X3657600Y8026400D03*
G01*
X3657600Y8280400D03*
G01*
X3657600Y8534400D03*
G01*
X3657600Y8788400D03*
G01*
X3657600Y9042400D03*
D11*
G01*
X9604298Y7936306D03*
G01*
X8404301Y7936306D03*
G01*
X8404301Y6716293D03*
G01*
X9604298Y6716293D03*
G01*
X9004300Y6516293D03*
G01*
X11991898Y7936306D03*
G01*
X10791901Y7936306D03*
G01*
X10791901Y6716293D03*
G01*
X11991898Y6716293D03*
G01*
X11391900Y6516293D03*
D26*
G01*
X6937197Y9039301D03*
G01*
X6937197Y8785301D03*
G01*
X6937197Y8531301D03*
G01*
X6937197Y8277301D03*
G01*
X6937197Y8023301D03*
G01*
X6937197Y7769301D03*
G01*
X6937197Y7515301D03*
G01*
X6937197Y7261301D03*
G01*
X6937197Y7007301D03*
G01*
X6937197Y6753301D03*
G01*
X6937197Y6499301D03*
G01*
X6937197Y6245301D03*
G01*
X6937197Y5991301D03*
G01*
X6937197Y5737301D03*
D27*
G01*
X6937197Y5493461D03*
D26*
G01*
X4397197Y8785301D03*
G01*
X4397197Y8531301D03*
G01*
X4397197Y8277301D03*
G01*
X4397197Y8023301D03*
G01*
X4397197Y7769301D03*
G01*
X4397197Y7515301D03*
G01*
X4397197Y7261301D03*
G01*
X4397197Y7007301D03*
G01*
X4397197Y6753301D03*
G01*
X4397197Y6499301D03*
G01*
X4397197Y6245301D03*
G01*
X4397197Y5991301D03*
G01*
X4397197Y5737301D03*
D27*
G01*
X4397197Y5483301D03*
D26*
G01*
X4397197Y9039301D03*
D22*
G01*
X2070100Y7556500D03*
D23*
G01*
X2324100Y7556500D03*
G01*
X2578100Y7556500D03*
G01*
X2832100Y7556500D03*
D17*
G01*
X10756900Y4965700D03*
G01*
X10756900Y5981700D03*
D28*
G01*
X8778011Y5009616D03*
G01*
X11934063Y4559807D03*
M02*
